<svg width="53" height="24" viewBox="0 0 53 24" fill="none" xmlns="http://www.w3.org/2000/svg">
<path d="M0.789062 15.5752C1.49906 14.3372 1.34903 14.6872 1.00903 13.5692C0.889033 13.1842 6.39901 13.3472 5.10901 15.5752C6.66901 15.5252 6.70908 14.0642 7.05908 12.9092C7.71908 13.5042 9.29903 13.5102 10.129 13.4312C9.44903 13.7802 11.3291 14.3752 11.5591 14.2982C12.0491 14.5312 12.779 13.8602 13.459 13.6302C14.819 12.8062 17.099 12.2052 18.649 12.7122C18.649 12.4432 18.6491 12.1612 18.5291 11.9022C19.2991 12.0022 20.549 12.6422 21.319 12.2782C22.919 11.5162 22.739 13.2962 23.729 13.6692C24.529 13.9752 24.8591 12.0192 24.1691 11.9242C23.2691 11.8002 23.819 10.7722 23.709 10.3092C23.569 9.68616 23.019 9.50717 22.759 8.95217C22.099 7.53417 25.759 7.04718 26.489 6.55318C27.119 6.12618 26.6291 4.27218 27.8091 4.71718C29.3891 5.31718 28.469 3.67519 28.839 2.24319C29.969 2.54119 31.299 4.33818 32.579 4.50518C34.909 3.91918 35.119 4.47517 35.349 4.55517C35.349 3.85917 35.7391 3.17818 36.4291 2.95418C37.3291 2.66318 37.2191 2.03417 37.2891 0.883169C38.7791 0.753169 40.569 1.44518 41.969 1.91018C42.439 1.66118 44.7191 3.44518 46.4191 3.04018C47.7491 2.72418 50.319 2.58618 50.519 4.16018C50.519 4.35218 50.519 5.10417 50.719 5.77917C50.899 6.52117 50.719 7.58417 51.149 8.12917C51.679 8.87417 52.419 9.00718 52.349 9.48418C52.249 9.96218 51.4191 10.7752 51.0591 11.7112C50.3891 13.4712 49.5691 11.2302 47.9291 11.8872C47.2191 12.1722 50.5191 12.8582 48.5591 13.8542C47.0291 14.6342 47.429 16.6952 47.879 17.8742C46.779 17.6412 43.959 19.3002 44.859 20.7542C43.289 19.7632 42.559 20.8982 41.079 21.0332C40.009 21.1332 39.269 20.6252 38.259 20.8292C37.499 20.9842 35.849 22.5772 35.249 22.8912C34.119 23.4802 31.209 22.1382 30.079 21.9752C27.169 21.5532 24.609 21.9152 21.619 20.9752C20.709 20.6902 17.269 18.2682 19.009 17.2252C18.019 17.0182 17.209 17.7392 16.269 17.8732C14.899 18.0702 13.729 17.8832 12.349 18.2752C11.529 18.5072 10.869 19.9912 10.019 19.7432C9.15904 19.4922 8.37903 19.2962 7.50903 19.0812C6.79903 18.9032 7.17898 18.0732 6.70898 17.9972C6.15898 17.9072 5.78898 18.4322 5.45898 18.8402C4.84898 19.5872 3.11904 18.5262 2.63904 18.0062C2.10904 17.4422 1.33906 17.3582 1.03906 17.3532C1.32906 16.6942 1.15906 16.0952 0.789062 15.5712" fill="#c0c0c0"/>
</svg>
