<svg width="97" height="83" viewBox="0 0 97 83" fill="none" xmlns="http://www.w3.org/2000/svg">
<path d="M0.960511 26.0939C1.85051 25.6719 2.92058 25.4079 3.91058 25.5899C4.25058 24.0759 2.2405 25.1169 1.8205 24.0779C2.7405 23.7709 3.82058 23.8839 4.78058 23.9329C4.03058 23.8039 3.0106 24.0709 3.5506 23.1409C2.9706 23.1109 1.00056 24.2199 0.76056 23.2489C0.44056 21.9239 2.46059 21.1239 3.42059 20.9339C4.71059 20.6779 5.93054 20.5739 7.24054 20.6099C9.09054 20.6599 10.2805 18.8599 12.3405 19.1089C12.1005 19.7739 14.5706 22.0959 15.2606 21.8169C15.7306 21.5909 16.1705 21.3329 16.6005 21.0449C17.5405 20.5239 17.4806 21.1969 18.2606 21.3469C19.0306 21.4949 19.6306 20.8849 19.6806 22.1339C20.1806 21.7869 19.4405 21.3719 19.8505 20.8069C20.2805 20.2299 20.5005 21.1059 20.8705 21.2039C21.7505 21.4359 22.8906 21.2039 23.7806 21.0539C21.8906 20.5009 22.5805 17.8349 22.7405 16.4459C22.8405 15.7699 21.7905 15.0919 21.4405 14.6199C20.8405 13.8069 21.4406 12.5709 20.5406 11.9089C21.1906 12.0229 21.7905 12.3429 22.4405 12.4779C23.1505 12.6259 24.0206 11.9289 24.6506 12.2429C25.6206 12.7309 24.4105 14.1969 25.7505 14.9669C26.1405 15.1889 26.8405 14.7939 27.2405 14.7899C28.4105 14.7799 29.5306 15.1749 30.6706 15.3909C31.7806 15.6019 32.7505 15.5699 33.7405 15.0009C34.6405 14.4859 35.8506 14.5049 36.6706 13.9259C36.0206 14.1819 34.9206 14.3119 34.2906 13.9559C33.0206 13.2249 35.9605 11.4269 36.4405 11.2079C37.9905 10.5139 39.7505 10.5969 41.3205 9.96691C42.2305 9.60191 43.4505 7.51389 44.5805 8.09789C43.5905 7.45889 44.2006 3.03388 45.0206 2.20488C45.8306 1.39088 49.9606 -0.0811092 51.0306 0.813891C51.5706 1.26989 50.5105 3.0239 52.0905 3.4149C53.7205 3.8179 53.3405 3.4549 54.5005 3.7979C55.5806 4.1229 55.2405 4.9539 56.0705 5.3579C57.1605 5.8849 58.2605 5.2579 58.1205 6.9439C58.7705 6.5249 59.9005 6.62191 60.5805 6.86391C61.8805 7.30791 61.3305 8.90291 61.0705 9.82891C61.9405 9.97391 62.9206 10.2429 63.7806 9.89888C64.6306 9.55788 64.8306 8.58489 65.6806 8.24489C65.7806 8.78089 65.5306 11.1779 66.2606 11.2039C67.3306 11.2439 69.4905 12.6549 69.8205 13.6819C69.7205 13.3859 73.8905 14.0599 74.1005 14.0779C75.1205 14.1679 75.8706 13.9559 76.6806 14.7929C77.3106 15.4529 77.7505 16.4899 78.7105 16.7409C78.9205 16.6409 79.0805 16.4969 79.2105 16.3029C79.5205 15.9819 79.6705 16.4079 80.0005 16.4529C80.1906 16.5229 80.2406 16.6489 80.1506 16.8299C80.0506 17.2219 81.0106 17.0079 81.1606 17.0209C82.1906 17.1109 82.7705 16.4829 83.7205 17.2039C84.7305 17.9719 86.8105 18.1139 88.0705 18.3249C86.5305 19.6899 85.1005 21.1879 84.6005 23.2159C84.3605 24.2019 83.7705 25.1079 83.6105 26.1019C83.5105 26.7519 83.7305 27.0159 83.4705 27.8509C83.1605 28.8599 83.9305 29.7009 83.2505 30.3269C82.6705 30.8549 82.2305 31.3639 81.3705 31.2869C80.6505 31.2269 80.5905 30.1559 79.7205 30.6389C79.1005 30.9879 79.0405 32.1019 80.0805 31.9349C79.3005 32.7609 78.6005 33.7419 77.7005 34.4549C77.1505 34.8129 76.6105 35.1889 76.0905 35.5829C75.6605 35.9729 75.7005 36.7369 75.3305 37.1909C74.7105 37.9649 73.5006 38.3289 73.3106 39.4229C73.4506 39.7959 73.5505 40.1799 73.6005 40.5739C73.4505 41.2829 72.7906 41.5359 72.5206 42.1579C73.7106 42.0089 74.1505 41.6029 74.4605 40.4669C74.7705 39.3489 76.8306 39.4349 77.6706 39.6699C78.6706 39.9529 77.9905 41.5969 78.7105 42.3979C79.9805 43.7899 79.2006 44.3119 78.0606 45.2549C78.6706 46.1119 80.9405 47.6999 80.3205 48.9559C79.8905 49.7989 76.7506 50.9559 76.7606 51.0999C76.7606 52.0939 78.7306 52.9409 79.3906 53.5079C80.3506 54.3279 78.0606 55.7889 78.3906 56.8729C78.7906 58.1889 81.3106 59.6809 82.6406 59.1479C84.3106 58.4789 84.0606 59.4519 83.4306 60.5649C81.9106 63.2459 79.0006 64.5979 76.4006 66.3509C76.5706 66.5949 76.7406 66.8349 76.9106 67.0709C75.9406 67.2099 75.1305 67.7079 74.2205 68.0259C73.2505 68.3689 72.6205 67.8289 71.7005 67.9019C70.3005 68.0119 69.4406 66.8459 67.7706 66.9989C68.4406 65.2679 65.5706 66.5949 65.5406 65.5889C65.7206 65.2769 66.0106 65.1949 66.4006 65.3429C66.4006 64.7759 66.0305 64.4559 65.4605 64.4789C65.9405 65.2129 65.5605 65.3209 64.8705 65.3539C63.7805 65.4039 63.6705 65.3439 63.3705 64.0469C63.7605 66.6299 63.1006 64.9829 61.4306 64.9829C60.4606 64.9829 59.6705 64.3729 58.7305 64.3269C57.5805 64.2669 56.3106 65.5759 55.2806 66.0459C54.4806 66.4129 51.6605 67.4569 51.8405 68.5459C51.8405 68.9029 51.7106 69.2349 51.5206 69.5419C51.0706 69.9419 51.1106 70.2979 51.6306 70.6099C52.0306 71.8619 51.7705 72.4889 52.5005 73.6959C51.8106 73.8929 51.2106 73.5469 50.5306 73.5879C49.8306 73.6279 49.4705 74.1929 48.8405 74.3649C47.3205 74.7799 46.3906 73.2049 44.9306 74.2649C44.8306 74.3349 42.8105 73.3929 42.5905 73.2299C42.0205 72.8069 43.3206 72.8609 42.4106 72.2519C41.8806 71.8989 40.9305 71.7439 40.4805 72.3219C40.2705 71.0329 38.8405 71.5719 38.0705 70.9599C37.0005 70.1149 34.8106 69.5729 35.1506 71.6029C33.9506 71.4299 32.6006 71.1279 31.3906 71.3499C30.7206 71.4729 30.2705 71.6629 29.7005 71.1469C28.6805 70.2329 28.7605 70.6089 27.7305 70.5949C26.7005 70.5849 21.7605 67.3349 21.2505 68.6509C20.3105 68.2649 20.9806 67.5849 21.0406 66.9299C21.1406 66.1509 18.8405 66.5059 18.3705 65.9149C21.2305 64.8559 21.4705 60.8919 21.9905 58.3139C22.2005 57.3019 22.3805 55.7069 23.2205 54.9849C24.4505 53.9329 22.8005 53.7849 22.6905 54.9749C22.5205 52.5389 23.0106 49.5539 24.0606 47.3429C25.0706 47.9119 26.0806 48.5869 26.5106 49.7189C26.6106 50.2229 26.7006 50.7269 26.8006 51.2309C27.0306 51.8719 27.6706 51.9599 27.6606 52.7429C27.9506 51.7359 26.9305 50.9609 26.8305 50.0069C26.6905 48.5409 26.1705 47.5479 24.8705 46.8349C24.3305 46.5369 23.7206 46.1299 23.2706 45.6929C22.5306 44.9809 24.4605 45.3359 24.8505 45.6929C23.9405 45.2519 23.8906 41.3989 24.4206 40.6529C23.2306 41.4879 20.4205 39.8449 19.8705 38.7379C19.3805 37.7589 18.2706 37.2499 18.0506 36.1069C17.8506 35.0639 19.7605 33.9219 17.3605 33.8139C17.6405 33.4809 17.7006 32.8759 18.0606 32.6219C18.9806 31.9839 19.8206 33.0569 20.6806 33.1659C19.1506 32.1569 18.5505 32.4919 16.9505 32.6999C16.1505 32.8049 14.5905 31.6199 16.0705 31.4379C15.6605 31.0309 15.8305 30.7669 16.5705 30.6459C15.4405 30.3639 13.8206 31.2879 12.9006 30.2859C13.4106 30.2859 13.8905 30.1589 14.3405 29.9259C13.4405 29.3219 11.7706 29.5669 11.5306 30.7899C11.5306 29.9899 10.6106 29.2419 11.4306 28.5589C11.0806 29.4349 9.51054 29.3779 10.4905 28.2709C8.50054 30.0009 5.8206 26.0619 3.8006 28.2009C2.9906 27.0839 2.3206 26.3979 0.930603 26.1089" fill="#c0c0c0"/>
<path d="M11.541 32.4299C11.221 32.0939 10.8609 31.8049 10.4609 31.5659C10.5609 32.1319 10.931 32.5269 11.541 32.4299Z" fill="#c0c0c0"/>
<path d="M17.7415 35.6699C17.5415 35.2109 17.5414 35.0418 16.9414 35.1658C17.2014 35.3338 17.4715 35.5019 17.7415 35.6699Z" fill="#c0c0c0"/>
<path d="M23.2112 42.0059C22.9412 41.4339 22.1712 41.5579 21.7012 41.6459C22.2212 41.6659 22.7312 41.7839 23.2112 42.0059Z" fill="#c0c0c0"/>
<path d="M23.4902 44.9579C23.9802 44.2529 23.3902 43.0469 22.4902 43.5179C22.9402 43.9159 23.2702 44.3959 23.4902 44.9579Z" fill="#c0c0c0"/>
<path d="M90.1711 74.1177C90.5811 73.7027 90.661 72.8607 91.211 72.5837C92.311 72.0337 93.5611 71.8917 94.6011 71.1987C95.5311 70.5797 94.8711 68.8347 96.1411 68.9327C96.2911 71.1287 97.341 74.2937 96.821 76.4207C96.271 78.6647 95.171 80.8097 94.201 82.8997C93.821 82.3067 90.2911 81.0177 92.1811 80.2357C91.6711 80.1167 91.1911 79.9247 90.7411 79.6607C91.2311 79.3487 91.5811 78.8277 91.5311 78.2207C90.5211 78.4577 90.381 77.3337 90.961 76.7817C90.101 76.5657 89.5611 75.4397 90.7411 75.1977C90.4911 74.8657 90.3011 74.5067 90.1711 74.1177Z" fill="#c0c0c0"/>
</svg>
