<svg width="50" height="23" viewBox="0 0 50 23" fill="none" xmlns="http://www.w3.org/2000/svg">
<path d="M0.339844 2.66804C0.339844 -1.19496 8.30983 2.35405 9.82983 3.01905C11.6398 3.80905 13.0399 4.41402 15.1199 4.01102C16.0999 3.82102 16.8998 3.64804 18.0798 4.33704C18.5198 4.59404 19.9999 4.16905 20.7999 4.62705C22.6099 5.67305 24.1399 6.36402 24.9199 6.86002C25.2699 7.08002 26.0699 7.21004 27.1499 8.31504C27.8399 9.02604 26.8598 8.59105 27.7098 8.93305C29.8598 9.79805 33.0698 6.13104 34.4698 9.01304C34.9298 7.13504 36.8999 8.48504 37.2399 8.66804C37.6199 9.00604 37.9299 9.42503 38.4299 9.59803C39.2399 9.87803 40.8699 9.33803 41.2799 10.533C41.5799 11.403 40.5798 12.049 41.4498 12.805C42.7898 13.971 44.4399 13.958 45.9299 14.608C48.3199 15.653 44.7399 16.399 45.9299 17.774C46.6499 18.628 49.9799 19.985 49.7799 21.095C49.3199 23.573 46.4799 21.065 45.7299 21.335C43.7299 22.067 42.5798 19.765 40.6898 19.396C39.9398 19.248 39.2199 19.436 38.6599 19.904C38.1399 20.341 36.6798 20.839 36.9398 21.174C35.7098 21.264 34.4799 21.014 33.2499 21.094C31.9699 21.174 30.8799 21.754 29.5499 21.749C28.2599 21.749 27.7199 21.588 26.6299 21.466C26.4399 21.446 24.7699 21.526 25.0499 20.896C25.2399 20.482 25.0499 20.109 24.6399 20.215C24.5099 20.225 22.8798 18.396 21.9598 18.654C22.5898 17.228 20.3899 18.126 20.1599 19.008C19.9199 19.906 17.0199 18.905 16.2799 18.718C15.7599 18.808 15.7399 19.685 14.8499 19.205C14.4099 18.969 13.5799 18.453 13.1599 18.671C13.0599 18.523 13.2598 18.349 13.4498 17.825C14.0498 16.225 14.7399 15.291 13.6199 13.716C12.5599 12.217 12.4199 10.273 11.3799 8.75803C10.5299 7.50303 8.95993 7.63605 8.04993 6.44105C7.19993 5.32205 5.3999 5.16502 4.1499 4.98502C2.4199 4.73402 1.99986 2.90405 0.359863 2.67005" fill="#c0c0c0"/>
<path d="M0.339844 2.66804C1.97984 2.90204 2.39988 4.73204 4.12988 4.98304C5.37988 5.16304 7.17991 5.32003 8.02991 6.43903C8.93991 7.63403 10.5099 7.50105 11.3599 8.75605C11.6299 9.14005 11.8299 9.55104 12.0099 9.97504C12.0099 9.97504 12.0099 10.114 12.2599 9.86204C12.5599 9.61004 12.5098 9.63603 12.7098 9.28303C12.9098 8.93003 12.8599 8.90504 13.1399 8.70304C13.4199 8.50204 13.8498 8.42604 13.9498 8.09904C14.0498 7.77104 14.0498 6.61205 13.9498 6.18305C13.8498 5.75505 14.3499 5.22604 14.7999 4.97404C15.2599 4.72204 15.1599 4.04204 15.1399 4.02604C13.0399 4.41404 11.6398 3.80905 9.82983 3.01905C8.30983 2.35405 0.359844 -1.19496 0.339844 2.66804Z" fill="#c0c0c0"/>
<path d="M27.1499 8.31504C27.8399 9.02604 26.8598 8.59205 27.7098 8.93305C28.8898 9.40805 30.3803 8.52021 31.7303 8.09521C31.7303 8.09521 31.9703 8.40722 31.9903 8.67422C31.9903 8.94122 31.9904 9.22621 32.4204 9.38721C32.7904 9.54721 33.5603 9.93921 33.8403 10.0992C34.1303 10.2602 34.2503 11.4892 34.2503 11.6672C34.2503 11.8452 34.2503 12.5402 33.6503 12.7012C33.0803 12.8612 32.7003 13.1822 32.5303 13.2352C32.3503 13.2852 32.1203 13.3962 31.6303 12.7902C31.1503 12.1842 29.8003 11.6852 29.7103 11.6322C29.6103 11.5822 28.8903 12.1302 28.5303 12.2732C28.1803 12.4162 26.9503 11.9342 26.9103 11.7212C26.9103 11.5072 26.9104 10.9722 26.8104 10.7942C26.7104 10.6162 26.5803 10.2422 26.3703 9.99222C26.1503 9.74322 25.9603 9.1732 26.3703 8.8522C26.7603 8.5312 27.1503 8.30022 27.1403 8.31522L27.1499 8.31504Z" fill="#c0c0c0"/>
</svg>
