<svg width="46" height="25" viewBox="0 0 46 25" fill="none" xmlns="http://www.w3.org/2000/svg">
<path d="M0.289062 14.958C0.969063 14.236 1.83903 13.648 2.87903 13.878C2.54903 13.005 2.319 11.833 2.599 10.918C2.839 10.143 3.81897 9.88901 4.06897 9.10601C4.26897 8.46001 1.93899 8.22301 3.21899 7.74001C4.19899 7.37401 5.22897 9.00901 5.94897 7.80001C6.45897 6.94801 6.90899 5.79302 7.33899 5.39702C7.75899 5.00002 8.14897 5.35702 9.31897 6.26702C12.209 8.50402 15.139 7.37102 18.499 6.96102C16.639 5.47902 19.299 5.42102 20.439 5.31102C20.989 5.26102 22.429 4.76401 22.579 4.06801C22.819 2.87901 23.8091 3.82101 24.6691 4.15801C25.8391 4.61701 27.679 4.13801 28.519 3.33101C29.139 2.74401 28.9091 1.08204 29.6691 0.778035C31.1691 0.188035 32.979 1.05202 34.489 1.19802C35.139 0.160018 36.049 0.853021 36.639 1.45702C37.519 2.36302 38.389 2.71702 39.569 2.22802C41.619 1.37702 42.6291 3.83101 44.5591 4.51601C46.7091 5.27501 45.2291 6.43403 44.6791 6.93703C43.7791 7.76203 42.2791 7.01701 41.6591 7.97701C41.1791 8.71101 39.869 9.71502 39.849 10.431C39.849 11.195 38.299 13.677 37.219 15.58C36.739 16.429 35.749 17.167 35.499 18.142C35.309 18.896 35.499 19.6 33.859 20.025C33.039 20.241 32.3391 19.845 31.8091 20.622C31.2191 21.5 30.489 20.82 29.749 21.064C28.649 21.42 27.3791 21.114 26.2791 21.004C25.4991 20.924 24.259 20.476 23.609 21.094C22.859 21.802 22.639 22.401 21.519 22.453C20.489 22.503 19.3891 22.605 18.4291 23.005C17.5391 23.379 17.289 24.266 16.219 24.401C14.439 24.626 12.1391 24.185 10.6691 23.252C9.82907 22.717 9.03902 22.836 8.36902 21.924C7.53902 20.794 6.36898 20.137 5.20898 19.376C4.15898 18.678 3.32896 18.066 2.68896 16.972C2.16896 16.107 1.51906 14.734 0.289062 14.953" fill="#c0c0c0"/>
</svg>
