<svg width="84" height="90" viewBox="0 0 84 90" fill="none" xmlns="http://www.w3.org/2000/svg">
<path d="M0.689453 16.5989C1.69945 15.5239 4.3595 16.4319 4.2395 14.1949C4.2395 13.2929 3.52947 12.8969 2.95947 12.2789C2.64947 11.9599 2.28953 11.5919 2.01953 11.2369C2.86953 10.7539 3.71946 9.68788 3.19946 9.10988C4.09946 9.34988 5.08957 10.2259 6.05957 9.8889C7.27957 9.4649 7.8295 9.66988 8.9895 9.75688C9.7595 9.81688 10.6896 8.88788 11.0396 8.29588C11.3196 7.84188 11.3596 7.43891 11.0396 7.01891C11.8596 6.79691 12.4695 6.14791 12.9795 5.50591C13.8695 6.05791 13.5195 6.7789 14.0095 7.5609C14.4695 8.3069 15.1795 8.5069 15.8195 9.1259C16.0695 9.3649 16.1295 10.0789 17.0695 10.6569C17.3695 10.8429 17.2395 8.80389 17.9095 8.18089C18.6595 7.47289 18.9095 7.01291 18.9995 5.86391C19.1695 3.90491 19.8195 5.2949 20.2495 5.7589C20.9895 6.5359 21.2496 6.65189 22.1796 6.33489C23.6796 5.82089 23.6795 6.92391 24.7195 7.44991C24.8195 6.79091 25.3295 6.12491 24.4895 5.74291C23.7395 5.40091 24.7395 4.05491 25.2195 3.95891C25.6895 3.85891 26.2095 4.5649 26.6595 4.6859C27.6295 4.9529 26.7595 3.36491 26.8195 3.04491C27.0095 2.42291 27.0995 2.21789 27.1995 1.92989C27.8295 1.98989 29.4095 2.47588 29.7695 2.66188C30.7295 3.15088 31.3795 1.89289 31.9395 1.39089C32.6795 0.721886 33.8495 0.911891 34.7595 0.964891C36.2195 1.05489 37.6296 -0.0471126 39.0496 0.248887C37.4696 1.19189 40.6696 3.64889 41.5496 3.92989C44.2096 4.77389 46.0795 3.92989 48.7395 4.69389C48.6295 5.70089 47.5495 6.3909 47.0396 7.0179C47.6296 7.3549 48.2295 7.73088 48.9095 7.88188C48.3295 8.55788 47.4495 9.5329 48.6995 9.8979C47.9595 10.8609 49.1596 11.2219 49.5596 11.3019C50.5096 11.4909 50.7795 13.0569 49.3395 12.7779C50.3395 10.7009 47.6195 11.8669 47.1095 12.0579C46.8895 10.6249 45.1495 11.9299 44.6395 12.2479C44.0895 12.5969 43.5096 12.9199 42.9196 13.2139C42.5296 13.4089 39.2395 14.4729 41.2795 13.4239C40.7295 13.5369 39.9996 13.4639 39.5496 13.8569C39.2196 14.1359 39.3795 15.2869 38.7595 15.1529C38.7595 15.4859 39.9795 17.1969 40.0995 17.2299C41.9195 17.7319 40.7695 20.3849 39.6995 19.1849C37.6095 22.8709 42.2895 26.3729 44.8195 27.9839C46.0595 28.7729 48.0596 29.3279 48.9196 30.5649C50.1896 32.3659 50.8595 34.7349 51.5995 36.7899C52.5495 39.4279 56.0095 42.1269 58.4795 43.2609C60.3095 44.1009 61.2796 44.3599 63.3096 44.0879C64.0696 43.9869 67.4195 43.4939 67.0095 45.2329C66.8095 46.0629 64.4396 46.8349 65.2996 47.8499C66.2396 48.9449 68.7295 49.5679 69.9995 50.0219C72.0295 50.7469 73.8596 51.4639 75.5496 52.8179C77.2896 54.1989 79.4195 54.6089 81.1095 56.1339C82.2395 57.1589 83.7595 58.2329 83.4695 59.9409C83.3695 60.3289 83.3295 62.0749 82.7495 62.1329C81.9495 62.2129 80.9696 61.7399 80.5496 61.0499C79.6296 59.5439 79.6896 57.7999 77.4196 58.0289C75.5896 58.2129 75.2195 57.0199 74.9695 56.3369C73.0395 56.6619 72.6095 56.6429 71.3995 58.4349C70.6495 59.5459 70.0995 60.9399 69.8295 62.2549C69.5095 63.7619 71.4295 64.1289 72.4695 64.6069C74.1395 65.3739 74.4395 66.5669 74.6095 68.2549C74.8795 71.1049 69.9496 69.0559 70.4196 72.4969C70.6396 74.1799 70.1895 74.3119 69.1095 75.4549C68.1995 76.4229 67.4996 77.6169 66.4196 78.4109C65.3996 79.1579 64.5395 78.7379 64.0295 77.6489C63.2495 75.9909 65.6595 75.2219 65.7795 73.7139C65.7795 73.2019 65.5696 72.5849 65.9196 72.1279C66.5096 71.3639 67.6695 71.9349 67.9895 70.9519C68.2595 70.0959 67.1795 69.1249 66.9695 68.3429C66.6495 67.1279 66.5395 66.0599 65.8795 64.9499C65.0995 63.6199 64.9795 61.6269 63.9395 60.5029C63.3095 59.8339 62.8796 59.9929 62.2896 60.4829C61.5896 61.0679 60.8595 59.8799 60.3995 59.5099C59.8795 59.0919 59.0295 59.2019 58.8695 58.3609C58.7395 57.6679 59.1895 57.4609 58.8695 56.6089C58.0695 54.7699 55.9995 54.7269 54.4895 55.6889C55.2595 54.5099 55.0196 53.4039 53.4196 53.5649C52.2296 53.6839 51.5495 51.9249 51.1195 51.1029C50.3595 49.6419 49.4495 50.4919 48.1995 50.1239C47.5295 49.9279 46.9095 49.6139 46.1895 49.7849C44.6895 50.1419 45.6595 49.9439 44.6195 49.0989C43.5895 48.2619 42.2995 48.0319 41.2795 47.1079C40.1395 46.0829 39.4795 44.5669 38.2395 43.7019C37.1595 42.9499 36.7395 43.1409 36.0195 41.9669C35.2795 40.7409 33.3495 39.3009 31.8895 40.2089C32.7295 38.8019 29.2995 35.1699 28.0295 35.3499C28.1795 35.3299 26.1595 29.5929 26.0795 29.2199C25.3895 25.8429 23.0895 26.2199 20.6595 24.5849C18.1495 22.8939 14.9495 21.9749 12.8495 24.7039C12.0995 25.6729 11.4795 26.7909 10.3595 27.3929C9.9595 27.6069 6.34949 28.7539 6.59949 27.8279C6.77949 27.1479 9.47952 24.1529 6.25952 25.2899C4.33952 25.9699 0.719487 22.9379 3.09949 20.9699C3.95949 20.2639 3.79955 19.6799 2.78955 19.1689C1.11955 18.3259 0.639497 17.0439 0.859497 16.9559" fill="#c0c0c0"/>
<path d="M38.2405 88.7391C38.0705 88.4991 37.9005 88.2601 37.7305 88.0191C38.4905 87.9291 38.6605 88.1651 38.2405 88.7391Z" fill="#c0c0c0"/>
<path d="M12.5986 56.9869C12.3486 56.4119 11.8586 56.0469 11.5186 55.5419C10.8786 54.6109 11.3786 53.7389 11.2386 52.7389C13.1386 54.8849 15.5785 52.3179 17.0685 51.0349C17.6085 50.5699 18.3686 49.7699 19.1486 50.2639C19.6586 50.5869 20.0086 51.4479 20.7386 51.0819C20.4786 51.6409 20.7387 51.9879 21.3087 52.0189C21.0687 52.2129 20.8386 52.4059 20.5986 52.5959C22.0686 52.5359 22.6986 55.9609 22.3886 56.9869C22.1186 57.8809 20.7786 58.3599 21.6086 59.4059C22.4286 60.4439 21.7086 63.0839 21.6086 64.3359C21.6086 65.2739 21.6086 67.2159 20.7086 67.8069C19.8486 68.3529 18.4085 67.2689 17.4485 67.3549C16.9485 68.1189 17.1186 70.2349 15.6286 69.9859C14.2186 69.7489 14.1886 70.1249 13.4886 68.7229C13.2986 68.9639 13.0986 69.2039 12.9086 69.4429C12.6686 69.2399 12.4786 68.9999 12.3286 68.7229C13.5786 68.4729 12.7886 67.6889 12.7486 66.6169C12.7486 65.2979 12.8886 63.9869 12.9786 62.6749C13.2186 62.8649 13.4585 63.0579 13.6985 63.2509C13.6985 62.7969 13.8885 62.3189 13.6985 61.8679C13.5385 61.3779 12.8086 61.5559 12.7086 60.9719C12.6086 60.4469 13.2586 59.7419 13.2486 59.1389C13.2486 58.3519 12.3885 57.7259 12.5685 56.9869" fill="#c0c0c0"/>
<path d="M26.8589 37.4032C26.1489 36.9692 25.3089 37.3531 24.6289 36.8271C25.3589 36.4871 26.2089 36.5662 26.8589 36.0352C26.9589 36.4912 26.9589 36.9472 26.8589 37.4032Z" fill="#c0c0c0"/>
<path d="M44.2086 81.5389C43.3286 81.5089 42.0587 81.2349 41.5187 80.4669C40.3487 78.7999 42.7287 77.5519 43.2687 76.4989C44.3387 78.0619 45.0387 77.1689 46.2787 76.4789C48.1787 75.4239 49.5286 78.3329 51.7086 77.8719C52.9586 77.6069 54.1986 77.8219 55.4586 77.5919C56.6186 77.3829 57.6986 76.1999 58.8286 76.2089C59.8286 76.2089 60.0186 76.9549 60.9686 76.2789C61.5886 75.8429 63.2787 75.0609 64.0087 75.4839C63.0887 76.6289 62.1786 77.9919 61.5886 79.3439C61.1886 80.2859 59.9787 82.1729 60.2487 83.1949C60.4887 84.0879 62.0987 85.4239 61.5987 86.4329C61.1887 87.2859 60.0587 87.9279 60.6287 89.0199C59.4887 89.2859 58.1187 89.1689 57.0087 88.8279C55.4487 88.3479 55.5287 86.5139 54.0187 85.8949C52.4187 85.2409 50.7187 85.1529 49.1687 84.2929C47.5787 83.4139 46.1486 81.5749 44.2086 81.5319" fill="#c0c0c0"/>
</svg>
