<svg width="26" height="24" viewBox="0 0 26 24" fill="none" xmlns="http://www.w3.org/2000/svg">
<path d="M3.48926 15.1299C3.24926 15.1499 3.0193 15.1799 2.7793 15.1999C3.5393 15.5169 4.44931 16.5899 5.28931 15.7759C4.79931 15.3399 4.15926 15.0479 3.48926 15.1279" fill="#c0c0c0"/>
<path d="M3.7793 14.77C4.9793 14.315 5.71927 16.352 6.87927 15.49C5.97927 15.063 4.7493 13.681 3.7793 14.77Z" fill="#c0c0c0"/>
<path d="M9.90056 4.77008C10.5206 4.53008 10.9505 3.96108 10.4805 3.33008C9.95051 3.62808 9.63056 4.16708 9.90056 4.77008Z" fill="#c0c0c0"/>
<path d="M11.5599 2.45996C11.3099 2.60596 11.0298 2.74196 10.8398 2.96396C11.0798 2.79596 11.3199 2.62796 11.5599 2.45996Z" fill="#c0c0c0"/>
<path d="M12.8594 1.81006C13.6094 1.57706 14.3994 1.42907 15.0894 1.01807C14.3094 1.15107 13.5294 1.36606 12.8594 1.81006Z" fill="#c0c0c0"/>
<path d="M16.0195 1.17006C16.5495 1.16006 17.0495 1.03706 17.5295 0.810059C16.9895 0.810059 16.4895 0.923059 16.0195 1.17006Z" fill="#c0c0c0"/>
<path d="M0.330078 18.66C0.450078 17.325 5.17009 18.375 6.09009 18.372C5.27009 19.199 3.95007 19.819 2.82007 19.291C2.09007 18.945 0.600078 19.341 0.330078 18.66Z" fill="#c0c0c0"/>
<path d="M9.71655 5.77682C8.66655 8.69082 7.40954 11.1413 5.14954 13.3583C4.27954 14.2163 6.45948 14.9093 6.96948 15.0713C8.17948 15.4563 9.68948 14.4822 10.0895 15.3742C8.52948 15.0742 6.8695 16.5403 5.3595 15.8783C6.7095 16.7393 5.13956 16.1032 4.54956 16.4822C5.10956 16.8762 6.16952 16.6803 6.25952 17.5913C5.14952 17.9393 4.5095 16.8423 3.7395 16.2813C2.7895 16.2813 1.59953 15.9732 1.01953 16.9862C1.74953 17.9492 3.10954 17.7523 4.14954 17.6923C4.99954 17.6423 7.73946 19.0983 7.56946 17.3903C8.09946 17.7873 8.85955 17.9953 9.28955 17.2893C9.63955 18.1523 10.9395 17.8733 11.3995 17.2893C11.9495 19.3163 14.8995 19.2953 16.6395 20.0103C15.4595 21.3793 14.3095 23.3993 17.3495 23.4373C18.6595 23.4573 17.1295 21.3973 17.3495 21.0183C18.0395 19.8463 19.4395 18.6133 18.9595 17.0873C18.7195 16.3093 18.1895 15.3603 17.3495 15.0713C17.2495 13.3043 19.1595 15.1413 18.6595 13.7613C19.2495 14.0603 22.6695 14.4103 22.8895 13.4593C22.9995 13.0313 22.2695 12.4862 22.8895 12.1482C23.1695 12.0582 23.3595 11.9062 23.5995 11.7452C26.1695 9.18125 21.6795 9.20326 22.3895 8.01626C22.9195 7.12826 24.7296 8.15025 24.8096 7.31025C24.9196 6.18725 25.5595 5.35825 25.8195 4.28625C26.2195 2.63725 23.4895 0.656255 21.8895 0.860255C19.3695 1.18025 15.3202 1.69872 14.5647 5.25624C14.185 6.96119 16.0595 7.99626 16.3395 8.11726C17.1795 8.48426 16.8195 9.04226 16.3395 9.42726C15.8695 9.80426 15.4096 10.2663 14.9296 10.6363C14.2196 11.1913 13.0796 10.1013 12.3096 10.1323C12.5496 9.61926 15.4713 8.91909 14.303 6.93196C12.293 5.09546 10.0166 4.92282 9.71655 5.77682Z" fill="#c0c0c0"/>
</svg>
