<svg width="147" height="101" viewBox="0 0 147 101" fill="none" xmlns="http://www.w3.org/2000/svg">
<path d="M1.01074 73.87C2.53074 73.134 4.19074 73.7801 5.76074 73.2941C5.40074 73.2341 5.07072 73.2741 4.74072 73.4321C4.02072 73.6701 3.46072 73.136 2.74072 73.15C5.06072 72.461 1.20068 72.812 3.45068 72.358C2.66068 72.234 1.87069 72.368 1.08069 72.428C1.87069 72.271 2.68068 72.276 3.45068 71.996C2.76068 72.156 1.00074 72.657 1.01074 71.42C1.57074 71.49 2.08075 71.35 2.52075 70.987C0.590752 71.181 3.52076 69.918 4.03076 69.907C4.64076 69.897 4.97077 70.372 5.54077 70.483C6.10077 70.593 7.92073 70.024 6.62073 71.276C6.93073 70.498 10.9407 69.9761 11.7407 70.3391C10.8707 69.8661 9.83077 70.472 8.91077 70.299C8.43077 70.209 4.42071 70.042 6.48071 69.974C5.23071 69.884 3.23077 70.4691 2.16077 69.6151C2.75077 69.6451 3.25078 69.458 3.67078 69.039C3.34078 68.678 1.86078 68.468 1.92078 67.821C2.02078 66.894 4.04071 68.541 4.10071 69.111C4.37071 68.987 4.61068 68.819 4.82068 68.607C3.50068 68.617 4.52067 67.044 5.69067 68.537C5.79067 67.832 6.59068 67.357 6.70068 68.193C6.80068 68.704 8.78075 68.605 9.14075 68.609C8.55075 68.479 6.55076 67.6721 7.78076 66.9361C9.25076 66.0501 9.49069 66.936 10.5807 67.816C8.65069 64.027 15.3308 66.7141 12.6708 68.4641C13.2408 68.6051 13.7707 68.514 14.2607 68.176C13.6607 68.048 13.2207 67.537 13.8207 67.025C14.1307 66.757 15.0008 67.149 15.4108 66.955C13.7108 67.015 13.5407 66.123 12.2107 65.632C11.1607 65.243 9.99079 65.873 8.93079 65.582C9.77079 65.303 10.6608 65.4041 11.5208 65.2941C10.7308 64.8121 9.81068 65.204 9.07068 64.574C10.4507 64.269 12.0907 63.849 13.4707 64.355C14.6507 64.783 16.5907 65.407 17.7107 64.646C17.1907 64.784 16.6607 64.832 16.1307 64.791C16.3207 63.19 19.0908 63.344 20.1608 63.711C18.8108 62.327 17.0008 64.542 15.5508 63.495C16.0508 63.362 16.5608 63.219 17.0608 63.064C15.9208 63.124 14.1907 64.148 13.2507 63.064C13.7107 62.874 14.1907 62.801 14.6907 62.846C14.0707 62.716 13.5407 62.428 13.1007 61.982C13.8607 61.449 14.7807 61.255 15.6007 61.826C16.4307 62.408 17.1907 61.519 18.0707 61.695C18.8707 61.856 19.5708 61.397 19.9008 62.42C20.1708 63.279 21.8207 63.36 22.4607 63.856C21.6807 62.47 19.6007 62.485 19.2207 60.759C19.8007 60.392 20.7008 61.146 21.0308 61.537C21.8408 62.485 21.4107 62.291 22.8907 62.343C21.4407 62.202 22.3908 61.6 23.0408 61.479C22.7408 61.449 20.1507 61.371 22.2507 61.263C21.9307 61.283 20.0107 60.606 21.0707 60.366C22.2907 60.089 23.7207 60.038 24.9807 59.823C24.2307 59.923 23.4407 60.001 22.7507 59.608C23.0407 59.337 23.2907 59.036 23.5107 58.707C23.9407 58.179 24.3507 58.509 24.8907 58.298C25.7207 57.971 26.5807 58.288 25.7007 59.176C26.4307 58.84 27.2207 58.672 28.0107 58.529C27.4507 58.632 26.9007 58.609 26.3507 58.459C26.8007 58.138 27.3107 57.945 27.8607 57.883C27.3607 57.803 26.8507 57.803 26.3507 57.883C27.1207 57.362 28.2207 57.121 29.1107 56.872C30.1607 56.579 31.6207 58.371 30.1007 59.035C30.8507 58.758 31.6308 58.915 32.4008 58.89C30.4408 58.431 32.8407 57.981 33.3707 57.986C34.2607 57.996 35.2007 58.231 36.0707 58.026C35.5307 57.369 35.6707 57.081 36.5007 57.162C35.9707 56.974 35.4707 57.021 34.9907 57.306C36.1707 56.399 37.5308 55.678 39.0208 55.506C38.9208 54.859 38.5007 54.646 37.9407 54.93C38.1707 53.948 39.2307 53.987 39.9607 53.634C39.3007 53.554 37.5008 53.96 39.1708 52.986C37.6608 53.046 36.7708 54.732 35.2808 54.93C35.8208 54.93 36.3308 54.784 36.7908 54.498C37.6608 55.687 34.8408 56.569 34.1508 56.814C31.8908 57.621 31.4007 58.046 30.1007 56.153C30.7307 56.153 31.2907 55.843 31.7507 55.433C30.7107 55.683 29.6508 55.947 28.6608 56.37C29.2208 55.996 29.8808 55.498 28.5608 55.506C29.7008 55.003 31.2108 53.927 32.5208 54.426C31.9808 54.087 31.4507 54.112 30.9407 54.496C31.1707 54.286 31.4108 54.094 31.6608 53.92C30.0208 54.253 31.7608 53.329 32.1808 52.986C32.7108 52.56 32.3907 52.011 33.3207 52.336C32.6007 50.331 37.0407 50.853 36.6307 49.096C37.4307 49.335 37.9007 50.131 38.7207 50.32C38.6207 50.593 38.4907 50.857 38.3507 51.113C39.0807 50.637 39.9308 50.222 40.8008 50.104C39.3908 50.248 40.2207 49.243 40.9507 49.24C40.4607 49.055 39.9508 48.96 39.4308 48.953C39.4308 47.809 41.0308 47.789 41.8108 47.585C41.4208 47.575 41.0408 47.525 40.6608 47.441C41.9708 46.433 43.8808 46.169 45.4108 46.793C42.8608 45.536 40.9907 47.98 38.5007 47.945C39.4807 47.653 39.4608 47.462 38.4008 47.369C39.1308 46.986 39.9807 47.206 40.7007 46.793C40.1307 47.02 39.5607 47.044 38.9707 46.863C39.4607 46.665 39.9607 46.592 40.4807 46.646C38.1707 46.179 43.0607 45.971 40.4807 46.142C41.1807 46.082 41.8807 45.913 42.5007 45.566C40.7107 45.616 42.5008 44.753 43.1508 45.422C43.2708 44.499 44.3308 44.401 44.5208 45.352C43.9408 45.591 43.3407 45.639 42.7207 45.497C44.4007 46.276 46.6808 45.038 47.9008 43.913C47.3608 44.173 46.8707 44.518 46.3307 44.761C45.8307 44.982 43.7907 44.917 45.6007 44.701C44.5907 44.611 44.7207 44.201 45.2407 43.693C44.6407 43.579 44.0907 43.878 43.7307 44.34C43.2107 43.634 43.8608 42.062 44.8108 42.109C45.0208 42.286 45.2007 42.487 45.3607 42.714C45.8807 43.223 46.6208 42.784 47.1808 42.613C46.9508 42.683 45.2508 42.013 45.1808 41.904C44.2608 40.444 46.1607 40.847 46.8907 41.245C45.0107 40.5 47.3107 37.65 49.4807 39.805C49.2207 38.621 47.4307 38.117 46.4607 38.221C47.4607 38.191 49.2207 37.203 50.2107 36.843C51.1307 36.51 50.8107 37.022 51.3807 37.373C51.7407 37.597 52.3908 37.273 52.8008 37.353C51.5808 37.05 54.2508 36.556 54.8108 35.985C52.7908 36.467 50.7107 36.651 48.6907 37.136C49.2007 36.34 50.0808 36.264 50.9308 36.2C50.1408 36.071 49.3308 36.29 48.5508 36.055C49.2108 35.586 49.1008 35.022 48.4008 34.688C49.1408 34.183 49.4307 35.053 50.1307 35.047C50.3707 35.047 52.3107 34.104 52.4407 33.967C51.2707 33.618 50.1108 35.006 49.2708 33.608C49.7908 33.458 50.3207 33.434 50.8507 33.538C50.4807 33.392 50.0907 33.271 49.7007 33.178C50.7107 32.914 51.7407 33.469 52.7307 33.108C52.4307 33.138 50.2407 33.006 52.0807 32.819C50.0707 32.623 53.2907 32.552 53.5907 32.532C52.7607 32.404 52.0808 31.883 51.2808 31.668C52.0708 31.264 53.1308 30.894 54.0308 31.055C55.1908 31.263 56.0207 30.211 57.1907 30.804C56.7107 30.508 56.1807 30.364 55.6107 30.372C55.9007 29.358 59.2007 28.824 59.2007 29.58C60.0607 29.035 61.3507 29.422 62.0807 30.012C62.0807 29.209 62.2208 29.069 63.0208 29.365C62.0308 29.169 61.0508 28.788 60.0308 28.75C58.6008 28.7 57.5607 29.31 56.1107 28.72C56.7007 28.55 57.0307 27.947 57.6207 27.784C58.2907 27.599 58.5807 28.4671 59.1307 27.6391C58.6107 27.6791 58.1107 27.609 57.6207 27.423C58.3107 27.037 59.2007 26.473 60.0007 26.991C59.7107 27.135 59.4207 27.279 59.1307 27.423C59.8607 27.245 60.7107 27.125 61.4407 27.353C62.1007 27.557 62.5907 28.458 63.3807 28.145C61.7507 28.085 63.5607 26.755 64.3207 26.778C63.0407 26.633 61.8407 27.318 60.5707 26.848C63.0007 26.315 59.4307 26.828 60.8507 25.804C61.2907 25.485 62.0408 25.884 62.5208 25.844C60.6708 25.548 63.3408 25.579 64.0308 25.988C62.1808 24.127 60.3907 26.157 58.3407 26.205C58.6607 25.681 59.2307 25.337 59.8507 25.341C59.2707 25.301 58.7408 25.105 58.2708 24.765C58.7708 24.705 59.2708 24.675 59.7808 24.695C57.3308 24.595 61.7208 24.14 62.1508 24.101C62.8008 24.041 64.3507 24.457 64.6107 23.543C63.4107 22.897 62.1207 23.473 60.8607 23.326C61.3207 22.449 62.2708 22.701 63.0208 22.318C61.7808 23.939 64.3407 21.551 65.1207 22.044C66.0807 22.659 65.3608 24.671 67.0508 24.551C66.4608 24.433 66.0208 23.99 65.9008 23.399C66.2508 23.68 68.6807 24.607 66.6207 23.399C67.4707 23.872 67.6607 23.704 67.2007 22.895C67.7207 23.045 68.2508 23.069 68.7808 22.965C67.9508 22.915 67.1307 22.78 66.3307 22.533C66.7107 22.366 67.0907 22.221 67.4807 22.1C66.9407 21.97 66.3907 21.898 65.8307 21.884C66.8907 21.804 66.8907 21.565 65.8307 21.164C66.9407 21.495 67.9207 22.181 69.0707 22.388C68.1007 22.129 67.1408 21.465 66.4008 20.804C67.5908 20.724 68.7407 20.41 69.8907 20.874C70.3907 20.924 70.8907 20.954 71.3907 20.964C71.9207 21.11 71.7707 21.563 72.4507 21.596C72.0807 21.566 71.8708 21.4 71.8108 21.088C72.0108 20.597 73.1307 20.768 73.4607 20.948C71.4807 20.502 74.5407 20.497 74.9707 20.588C73.4107 20.121 72.4107 20.133 70.8307 20.327C69.8307 20.45 68.1308 20.583 67.2708 19.939C68.2908 19.751 67.8808 18.673 69.2908 18.459C70.6408 18.254 72.0507 18.399 73.3907 18.571C72.8707 18.332 72.3508 18.116 71.8108 17.924C72.5108 17.468 73.3108 17.794 74.0408 17.924C72.7808 17.743 73.3207 17.378 73.9407 17.06C71.9207 17.256 74.2007 14.95 75.8907 15.26C73.9707 13.818 78.4008 11.407 78.0508 14.684C78.2508 13.347 79.7108 13.654 80.7908 14.108C79.7708 13.634 78.5208 13.612 77.9108 12.524C78.8108 12.314 79.5807 12.584 80.3607 13.017C81.2407 13.505 83.1807 13.475 82.5907 14.54C83.1407 14.48 83.6108 13.46 82.8108 13.46C81.9508 13.46 81.1407 13.64 80.6407 12.739C81.0707 12.286 81.5708 12.166 82.1508 12.38C81.6308 12.148 81.1107 12.123 80.5707 12.31C80.4007 10.338 83.2107 10.551 84.4607 10.294C84.3407 11.364 84.5608 12.239 84.0208 13.245C84.7308 12.775 85.0307 11.438 86.1107 11.95C84.5407 11.86 85.7407 9.57704 86.0107 10.653C86.3307 9.81204 87.4408 10.129 87.5208 9.14104C89.4208 9.91604 86.8207 13.387 86.0807 14.181C86.8907 13.632 87.9107 13.492 88.3207 12.483C88.7307 11.454 90.2408 12.608 90.9108 12.67C88.5008 11.837 89.5408 9.77105 91.5608 9.35705C91.3008 9.55305 91.0607 9.76904 90.8307 10.005C91.7607 11.181 91.8707 9.42505 92.8507 10.149C91.1207 7.69205 97.4207 10.813 97.8207 10.87C97.4607 10.454 97.0007 10.214 96.4507 10.149C97.3307 10.149 97.4108 10.079 96.6708 9.91504C96.2208 9.60304 96.1808 8.55604 97.3108 9.43004C97.0108 8.61804 95.0808 8.65504 96.8108 8.20604C95.6208 8.56204 93.1908 8.33505 92.2708 7.34205C92.8008 7.15405 93.3108 7.20204 93.7908 7.48604C93.8908 7.22204 93.9307 6.95904 94.0007 6.69404C94.5507 6.97204 95.0807 7.28404 95.5907 7.63104C95.8307 5.86004 97.2307 7.65105 98.1107 6.91005C97.8907 7.85105 98.9008 7.97004 99.5508 8.06204C98.9908 8.02204 98.6308 7.68204 98.5408 7.12604C99.5308 6.96004 100.591 7.33404 101.561 7.48504C101.321 8.59004 99.7208 8.43104 98.9008 8.49304C99.9608 8.52304 101.141 8.51304 102.071 7.91804C102.191 9.81004 104.011 9.04204 105.161 8.99804C105.031 8.58504 103.961 8.71704 103.511 8.27804C104.191 7.92404 104.801 7.50905 103.411 7.34105C103.741 7.36105 106.201 7.15305 104.131 6.98105C104.961 7.15005 105.451 6.07405 106.051 5.71705C106.951 5.17505 107.981 5.43105 108.961 5.39705C107.501 4.17605 110.191 4.32604 110.761 3.95804C110.041 3.59004 109.201 3.66104 108.531 3.16604C109.331 2.50304 110.161 3.57605 110.901 2.73305C108.821 2.31805 112.021 1.95104 112.781 2.11204C112.781 2.12204 115.721 4.07504 114.291 2.22904C115.321 2.12904 116.291 3.12904 117.311 2.58904C116.691 4.15904 114.381 4.26305 113.351 5.46905C113.931 5.32605 114.271 5.60405 114.291 6.18905C113.931 6.22905 112.771 7.30104 112.851 8.06104C113.351 7.77804 114.321 8.33004 114.521 8.00104C114.731 7.64304 115.021 7.37204 115.401 7.18604C115.851 6.87104 115.181 6.65904 115.401 6.33504C116.611 4.84904 119.541 2.58604 121.371 2.08704C121.691 3.28804 121.761 4.00204 120.291 4.10304C121.681 3.86004 121.591 5.51004 121.161 6.33504C121.771 6.39504 121.841 6.08004 122.171 5.70604C122.651 5.16304 123.511 5.56404 124.111 5.54304C123.921 5.28104 123.731 5.01704 123.541 4.75104C124.051 4.65104 124.561 4.68104 125.051 4.82104C124.491 4.69904 124.121 4.24804 124.111 3.67004C124.971 3.73004 125.621 2.86504 126.491 3.23704C125.911 2.52304 124.991 2.62204 124.181 2.44604C124.731 2.35604 129.241 -0.0969553 129.591 1.58104C129.691 1.87504 131.041 1.93304 131.301 2.18704C132.041 2.89404 128.341 3.33305 128.141 3.45405C128.691 3.39405 129.201 3.51405 129.661 3.81305C128.881 4.02005 128.151 4.37804 127.351 4.53404C128.351 4.50404 129.751 3.66004 130.661 4.38904C129.931 4.88404 129.091 5.16704 128.291 5.54104C129.251 5.60104 130.231 5.22704 131.171 5.47104C130.661 5.77104 130.321 6.30305 130.521 6.91005C130.421 5.89805 131.421 5.31105 132.321 5.39805C130.461 5.41805 132.611 3.21204 133.221 2.84604C134.031 2.35804 137.061 2.81605 136.211 4.24505C136.931 4.03005 138.561 3.20604 138.811 4.46204C139.831 3.42604 142.371 4.89004 140.671 5.25404C142.231 5.13604 144.551 4.91904 145.821 6.19304C146.631 7.01904 143.981 7.29904 143.611 7.37404C141.941 7.70904 141.001 8.70704 139.131 8.44304C137.631 8.23004 134.721 7.13704 133.401 8.27804C134.331 8.33804 135.241 8.47005 136.151 8.63205C136.791 8.74605 140.071 8.84004 138.081 9.57304C138.931 9.68404 140.861 10.158 138.871 11.013C139.551 10.933 140.221 10.833 140.901 10.725C141.001 11.307 141.321 11.328 141.901 11.301C141.791 10.9 141.741 10.491 141.751 10.076C142.531 10.116 143.431 10.216 143.701 11.085C144.081 9.77504 145.911 10.248 146.251 11.268C146.951 13.355 142.671 12.008 142.251 11.517C143.021 12.983 141.331 13.448 140.271 13.628C139.721 13.718 138.131 13.776 138.051 14.405C138.051 14.841 138.301 15.341 137.131 15.978C136.581 16.28 136.071 15.988 135.591 15.699C134.611 15.099 135.891 14.49 136.281 14.109C137.321 13.107 137.791 11.693 135.861 11.189C134.381 10.802 132.871 10.585 131.441 10.023C129.801 9.38205 128.581 7.78305 126.841 8.90005C124.001 10.723 119.751 8.72605 118.721 12.275C118.491 13.093 118.311 13.894 118.221 14.745C118.221 15.28 118.681 16.193 118.221 16.653C117.651 17.159 117.041 16.902 116.421 17.208C115.791 17.515 115.461 18.185 115.061 18.712C114.101 19.949 112.341 18.514 111.201 18.212C110.421 18.009 109.641 17.851 108.871 17.62C107.921 17.336 107.881 18.111 107.171 18.428C104.991 19.412 102.681 19.217 100.381 18.264C99.4507 17.88 97.7808 16.121 96.9108 15.452C95.2908 14.212 93.9207 13.969 92.1207 14.899C92.3607 15.121 92.6007 15.337 92.8407 15.547C91.4107 16.345 89.0207 15.557 87.4407 16.267C89.5907 17.14 87.8908 18.823 86.6508 19.58C87.1708 19.697 87.6808 19.865 88.1608 20.084C85.7208 21.953 82.7707 19.739 80.2507 19.927C78.9907 20.017 78.1107 19.177 76.8307 19.667C75.9107 20.016 77.0207 21.445 76.8307 22.172C76.2907 24.7 73.0908 22.722 71.5208 23.245C68.9308 24.108 67.9708 26.74 65.5208 27.861C66.1108 28.371 67.6507 29.253 67.4607 30.212C67.3107 31.02 64.3608 32.798 63.6708 33.563C63.1908 34.096 62.8407 34.275 62.2307 34.609C61.5107 35.005 62.6207 35.829 62.2307 36.364C61.3207 37.537 58.2707 37.558 56.9707 37.509C57.1907 38.29 57.8707 43.331 56.8507 43.885C56.0407 44.32 55.7007 45.69 54.9507 46.354C53.9507 47.235 53.0008 48.213 52.1508 49.245C53.5608 49.713 56.1407 50.599 55.0107 52.642C54.2207 54.062 50.3008 53.01 48.9008 53.235C47.6108 53.443 43.8708 55.483 43.8008 57.028C43.8008 57.837 43.0207 58.469 43.0807 59.196C43.0807 59.768 44.3708 61.326 43.9008 61.65C42.8908 62.343 43.4807 64.314 44.0007 65.366C45.0207 67.459 43.8507 68.8261 44.1007 70.8951C44.2407 72.2091 45.8507 72.6441 46.8507 73.0311C47.3507 73.2211 48.1308 73.5001 48.3008 74.0701C48.4208 74.4341 47.5707 76.579 47.1407 76.577C45.8207 76.577 44.5008 76.934 45.0508 78.478C45.3808 79.4 46.2707 79.953 46.6407 80.853C47.0707 81.909 46.1307 82.4351 46.2407 83.4471C46.3407 84.3071 45.3608 85.069 44.6608 85.336C43.5108 85.78 42.4108 85.219 42.5208 86.577C42.5208 87.308 42.1208 87.789 41.7908 88.345C41.3808 89.022 42.0908 89.997 42.0208 90.754C41.9208 91.478 41.6107 94.025 40.4407 93.815C39.9107 93.715 39.5307 92.813 39.2407 92.454C38.9007 92.024 38.3307 92.102 37.8407 91.849C36.5407 91.19 35.6007 91.255 35.1407 89.721C34.9307 89.039 34.8207 88.312 34.8307 87.599C34.8307 87.157 35.3107 85.2661 35.4807 86.9751C36.2207 85.5961 34.3407 85.122 34.2007 86.558C34.1007 87.379 35.1207 88.119 34.2007 88.775C34.0107 88.539 33.8207 88.298 33.6307 88.055C33.5107 88.668 33.0908 88.8171 32.5508 88.5591C33.6008 89.5221 33.8008 90.146 33.4108 91.511C33.4108 90.061 33.3107 91.288 32.8507 91.698C32.4207 92.047 31.9007 92.233 31.4407 92.539C30.7007 93.035 31.2907 93.4791 30.1907 92.9471C29.5207 92.6281 28.9107 92.216 28.2207 91.943C30.1207 92.764 27.8107 94.109 26.7107 94.032C26.8807 94.271 27.0507 94.511 27.2207 94.752C26.6107 94.954 25.9907 95.051 25.3407 95.04C25.4707 95.303 25.5907 95.566 25.7107 95.831C24.2707 96.047 23.7607 97.533 22.6007 98.226C21.1907 99.075 19.6607 99.467 18.1307 100.013C17.4807 100.242 16.6407 100.854 15.9407 100.849C15.2407 100.849 14.6007 100.491 13.8907 100.474C12.7607 100.444 10.7407 100.882 9.94067 99.7921C10.4107 99.3581 10.9308 99.022 11.5208 98.784C8.99075 100.342 0.930747 95.284 4.39075 93.384C4.16075 93.2 3.92078 93.0321 3.67078 92.8801C5.17078 92.7801 6.28076 94.183 7.78076 94.104C7.51076 93.9 7.25072 93.684 6.99072 93.457C7.93072 92.911 9.05069 92.7911 10.0807 92.5201C8.89069 92.6201 7.68068 92.8621 6.70068 93.6001C6.84068 92.9691 6.48076 92.409 5.90076 92.16C6.41076 92.007 6.91078 91.863 7.42078 91.728C5.57078 91.358 9.04076 90.466 9.65076 90.36C9.14076 90.34 8.64077 90.41 8.16077 90.579C7.27077 90.84 6.82079 90.509 8.06079 90.36C7.55079 90.39 7.04077 90.34 6.54077 90.216C7.60077 89.534 8.56076 88.784 9.78076 88.416C9.07076 88.588 8.42074 87.903 8.01074 88.677C7.71074 89.271 6.70072 89.823 6.11072 90.073C6.11072 89.509 6.49078 89.167 7.05078 89.135C6.26078 89.105 5.39072 89.0851 4.74072 89.6391C5.31072 89.3721 5.65079 89.599 5.68079 90.215C5.14079 90.155 4.63078 90.275 4.17078 90.576C4.17078 90.023 4.17078 89.4721 4.17078 88.9191C3.83078 89.0321 3.52071 89.2 3.23071 89.423C5.12071 89.584 2.5607 91.8201 3.0907 89.7831C2.9707 91.3491 1.97073 89.863 2.00073 89.244C2.00073 88.351 2.84077 87.52 3.66077 87.263C3.56077 87.958 3.43074 88.872 2.51074 88.847C3.28074 89.329 3.57076 88.787 3.78076 88.124C4.06076 87.234 5.40072 87.98 6.11072 87.623C4.10072 87.374 7.07071 86.9671 7.48071 86.6151C6.64071 87.1091 5.52072 86.823 4.74072 86.326C5.44072 85.426 6.84079 84.079 8.06079 84.095C6.14079 83.523 9.75072 81.978 10.3607 81.576C10.6907 82.368 10.1108 83.076 9.93079 83.806C11.1508 82.449 11.5008 81.2441 13.5308 81.0721C11.9808 80.8161 10.2408 81.1221 8.80078 81.6991C8.37078 81.8711 6.95067 82.911 6.69067 83.357C4.76067 86.676 5.77072 83.152 4.24072 83.377C4.40072 82.904 4.52071 82.424 4.60071 81.937C4.39071 82.423 3.65071 83.9681 2.85071 83.6021C2.20071 83.3061 2.45076 82.101 1.65076 81.937C2.19076 81.79 2.62078 81.382 2.80078 80.857C3.52078 82.962 5.49076 80.4521 5.03076 79.0571C4.05076 79.3021 3.55071 80.496 2.48071 80.496C1.43071 80.496 1.40073 78.929 0.500732 78.625C1.37073 78.625 2.40067 79.006 2.94067 79.705C2.84067 79.056 2.65077 78.009 3.66077 78.049C2.73077 77.823 1.08071 79.229 0.850708 77.545C1.51071 78.031 1.63079 78.028 1.93079 77.257C1.16079 77.458 0.560757 76.285 2.15076 76.549C3.84076 76.828 4.91077 76.163 6.54077 76.105C7.72077 76.065 9.26071 76.852 10.3507 76.135C11.5007 75.37 13.7608 77.1511 12.1608 77.6171C12.6708 77.3251 13.2007 77.277 13.7407 77.472C12.1007 76.281 16.0307 75.472 16.7007 75.456C14.5407 75.186 15.3508 74.324 16.5508 73.224C15.5708 73.626 14.3307 74.62 15.2607 75.744C14.4807 75.684 13.7307 76.093 12.9507 75.814C13.2007 75.579 13.4707 75.3631 13.7407 75.1671C13.0207 75.6301 9.47069 75.8021 11.0807 74.4471C10.2007 74.5791 10.3507 75.326 9.8407 75.834C9.1107 76.574 8.05074 75.804 7.26074 75.681C6.35074 75.537 4.79078 76.043 3.92078 76.303C2.99078 76.579 2.27079 75.726 1.43079 75.527C2.79079 75.517 2.01079 75.008 1.43079 74.663C2.35079 74.233 3.45068 74.091 4.45068 74.159C3.47068 73.849 2.37079 74.199 1.43079 74.519C2.07079 73.675 1.91079 73.459 0.930786 73.868" fill="#c0c0c0"/>
<path d="M1.08063 76.1001C0.840634 75.8551 0.580717 75.64 0.290717 75.453C0.0307166 76.294 0.290634 76.5101 1.08063 76.1001Z" fill="#c0c0c0"/>
<path d="M1.37073 82.22C1.06073 81.978 0.740786 81.738 0.430786 81.5C0.610786 82.013 0.710703 82.541 0.720703 83.084C1.3207 83.114 1.57073 82.794 1.37073 82.22Z" fill="#c0c0c0"/>
<path d="M0.720703 80.78C0.980703 80.971 1.25074 81.164 1.51074 81.355C1.33074 81.039 1.0607 80.847 0.720703 80.78Z" fill="#c0c0c0"/>
<path d="M0.790771 80.3501C1.04077 80.3501 1.28074 80.3 1.51074 80.206C1.27074 80.256 1.03077 80.3061 0.790771 80.3501Z" fill="#c0c0c0"/>
<path d="M2.01074 69.62C2.24074 68.926 1.7007 68.94 1.2207 69.116C1.4807 69.284 1.75074 69.452 2.01074 69.62Z" fill="#c0c0c0"/>
<path d="M1.66075 90.36C1.24075 90.93 1.46068 91.475 2.09068 91.728C2.37068 91.085 2.40076 90.2051 1.80076 89.7121C1.80076 89.9281 1.70075 90.144 1.66075 90.36Z" fill="#c0c0c0"/>
<path d="M2.09075 86.4C1.03075 86.37 1.55072 87.436 1.44072 88.056C1.60072 87.447 2.06082 87.112 2.66082 87.48C2.66082 87.046 2.42075 86.686 2.09075 86.4Z" fill="#c0c0c0"/>
<path d="M2.66079 85.2401C2.30079 85.7621 2.43075 87.015 3.24075 87.041C4.33075 87.071 3.34079 85.3291 2.66079 85.2401Z" fill="#c0c0c0"/>
<path d="M3.60071 84.96C3.36071 85.01 3.12074 85.06 2.88074 85.104C3.58074 85.154 4.14067 85.934 4.69067 85.144C5.18067 84.439 3.90071 84.527 3.60071 84.957" fill="#c0c0c0"/>
<path d="M6.19067 66.9601C5.69067 66.8141 5.19079 66.791 4.68079 66.89C4.68079 68.034 5.86067 67.7221 6.19067 66.9601Z" fill="#c0c0c0"/>
<path d="M7.41077 66.09C7.17077 66.04 6.94068 65.99 6.70068 65.946C6.60068 66.425 6.59078 66.905 6.55078 67.385C7.05078 67.137 7.42077 66.673 7.41077 66.09Z" fill="#c0c0c0"/>
<path d="M8.86072 65.59C8.62072 65.54 8.38075 65.5201 8.14075 65.5201C8.38075 65.5401 8.62072 65.57 8.86072 65.59Z" fill="#c0c0c0"/>
<path d="M8.35071 65.81C8.61071 65.91 8.88075 66.0021 9.14075 66.0981C8.94075 65.8451 8.67071 65.749 8.35071 65.81Z" fill="#c0c0c0"/>
<path d="M12.3807 63.5C12.1207 63.5 11.8507 63.5 11.5907 63.5C11.9107 63.657 12.2507 63.777 12.6007 63.86C12.5007 63.74 12.4507 63.62 12.3807 63.5Z" fill="#c0c0c0"/>
<path d="M13.0308 62.57C12.7708 62.55 12.5007 62.57 12.2407 62.57C12.7907 62.99 12.8308 62.62 13.0308 62.57Z" fill="#c0c0c0"/>
<path d="M16.9208 61.7701C17.1608 61.6021 17.4008 61.4341 17.6408 61.2661C17.4708 60.9851 17.2507 60.7451 16.9907 60.5461C17.0907 61.3701 16.7908 61.514 16.1308 60.978C16.0208 61.586 16.2908 61.9181 16.9208 61.7701Z" fill="#c0c0c0"/>
<path d="M20.4507 58.68C20.1307 57.605 18.7607 57.9431 18.2207 58.6101C18.9407 58.8261 19.7307 59.127 20.4507 58.68Z" fill="#c0c0c0"/>
<path d="M19.7307 60.33C19.9907 60.28 20.2508 60.23 20.5208 60.185C20.0608 59.662 19.4507 59.634 19.0107 60.185C19.2507 60.235 19.4907 60.285 19.7307 60.33Z" fill="#c0c0c0"/>
<path d="M21.0208 59.83C21.4808 60.15 21.9808 60.247 22.5308 60.119C22.3908 59.19 21.5208 59.175 21.0208 59.83Z" fill="#c0c0c0"/>
<path d="M21.2407 57.81C22.0707 58.725 25.4707 57.9821 25.8507 56.8021C25.3407 56.3571 24.6107 56.3811 23.9907 56.5181C23.5207 56.6231 21.7608 56.921 23.5408 57.163C22.6908 57.163 21.8207 57.03 21.2407 57.81Z" fill="#c0c0c0"/>
<path d="M24.3407 55.73C23.5807 55.052 22.1607 56.001 21.3807 56.162C22.3907 56.102 23.5307 56.605 24.3407 55.73Z" fill="#c0c0c0"/>
<path d="M22.9707 58.4601C22.7307 58.4801 22.4907 58.51 22.2507 58.53C22.5207 58.688 22.8107 58.8081 23.1107 58.8891C23.1107 58.7461 23.0107 58.602 22.9707 58.458" fill="#c0c0c0"/>
<path d="M36.5807 46.44C36.3107 46.608 36.0508 46.776 35.7808 46.944C36.3208 46.817 36.8507 46.649 37.3707 46.44C37.1007 46.44 36.8407 46.44 36.5807 46.44Z" fill="#c0c0c0"/>
<path d="M36.5007 46.87C37.3507 46.621 38.0307 47.5841 38.7407 46.7251C37.9907 46.3971 37.2207 46.625 36.5007 46.87Z" fill="#c0c0c0"/>
<path d="M38.7407 49.97C38.9807 49.95 39.2106 49.92 39.4506 49.9C38.8306 49.742 38.2607 49.4061 37.8007 48.9641C37.7007 49.5871 38.1207 49.986 38.7407 49.972" fill="#c0c0c0"/>
<path d="M38.8108 48.45C38.5408 48.47 38.2807 48.5001 38.0107 48.5201C38.2407 48.7541 38.5108 48.946 38.8108 49.096C38.8108 48.881 38.8108 48.666 38.8108 48.45Z" fill="#c0c0c0"/>
<path d="M39.1007 49.03C38.8607 49.53 39.1007 49.6501 39.8207 49.3891C39.5807 49.2701 39.3407 49.151 39.1007 49.03Z" fill="#c0c0c0"/>
<path d="M41.6207 45.1401C41.0407 45.0151 40.4607 45.2521 40.1007 45.7161C40.6507 45.6561 41.1607 45.4601 41.6207 45.1401Z" fill="#c0c0c0"/>
<path d="M41.4707 41.25C41.7707 41.469 42.1107 41.541 42.4807 41.466C42.3407 40.464 41.9207 40.717 41.4707 41.25Z" fill="#c0c0c0"/>
<path d="M45.6508 39.31C46.2408 38.992 46.8608 38.775 47.5208 38.662C46.5508 38.219 45.3908 38.395 44.9308 39.455C45.1708 39.405 45.4108 39.355 45.6508 39.31Z" fill="#c0c0c0"/>
<path d="M46.2208 37.37C44.8008 36.272 45.0408 38.95 46.5108 37.729C46.4108 37.61 46.3108 37.491 46.2208 37.37Z" fill="#c0c0c0"/>
<path d="M47.8108 23.54C47.6108 23.761 47.4408 24.001 47.3008 24.26C48.2308 24.814 49.1907 23.732 48.8207 22.82C48.4307 22.985 48.0908 23.225 47.8108 23.54Z" fill="#c0c0c0"/>
<path d="M48.2407 36.93C48.0007 37.03 47.7608 37.122 47.5208 37.218C47.7708 37.158 48.0107 37.058 48.2407 36.93Z" fill="#c0c0c0"/>
<path d="M48.8207 36.5701C48.5207 36.4801 48.2608 36.5501 48.0208 36.7871C48.2808 36.7171 48.5507 36.6431 48.8207 36.5701Z" fill="#c0c0c0"/>
<path d="M49.1808 23.47C49.8408 23.609 50.3808 23.186 50.6208 22.606C49.9808 22.237 49.0608 22.666 49.1808 23.47Z" fill="#c0c0c0"/>
<path d="M50.1808 32.4C50.6908 32.36 51.1907 32.31 51.7007 32.256C51.1807 32.136 50.6708 32.186 50.1808 32.4Z" fill="#c0c0c0"/>
<path d="M51.3307 22.39C51.1607 22.63 51.0007 22.8691 50.8307 23.1101C51.9107 22.3571 53.6007 22.728 54.5007 21.671C53.8407 21.787 53.5907 21.198 52.9907 21.167C52.3907 21.137 52.0408 21.6261 51.4108 21.4551C51.8108 21.9321 51.6408 22.123 50.9008 22.031C51.0408 22.151 51.1807 22.27 51.3307 22.39Z" fill="#c0c0c0"/>
<path d="M54.7207 21.67C55.1907 21.162 54.3807 21.021 54.0707 21.022C54.2907 21.238 54.5007 21.454 54.7207 21.67Z" fill="#c0c0c0"/>
<path d="M54.3607 29.8801C54.5507 30.6711 55.1508 30.941 55.1508 29.81C54.8808 29.83 54.6207 29.8601 54.3607 29.8801Z" fill="#c0c0c0"/>
<path d="M55.1508 21.81C56.3808 22.678 59.0307 21.344 59.6207 20.154C59.0207 20.154 58.5107 20.362 58.1007 20.802C57.6807 19.253 55.7108 21.505 55.1508 21.81Z" fill="#c0c0c0"/>
<path d="M58.4607 19.29C59.4007 19.25 60.5508 19.111 61.2708 18.426C60.5408 18.239 60.6707 18.088 60.8707 17.59C61.1007 17.007 59.6607 16.44 59.3307 16.195C59.3307 16.716 59.3307 17.219 59.1107 17.707C58.3207 16.767 56.7607 18.227 55.7307 18.715C56.8407 19.653 58.3008 17.821 59.5408 18.355C59.0608 18.587 58.5608 18.732 58.0308 18.788C58.1708 18.954 58.3107 19.122 58.4607 19.29Z" fill="#c0c0c0"/>
<path d="M57.6007 19.94C58.0807 20 58.4907 19.86 58.8207 19.508C58.1707 19.247 57.4308 19.239 56.8108 19.578C57.0708 19.698 57.3307 19.818 57.6007 19.938" fill="#c0c0c0"/>
<path d="M58.7507 17.13C58.8607 16.551 58.5907 16.551 57.9607 17.13C58.2207 17.13 58.4807 17.13 58.7507 17.13Z" fill="#c0c0c0"/>
<path d="M58.1007 21.89C58.3707 21.77 58.6308 21.65 58.9008 21.53C58.5708 21.53 58.3007 21.645 58.1007 21.89Z" fill="#c0c0c0"/>
<path d="M59.0408 24.2601C59.5608 24.2601 60.0608 24.156 60.5508 23.972C60.0508 23.555 59.2808 23.5451 59.0408 24.2601Z" fill="#c0c0c0"/>
<path d="M61.4108 18.43C61.5108 18.67 61.5607 18.909 61.6307 19.15C61.1607 19.323 60.6807 19.42 60.1907 19.438C60.9407 20.255 59.6507 20.638 59.6207 21.455C60.2907 20.864 61.1307 20.524 61.9907 20.303C61.7607 20.56 61.5507 20.824 61.3407 21.095C61.7807 21.115 62.3408 21.525 62.7808 21.383C63.3208 21.206 63.5707 20.346 64.0107 20.015C63.9107 21.677 64.7107 20.248 65.0907 19.834C65.5107 19.371 66.1607 19.565 66.7007 19.543C67.6807 19.503 68.6008 18.148 67.5608 17.48C67.1208 17.193 66.1808 17.029 65.7908 17.51C65.2508 18.192 64.1108 18.721 63.2908 19.582C63.2908 19.373 65.5908 16.732 63.6508 18.142C64.3008 17.308 64.0607 16.021 62.7507 16.651C62.1207 16.953 61.8707 18.387 62.7507 18.43C62.2907 18.271 61.8307 18.271 61.3807 18.43" fill="#c0c0c0"/>
<path d="M62.7107 16.41C63.7307 16.224 65.0408 15.395 65.3008 14.321C63.9208 13.591 61.8008 15.564 61.4108 16.769C61.9208 16.927 62.3507 16.809 62.7107 16.41Z" fill="#c0c0c0"/>
<path d="M62.7107 23.32C62.4707 23.42 62.2307 23.512 61.9907 23.609C62.7307 23.726 63.4907 23.639 64.2207 23.464C63.7107 23.424 63.2107 23.374 62.7107 23.32Z" fill="#c0c0c0"/>
<path d="M65.3707 20.23C67.5307 21.743 67.0307 18.296 65.3707 20.23Z" fill="#c0c0c0"/>
<path d="M67.3907 17.13C67.6307 17.01 67.8707 16.89 68.1107 16.77C67.5707 16.494 67.0707 16.541 66.6007 16.915C66.8607 16.985 67.1207 17.058 67.3907 17.13Z" fill="#c0c0c0"/>
<path d="M69.9108 14.25C70.1708 14.23 70.4407 14.2 70.7007 14.18C69.6507 14.42 69.6507 14.66 70.7007 14.9C70.2007 15.094 69.7007 15.262 69.1907 15.404C70.0907 15.921 71.1507 15.695 72.0107 15.229C73.0307 14.677 74.3007 15.249 75.3807 14.973C74.4707 14.765 74.4207 14.538 75.2407 14.292C75.7107 13.777 75.9807 12.5701 74.7407 13.2441C76.5007 12.7411 74.6207 12.621 74.0107 12.318C72.1107 11.369 74.4408 13.8161 72.7908 12.0921C74.3508 13.4601 71.6508 12.228 70.9208 12.596C71.3708 12.999 71.9007 13.167 72.5007 13.1C71.4107 13.496 70.2307 13.296 69.1207 13.533C69.8307 13.463 69.9908 13.583 69.9108 14.252" fill="#c0c0c0"/>
<path d="M70.7007 18.14C70.6007 17.014 69.5107 17.66 69.1907 18.21C69.6907 18.15 70.1907 18.12 70.7007 18.14Z" fill="#c0c0c0"/>
<path d="M70.7808 17.21C71.2308 17.676 71.8708 17.799 72.4308 17.426C72.1008 17.014 71.0708 16.385 70.7808 17.21Z" fill="#c0c0c0"/>
<path d="M79.7808 11.3C80.2008 11.121 80.5808 10.882 80.9308 10.58C80.2408 10.235 79.5307 9.65204 78.7007 10.004C79.6907 10.299 79.4407 10.717 78.8407 11.155C78.7007 10.889 78.5608 10.625 78.4108 10.364C77.8708 10.66 76.8408 11.233 78.3108 11.227C77.7808 11.065 75.6108 11.882 77.5208 11.659C76.9308 11.679 76.4007 11.872 75.9407 12.235C76.6507 12.53 79.9407 12.654 79.7607 11.3" fill="#c0c0c0"/>
<path d="M78.8407 9.00005C79.3207 8.72405 79.8307 8.48404 80.3507 8.28004C79.8507 8.36004 79.3407 8.36004 78.8407 8.28004C78.8407 8.52104 78.8407 8.76005 78.8407 9.00005Z" fill="#c0c0c0"/>
<path d="M79.5608 9.00005C79.0808 12.038 83.8208 9.12005 84.3108 9.00005C83.6508 9.06005 83.1008 8.91005 82.6708 9.00005C82.4408 9.04005 82.1607 8.45505 81.8607 8.43005C81.0307 8.36005 80.3308 8.78504 79.5608 9.00604" fill="#c0c0c0"/>
<path d="M80.7808 7.56004C81.0308 7.73004 81.3007 7.87404 81.5807 7.99204C81.7407 7.32504 80.9508 6.64204 80.7808 7.56004Z" fill="#c0c0c0"/>
<path d="M82.2207 7.99004C82.5407 8.08004 82.8508 8.05004 83.1608 7.92004C82.8408 7.94004 82.5307 7.97004 82.2207 7.99004Z" fill="#c0c0c0"/>
<path d="M84.7407 9.00005C84.2307 9.29505 83.7707 9.65505 83.3707 10.079C84.1407 9.96805 85.1107 9.89905 85.3907 9.00005C85.1707 9.00005 84.9507 9.00005 84.7407 9.00005Z" fill="#c0c0c0"/>
<path d="M85.6107 7.92004C84.9707 7.38304 84.1707 7.25504 83.3707 7.20004C84.5607 7.82304 84.8508 9.15904 86.4008 8.28004C86.1308 8.16004 85.8707 8.04004 85.6107 7.92004Z" fill="#c0c0c0"/>
<path d="M87.9807 7.92004C88.4707 9.25404 90.1608 8.61204 90.2908 7.41604C89.4808 7.13004 88.6307 7.42604 87.9807 7.92004Z" fill="#c0c0c0"/>
<path d="M89.7808 10.37C89.9208 10.13 90.0707 9.89005 90.2207 9.64905C89.6507 9.42005 89.2107 9.64904 89.2107 10.297C89.4007 10.327 89.5908 10.347 89.7808 10.367" fill="#c0c0c0"/>
<path d="M90.2207 9.00004C90.7407 9.39404 91.4107 9.39404 91.9407 9.00004C91.4807 9.06004 90.5907 8.55604 90.2207 9.00004Z" fill="#c0c0c0"/>
<path d="M95.1808 9.00005C95.1808 8.82705 95.0808 8.83004 94.6808 8.71204C94.8408 8.81204 95.0108 8.90505 95.1808 9.00005Z" fill="#c0c0c0"/>
<path d="M104.111 3.53004C104.211 3.43004 104.301 3.33804 104.401 3.24204C103.661 3.32204 102.891 3.48104 102.171 3.17204C103.801 5.00604 98.5407 3.19204 100.941 4.32304C100.171 4.33304 99.6307 3.67905 98.9807 4.23305C98.4207 4.71205 97.0307 4.34605 96.3307 4.46805C96.8207 4.68905 97.3307 4.85705 97.8507 4.97205C97.6207 5.18005 97.3807 5.37204 97.1307 5.54804C98.0907 4.82004 99.5608 5.40204 100.651 5.29604C101.961 5.16504 103.031 4.18204 104.111 3.53004Z" fill="#c0c0c0"/>
<path d="M101.161 7.20005C101.421 7.20005 101.691 7.20005 101.951 7.20005C101.531 6.36305 99.8607 6.07805 99.0707 6.40705C99.5807 7.11505 100.371 7.11105 101.161 7.20005Z" fill="#c0c0c0"/>
<path d="M105.191 4.89005C105.191 4.77005 105.091 4.65104 105.051 4.53104C104.031 5.69304 102.431 5.12105 101.301 6.04305C102.101 6.66505 103.121 5.66604 103.101 6.97904C103.651 6.56904 106.321 5.97105 105.191 4.89005Z" fill="#c0c0c0"/>
<path d="M107.421 5.25005C108.241 4.13405 107.081 3.99205 106.211 3.94705C104.281 3.84705 106.111 5.48205 107.421 5.25005Z" fill="#c0c0c0"/>
<path d="M106.561 1.94005C106.981 2.37205 107.481 2.51604 108.071 2.37304C107.801 1.97904 107.001 1.25305 106.561 1.94005Z" fill="#c0c0c0"/>
<path d="M107.061 1.37005C107.291 1.51105 107.531 1.48705 107.781 1.30005C107.541 1.33005 107.301 1.35005 107.061 1.37005Z" fill="#c0c0c0"/>
<path d="M117.721 1.94005C117.981 1.94005 118.241 1.94005 118.511 1.94005C117.451 2.00005 117.661 1.57204 118.151 1.07604C117.581 0.907042 117.011 0.763043 116.431 0.644043C115.671 0.644043 115.081 1.18605 114.331 1.22005C114.831 1.32805 115.111 1.84805 115.471 2.14805C115.971 2.55505 117.181 2.02005 117.721 1.94005Z" fill="#c0c0c0"/>
<path d="M1.08069 79.9901C0.840688 79.8461 0.600718 79.7021 0.360718 79.5581C0.920718 79.2221 1.48078 79.4781 1.80078 79.9901C1.56078 79.9901 1.32069 79.9901 1.08069 79.9901Z" fill="#c0c0c0"/>
<path d="M1.87073 70.1301C2.13073 70.2501 2.40077 70.369 2.66077 70.489C1.87077 70.618 1.05077 70.539 0.290771 70.273C0.780771 69.897 1.31073 69.8491 1.87073 70.1301Z" fill="#c0c0c0"/>
<path d="M4.25073 81.43C3.71073 81.263 3.23079 80.999 2.81079 80.638C3.54079 80.231 4.39077 80.045 5.04077 79.486C5.17077 80.253 5.23073 81.225 4.25073 81.43Z" fill="#c0c0c0"/>
<path d="M7.78076 89.28C8.07076 87.931 8.90072 88.644 9.86072 88.416C9.14072 88.631 8.37076 88.776 7.78076 89.28Z" fill="#c0c0c0"/>
<path d="M18.0007 61.2701C18.1007 61.0541 18.1908 60.838 18.2908 60.623C18.5408 61.193 18.2907 60.9561 18.0007 61.2701Z" fill="#c0c0c0"/>
<path d="M140.901 9.72004C139.471 9.36604 140.201 11.461 141.771 10.152C141.091 10.548 140.801 10.404 140.901 9.72004Z" fill="#c0c0c0"/>
</svg>
