<svg width="68" height="49" viewBox="0 0 68 49" fill="none" xmlns="http://www.w3.org/2000/svg">
<path d="M0.890625 16.8459C0.890625 15.1289 3.40057 14.6799 2.46057 12.6789C2.13057 11.9859 1.37064 10.9529 1.66064 10.1149C1.79064 9.72688 3.13064 10.2229 3.41064 10.2219C3.27064 9.65588 3.41063 9.15188 3.77063 8.70988C3.67063 8.82888 3.62066 8.94888 3.55066 9.06988C3.11066 8.69488 2.61065 8.47887 2.04065 8.42187C2.34065 9.18587 1.16059 8.75287 1.10059 8.06187C2.76059 8.68487 5.41065 7.24887 6.92065 6.64387C8.72065 5.91687 13.1206 6.11488 14.2506 4.60988C15.6406 2.77188 18.9006 1.92488 21.0906 1.34788C23.8206 0.625884 27.5806 0.0458841 29.9006 2.01388C29.2706 1.58288 28.5306 1.14188 27.7406 1.43788C28.6906 2.33088 28.9307 4.04688 30.3107 4.44688C31.9807 4.92788 34.2107 4.20588 35.8107 3.74188C35.1107 4.16588 34.2507 4.27688 33.5607 4.74188C32.5707 5.41188 34.6707 5.02788 35.0507 4.83188C37.6207 3.51688 39.8806 4.57388 42.9406 4.53088C46.9806 4.47088 52.6707 5.47187 56.6807 4.88087C59.6807 4.44087 60.3906 5.84388 61.1406 8.58688C61.9106 11.4069 65.3806 14.7209 64.3806 17.8209C63.8806 19.3899 61.9006 18.8269 61.0706 20.0299C60.2306 21.2339 59.5106 22.1459 61.5406 22.5219C64.7906 23.1239 62.0807 26.3069 63.0507 28.0619C64.0607 29.9089 64.4206 32.1229 67.2006 33.4739C66.8006 33.6779 66.3906 33.8699 65.9806 34.0499C67.2106 35.1379 67.5306 36.3729 65.7806 37.0229C64.0106 37.6759 62.4306 39.3859 61.2206 40.7699C60.1806 41.9649 57.9506 43.5209 58.6406 45.3679C58.9306 46.1409 58.8406 46.9619 59.1306 47.7289C59.3606 48.3379 60.0507 48.1289 59.9307 48.9539C58.7307 48.1089 56.9306 48.1239 55.5706 47.6409C54.2306 47.1649 53.5806 46.1409 52.2006 45.7729C50.8506 45.4099 49.3406 45.1979 48.0106 45.7529C46.3006 46.4679 46.1006 45.8129 44.4406 45.6129C43.1606 45.4559 42.6906 45.7029 41.7606 46.4979C41.3506 46.8399 40.8306 47.2769 40.2706 47.3239C39.3206 47.4039 39.6306 46.3929 39.2606 45.9319C38.8606 45.4359 37.9407 45.0249 37.4307 44.4129C36.6107 43.4269 34.6106 45.5909 33.7206 45.7159C33.9506 44.9419 30.6406 41.4669 29.5306 41.1629C28.2906 40.8229 27.6806 40.3099 26.4706 40.6949C25.2006 41.0959 25.0806 38.9769 25.2206 38.2269C23.2006 38.8339 21.4706 37.4179 19.6106 36.9309C19.6106 37.5439 19.9306 38.0479 20.4006 38.4429C19.6206 38.9649 18.2006 40.3919 17.3206 39.1719C16.6106 38.1749 16.1807 37.5089 14.9307 37.0749C15.2607 36.7889 16.5006 36.1269 16.2306 35.5379C15.8806 34.7669 14.1406 35.0949 13.7006 35.5579C13.6006 33.5859 10.0106 34.9999 9.25061 33.8599C8.53061 32.7749 9.25061 32.9559 7.62061 32.2959C6.37061 31.7869 7.39064 33.7099 5.78064 33.3979C6.90064 30.6039 7.64061 29.7079 5.50061 28.2519C4.57061 27.6249 5.30057 26.9199 4.58057 26.2759C3.63057 25.4369 4.68058 25.0449 4.84058 24.1499C4.94058 23.5999 4.72063 22.6079 4.65063 22.0489C4.55063 21.4859 3.42063 21.6269 3.64062 20.6869C3.79063 20.0709 4.5606 19.4599 3.7406 18.9579C2.7306 18.3539 1.77064 17.6489 0.910645 16.8399" fill="#c0c0c0"/>
</svg>
