<svg width="121" height="68" viewBox="0 0 121 68" fill="none" xmlns="http://www.w3.org/2000/svg">
<path d="M97.4117 58.158C96.5217 58.622 96.0176 58.891 95.2376 57.988C95.1176 58.44 94.8683 58.6962 94.5587 58.837C94.2487 58.979 93.8677 59.009 93.4377 58.905C92.9977 58.801 92.0416 58.218 91.2276 57.442C90.6386 56.8806 89.3896 55.343 88.7316 54.722C89.1756 55.586 92.6387 59.172 92.3847 59.618C88.8747 58.615 91.0846 58.266 89.7686 56.595C89.6586 56.454 86.7786 55.191 87.2206 54.455L85.8616 55.27C86.5666 54.687 86.4907 54.253 86.3717 53.979L86.2696 53.707C86.2586 53.842 86.1266 53.7604 86.0656 53.809C85.5096 54.253 83.0637 51.678 83.2807 53.741C82.6707 52.351 82.2257 52.789 82.1257 53.231C81.3257 52.732 80.7297 52.22 80.3597 51.804L79.3616 52.403C79.3816 53.106 79.6697 54.013 80.5797 53.983C80.2497 55.272 76.7756 55.763 75.7056 56.186C75.1756 56.401 71.6656 58.707 73.2256 58.904C74.2456 59.034 75.1667 58.631 76.1467 59.21C77.1867 59.832 77.8036 60.285 79.0336 60.467C81.2636 60.795 80.9257 65.652 79.4757 65.325C81.4857 68.663 84.8947 66.439 86.7447 64.578C87.8147 63.497 89.0336 63.619 90.4136 63.423C91.4336 63.279 92.0016 62.311 92.9616 61.928C93.3516 61.771 93.0007 61.128 93.6407 60.875C94.2907 60.62 95.0466 61.055 95.5766 61.351C96.4666 61.842 96.9847 61.903 97.9547 61.793C98.8547 61.691 99.8907 61.7352 99.8907 60.57C99.8797 59.704 99.9796 59.211 100.842 59.007C100.926 58.9873 100.912 58.918 101.012 58.905C100.956 58.864 100.893 58.833 100.842 58.803C99.8936 58.065 98.5427 57.57 97.4117 58.158Z" fill="#c0c0c0"/>
<path d="M70.135 0.0375401C67.6651 0.84454 68.5117 0.69442 64.8018 0.17342C64.5018 2.86742 63.0148 2.45965 61.5748 2.10965C60.8449 1.93666 59.801 1.89368 59.0611 2.07564C58.8311 2.13364 57.8504 2.64023 57.6004 2.51723C56.0304 1.73923 54.8395 3.29735 54.1695 4.58934C53.2295 6.40734 54.6414 6.9437 54.2714 8.59771C53.9614 9.93771 51.8161 7.38091 51.3161 7.27291C50.5261 7.10091 49.5803 7.83072 48.8704 7.47672C48.3203 7.20372 47.9237 7.23163 47.4437 7.57863C45.7737 8.78363 45.8561 7.12358 44.726 6.52559C43.6561 5.95659 41.8866 6.42728 42.0766 7.88434C41.5265 7.63634 41.4996 6.80452 40.9897 6.59352C40.4596 6.36852 39.8191 6.95749 39.3591 6.62752C38.7291 6.16252 38.0609 6.20783 37.321 6.28783C36.331 6.39984 35.8543 5.73225 35.7243 6.93326C34.9343 6.73226 34.3045 5.89092 33.4144 6.18593C32.3844 6.52892 31.7926 5.78493 31.1726 5.09893C30.5825 4.44393 27.9263 4.72945 27.0963 4.52146C25.4163 4.09646 23.9807 3.43238 22.1706 3.50238C20.1406 3.58038 18.0623 3.76414 16.0223 3.77414C15.1223 3.77814 13.609 3.51954 12.9991 4.41954C12.5191 5.13354 11.8328 5.74697 11.0628 6.15197C10.2328 6.58697 8.17357 5.0616 8.07357 6.5596C7.95357 8.29859 10.4237 12.0682 12.1838 12.4702C11.7838 12.6742 11.405 12.8677 10.995 13.0477C13.095 14.9117 11.1962 15.5925 9.63619 16.5465C8.22619 17.4045 7.06355 18.7963 5.93355 19.9773C4.57355 21.4093 2.87545 22.7689 3.72555 24.8349C3.98555 25.4719 3.62507 26.6209 4.23507 27.0429C4.65507 27.3359 5.01449 27.3981 4.91439 27.9601C3.99449 27.3091 2.98457 26.9468 2.60457 27.2128C2.21457 27.4798 2.411 28.476 2.061 29.183C1.441 30.446 0.166566 31.4675 0.396566 32.9875H0.430502C1.2906 33.1835 1.42718 33.8353 2.02718 34.2783C2.55728 34.6703 2.86998 34.4256 3.41988 35.0256C4.18988 35.8766 5.69588 35.28 5.69588 36.826C7.02578 36.485 7.22514 35.1946 8.68514 36.2146C9.56514 36.8256 10.5246 36.4891 11.5046 36.6561C12.4646 36.8211 12.9882 37.1518 14.0181 37.0298C14.8382 36.9298 15.7559 36.6629 16.566 36.9279C18.286 37.4829 19.2837 39.942 21.0837 37.913C22.3138 36.536 24.1016 36.8741 25.7716 36.7241C27.1216 36.6031 27.8252 36.7133 28.2851 35.3993C28.4851 34.8303 29.1579 34.5702 29.6779 34.4482C30.2079 34.3212 31.2063 34.4356 31.5462 34.0066C31.3462 33.2176 32.0192 33.0633 32.5993 33.1913C35.5693 33.8433 36.3449 32.09 37.3549 32.41C38.6249 32.812 40.2669 35.6817 41.7369 34.9917C41.9769 36.2377 42.8417 34.6168 43.0617 35.9088C43.3817 34.4528 44.9754 35.5905 45.5754 36.2825C47.0154 37.9365 46.4196 35.5323 47.7495 37.5393C48.2696 38.3373 48.4145 39.1152 48.9045 39.8492C49.0945 40.1362 50.0273 42.8868 50.2972 42.5328C51.1972 41.3588 51.2167 43.828 50.8067 44.469C52.3866 44.682 55.686 47.7392 53.796 48.6812C54.4561 48.9552 54.7265 49.5871 55.4265 49.8021C53.8166 51.5061 50.8336 47.8239 49.7536 50.0399C49.5737 49.6119 49.4041 49.1861 49.2441 48.7491C47.3741 49.4291 47.6075 49.8168 47.8175 51.3308C48.0675 53.0568 47.0149 53.9393 46.0849 55.1013C45.245 56.1553 45.7729 57.1771 44.0129 57.4791C42.303 57.7721 44.5861 58.9686 44.8961 59.1776C46.9361 60.5476 47.3322 59.2499 49.1423 58.8039C50.5523 58.456 53.1023 56.9838 53.4222 60.0608C54.5723 59.6998 54.0346 57.762 53.0146 57.615C53.1746 57.367 53.3102 57.1347 53.4903 56.9017C52.0502 57.5607 52.7006 55.938 53.1506 55.441C53.3506 57.661 55.0878 54.5259 56.0379 54.4559C55.9129 54.9754 55.5775 55.3708 55.1887 55.7128C56.5434 54.799 58.2851 53.4944 58.0081 52.5536C57.6981 51.4906 56.0343 51.4036 55.6644 50.3457C56.6743 49.6097 58.1059 51.8986 58.2459 52.6556C59.7659 51.0616 59.3726 48.5887 61.9825 48.1377C62.5925 48.0317 63.7804 48.5778 64.1904 48.0018C64.4805 47.5918 64.5956 46.8 65.1756 46.677C64.8456 47.143 64.8137 47.6097 65.0737 48.1037C65.5438 47.8047 67.4856 48.3433 67.4856 47.4923C67.4756 46.9363 67.5216 46.4314 67.4856 45.9297C67.5636 46.5942 67.64 47.2737 68.1309 47.764C69.3309 48.946 71.139 48.2819 72.479 47.8999C70.499 49.3769 67.3557 49.6983 65.0057 48.5453C65.9257 49.8613 70.6341 49.3053 66.874 50.7873C68.1441 50.4163 69.3329 51.3333 70.3729 51.9083C71.5829 52.5773 72.4157 52.4378 73.7358 52.4178C74.9557 52.3978 76.4304 51.8028 77.5404 52.3499C78.2153 52.6854 78.4942 52.8186 78.7292 52.7915C78.7722 52.7865 78.8563 52.7049 78.8991 52.6896L80.3597 51.8064C80.2807 51.7181 80.0265 51.571 79.9862 51.5007C83.9262 52.1917 83.3131 51.6761 83.2131 50.9911C83.4521 51.1761 84.3211 52.2202 84.436 52.4518C84.566 51.3128 84.8953 51.9502 85.2854 52.0102C85.5753 52.0522 85.9643 51.9382 85.9643 51.9382C85.9913 52.2682 85.9474 52.2342 85.8625 52.6902C84.4625 51.6412 85.8055 55.92 86.7457 51.841C88.0056 52.354 86.9854 52.8829 87.0854 53.0979C87.1554 52.8238 88.414 53.7946 88.6139 54.4906C88.6539 54.2456 87.8483 51.7003 88.1384 51.5013C88.9583 50.9523 90.7868 50.6933 89.8368 49.3273C92.5468 49.6813 89.1215 52.3062 89.0214 52.7242C91.4515 52.1052 91.8429 48.7265 94.2529 48.0025C95.6928 47.5705 96.6534 47.9323 98.0234 47.1533C98.8334 46.6903 100.065 46.6169 100.605 47.5269C100.905 46.2559 102.312 45.6467 103.492 45.5567C104.492 45.4807 104.628 44.4439 105.598 44.2659C106.578 44.0889 108.651 44.5681 109.471 44.0961C110.121 43.7101 109.566 42.9156 110.116 42.4316C109.656 42.4036 108.399 41.1563 111.339 39.4423C112.329 39.1063 112.338 38.1898 113.038 37.8118C113.788 37.4068 114.476 37.8979 115.246 37.7439C116.566 37.4809 118.628 38.6193 119.458 37.2683C119.718 36.8383 120.419 34.5024 120.239 33.9054C119.859 34.0034 119.52 33.9436 119.22 33.7016C120.63 32.6736 117.895 31.7267 117.725 31.3577C117.245 30.2787 118.71 29.5052 119.56 29.7612C119.53 28.1892 118.223 29.7184 117.623 28.4704C117.173 27.5123 118.404 27.6564 118.914 27.2814C120.694 25.9654 118.448 23.8604 119.458 22.8994C118.638 22.6014 118.336 23.4842 117.216 23.2052C116.586 23.0462 115.869 22.7221 115.45 22.2201C114.589 21.203 113.39 22.0935 112.63 20.5895C111.76 21.6125 108.924 20.4282 107.874 19.8762C105.834 18.8102 106.599 19.4867 104.919 20.4537C104.509 19.2657 102.584 18.9632 101.964 17.6342C101.584 16.8172 100.718 15.6577 99.5179 15.9697C97.4179 16.5117 96.0061 17.7701 94.9661 17.7701C93.3461 17.2671 91.998 15.8018 90.618 15.9358C89.838 16.0158 88.8168 17.1327 87.6967 15.9698C85.2567 11.4688 85.8625 11.2924 85.8625 10.9084C84.5125 10.9814 83.7596 8.96754 82.4995 9.65154C81.3895 10.2535 79.0075 9.34209 78.1174 9.04009C79.1875 8.40609 76.7905 6.03707 77.0305 5.77907C77.4406 5.33907 78.4707 5.32879 79.0007 4.99778C78.3307 3.61178 77.1054 4.3437 76.0455 1.80469C75.7555 1.10369 74.4455 -0.299765 73.7356 0.106235C72.4755 0.819235 71.305 -0.0424999 70.135 0.0375401Z" fill="#c0c0c0"/>
<path d="M108.689 32.9534C108.518 32.9896 108.371 33.0802 108.248 33.2251C108.187 33.297 108.116 33.3666 108.078 33.4629C108.032 33.5661 108.022 33.6728 108.011 33.8026C107.925 33.9168 107.886 34.0866 107.875 34.2442C107.863 34.4034 107.886 34.543 107.875 34.6858C107.875 34.768 107.862 34.827 107.841 34.8896C107.819 34.9549 107.794 34.994 107.738 35.0255C107.701 35.0468 107.662 35.0585 107.603 35.0594C107.522 35.0715 107.438 35.0714 107.297 35.0255C107.228 35.199 107.226 35.4034 107.161 35.569C107.161 35.579 107.161 35.5938 107.161 35.6029C107.147 35.6334 107.112 35.6457 107.092 35.6708C107.042 35.7469 106.968 35.7952 106.854 35.8066C106.808 35.8086 106.743 35.8178 106.685 35.8066C106.474 35.8705 106.275 35.9726 106.107 36.1124C106.029 36.178 105.965 36.2739 105.903 36.3502C105.838 36.4322 105.774 36.5324 105.733 36.6219C105.651 36.8009 105.615 36.9839 105.666 37.1654C105.717 37.3469 105.846 37.5276 106.074 37.675C106.031 37.8463 105.979 38.0039 105.938 38.1845C105.938 38.1954 105.938 38.2079 105.938 38.2184C105.88 38.4778 105.863 38.7248 105.938 38.9317C105.938 38.9417 105.938 38.9563 105.938 38.9656C105.963 39.0266 105.993 39.0843 106.04 39.1355C106.075 39.1732 106.128 39.206 106.176 39.2373C106.203 39.255 106.212 39.2898 106.243 39.3052C106.254 39.3092 106.268 39.3012 106.277 39.3052C106.36 39.3425 106.467 39.3862 106.583 39.4071C106.666 39.4473 106.72 39.4886 106.787 39.543C106.798 39.548 106.814 39.538 106.821 39.543C107.27 39.9267 107.377 40.6057 107.738 41.0716C107.738 41.2365 107.69 41.3894 107.636 41.5471C107.481 42.0298 107.164 42.4682 107.262 42.9738C107.286 43.0057 107.303 43.061 107.296 43.1097C107.285 43.1587 107.254 43.1861 107.227 43.2456C107.078 43.6005 106.674 44.1044 107.431 43.9929C107.806 44.126 108.161 44.1177 108.484 44.0948C108.804 44.0684 109.086 44.0202 109.333 44.0609C109.413 44.0111 109.483 43.9438 109.537 43.891C109.591 43.8382 109.639 43.8112 109.673 43.7551C109.809 43.5251 109.794 43.2676 109.877 42.9739C109.916 42.8318 109.977 42.6917 110.081 42.5322C110.16 42.464 110.19 42.4154 110.183 42.3624C110.183 42.3163 110.156 42.2995 110.116 42.2605C109.947 42.0989 109.483 41.9862 109.335 41.785C109.293 41.7383 109.265 41.707 109.267 41.6491C109.267 41.5915 109.305 41.5177 109.369 41.4453C109.442 41.1856 109.502 41.0058 109.573 40.8338C109.643 40.6614 109.713 40.5429 109.81 40.4262C109.989 40.2112 110.237 40.0494 110.66 39.8488C111.331 39.6298 111.777 39.0494 112.324 38.49C112.541 38.234 112.627 38.114 112.732 37.9804C112.759 37.9455 112.772 37.9083 112.799 37.8786C112.81 37.8677 112.823 37.8549 112.833 37.8447C112.854 37.824 112.878 37.7957 112.9 37.7768C112.946 37.7385 113.008 37.7089 113.07 37.6749C112.899 37.3918 112.557 37.247 112.39 36.9616C112.223 36.6754 112.036 36.6254 111.745 36.2143C111.613 36.0286 111.571 35.8371 111.371 35.6368C111.184 35.449 111.089 35.3304 111.032 35.1952C111.021 35.1972 111.009 35.1932 110.998 35.1952C110.913 35.2115 110.834 35.2113 110.76 35.1952C110.677 35.1773 110.593 35.1437 110.522 35.0934C110.449 35.0415 110.381 34.967 110.318 34.8895C110.25 34.8046 110.207 34.7223 110.148 34.6178C110.046 34.4386 109.957 34.2666 109.877 34.0743C109.877 34.0634 109.877 34.051 109.877 34.0404C109.793 33.8393 109.712 33.6409 109.639 33.4969C109.589 33.3831 109.504 33.303 109.435 33.2251C109.227 32.9915 108.944 32.8991 108.688 32.9534H108.689Z" fill="#c0c0c0"/>
<path d="M115.993 29.8619C115.571 29.9218 115.556 31.2409 114.973 30.5074C114.493 29.865 113.469 29.7255 113.037 30.4395C112.413 30.3929 111.754 30.3181 111.441 30.983C110.596 31.1425 110.469 32.0579 111.101 32.5795C111.541 33.0783 110.941 33.5991 111.577 33.9722C111.785 34.4291 111.249 34.7171 111.169 35.1611C111.119 35.1833 111.08 35.1838 111.033 35.195C111.091 35.3303 111.185 35.4488 111.373 35.6366C111.572 35.8369 111.615 36.0285 111.746 36.2141C112.037 36.6252 112.224 36.6753 112.392 36.9614C112.559 37.2468 112.9 37.3917 113.071 37.6748C113.163 37.6246 113.252 37.5903 113.411 37.5389C114.133 37.1223 114.852 37.8957 115.619 37.5728C116.033 37.418 116.368 37.7214 116.74 37.6747C117.382 37.5149 118.438 38.1497 118.744 37.301C119.546 36.9563 119.406 36.1414 119.831 35.8403C119.949 35.0941 119.924 34.6001 119.797 34.0739C119.371 34.1578 118.906 33.7679 119.559 33.3266C119.79 32.7603 119.57 32.7801 119.084 32.2736C118.488 32.1845 117.816 31.5629 117.419 31.0507C117.013 30.5449 116.08 30.7055 116.196 29.9297C116.117 29.8783 116.053 29.8533 115.993 29.8619Z" fill="#c0c0c0"/>
</svg>
