<svg width="582" height="382" viewBox="0 0 582 382" fill="none" xmlns="http://www.w3.org/2000/svg">

<path d="M5.85013 127.21C5.40613 127.56 4.90213 127.752 4.33813 127.786C4.89113 126.884 3.32114 125.938 3.22614 126.96C3.11514 128.15 1.22111 128.602 0.162109 128.722C1.73511 126.968 3.82511 126.055 5.99411 125.266C4.12211 125.845 5.98412 125.796 6.40112 125.581C7.09612 125.224 7.55811 124.865 8.36011 124.686C10.2691 124.26 11.1551 123.373 12.8801 122.605C16.5151 120.989 19.9941 119.903 23.9221 119.217C22.0551 119.621 25.7191 119.349 26.2261 119.217C25.1531 119.888 24.6991 120.158 24.4261 121.449C25.3641 121.673 27.6311 118.43 28.0261 120.944C28.2961 120.844 28.5361 120.706 28.7461 120.512C26.2451 118.481 39.2591 114.622 40.0161 114.389C41.7721 113.85 43.4741 113.156 45.2231 112.607C46.0681 112.342 46.5631 112.637 47.3901 112.697C48.4271 112.767 48.9201 111.774 49.5461 111.161C50.8131 109.922 52.9771 109.368 54.5511 108.659C56.5701 107.749 58.6461 106.789 60.8591 106.472C59.6821 107.959 62.3161 107.044 62.7311 106.617C62.2311 106.957 61.6791 107.101 61.0751 107.049C61.9231 106.666 62.0451 105.64 62.6591 105.033C63.3621 104.338 64.3121 103.983 65.0771 103.371C66.2251 102.453 68.6211 100.375 70.1461 101.648C69.7821 101.139 69.1901 100.969 68.6341 101.289C68.7561 99.3382 72.1711 98.3962 73.6321 97.9172C76.6401 96.9302 78.8981 95.0142 81.7381 93.7292C80.1621 94.1722 78.8801 95.2572 77.3421 95.7852C76.0781 96.2182 74.7491 96.4412 73.4761 96.8562C72.1561 97.2872 68.7491 98.8282 67.4821 97.6892C68.0081 97.3652 68.1281 96.9602 67.9711 96.3822C67.8591 95.9712 69.1781 95.4202 69.4621 95.2652C70.0461 94.9462 72.0951 94.1002 71.5871 95.6012C71.9801 95.5712 72.2191 95.3542 72.3071 94.9542C71.6921 94.8172 71.0401 94.2972 71.1551 93.5862C70.8181 94.3252 70.0271 94.7912 69.3281 95.1272C68.7891 95.3862 65.9071 96.7392 67.6271 95.2422C66.5821 96.1062 64.6661 96.8722 64.0451 98.0372C63.6101 98.8522 62.4291 100.1 61.3371 99.6562C60.3081 99.2392 62.8221 96.3372 61.0751 96.3222C61.3381 96.1522 61.6021 95.9842 61.8671 95.8182C60.7961 95.3622 59.7171 96.5322 58.7711 96.8262C58.9401 96.5392 59.1081 96.2512 59.2751 95.9632C58.6931 96.1812 58.2471 95.8582 58.0511 95.3152C58.3101 95.1832 58.5731 95.0642 58.8431 94.9562C57.1811 93.9112 52.8811 96.3842 51.0361 96.5722C49.7291 96.7062 48.7021 97.6492 47.4211 97.9622C46.9461 98.0622 46.4781 98.1872 46.0161 98.3372C45.3921 98.5632 44.9111 97.7722 44.2261 97.9802C45.3421 97.0222 47.4721 97.6782 48.3151 96.3662C49.4871 94.5442 49.9451 94.8852 51.8581 94.0922C51.1111 93.9922 50.3451 93.9672 49.6261 94.2362C50.3141 91.9512 53.1101 92.1072 54.7551 90.9992C55.3961 90.5672 55.8101 88.6892 56.3041 87.9822C57.0321 86.9402 57.9661 86.0362 59.0581 85.3812C58.5351 85.3812 58.0551 85.5242 57.6191 85.8132C59.7021 83.3142 62.9181 82.6812 65.7551 81.4212C65.0211 81.5522 64.1091 82.3142 64.3871 81.2052C63.8941 81.9822 56.6931 84.7932 56.8301 85.1352C57.9051 87.8212 44.8961 88.6282 43.5071 88.3322C43.6681 87.4412 44.5191 87.3622 45.1631 86.9652C44.0891 86.6522 44.3711 84.7632 45.2331 84.3732C43.5791 85.3732 42.6011 83.7632 44.7291 83.0782C44.2251 82.9182 43.7211 82.9182 43.2171 83.0782C44.1481 81.7612 46.0911 81.8342 47.4211 81.1622C47.8461 80.9482 48.4031 80.7122 48.7321 80.3512C49.3691 79.6512 49.9961 80.1242 50.7771 79.8352C49.5721 81.0482 51.0891 80.2862 51.6921 81.0162C52.0901 81.4972 49.2821 82.3732 48.9051 82.4992C50.7241 82.2412 52.2721 81.1012 54.0891 80.8442C53.9181 81.4352 53.5231 81.9502 53.0091 82.2842C53.9041 82.4682 55.6271 82.0602 56.2851 81.3872C56.9321 80.7252 56.0911 80.2322 55.4571 80.3402C56.1801 80.0732 56.9651 80.1042 57.6881 79.8352C56.7241 79.8152 56.7241 79.6192 57.6881 79.2602C55.9721 79.2702 54.4881 80.4372 52.7371 80.1342C51.5381 79.9262 49.8431 79.0672 48.6881 79.8362C48.9421 78.7342 51.1731 78.3902 52.0721 78.3242C51.5071 78.1002 51.0031 78.1972 50.5601 78.6122C50.6201 78.0402 51.0051 77.5912 51.5681 77.4612C51.1101 77.6772 50.6301 77.8212 50.1281 77.8932C50.3961 76.9682 51.6821 76.7432 52.3601 76.2372C50.6511 76.4512 49.5781 78.8072 47.7521 78.4692C47.6441 77.5942 48.8271 77.4052 48.1911 76.6582C47.6571 76.0312 50.0381 75.4112 50.3431 75.2282C49.9241 74.8242 49.4441 74.7282 48.9031 74.9402C49.3021 73.3062 51.0841 73.9262 52.2871 73.7162C50.6501 73.7962 52.5361 72.5102 53.5241 72.5752C54.9801 72.6752 56.8561 70.5522 58.2481 69.9482C60.1631 69.1162 62.0881 68.2912 64.0461 67.5692C64.6281 67.3552 65.3861 67.0172 66.0261 67.1522C66.9961 67.3572 66.2981 68.1502 65.7511 68.3162C66.3041 68.1932 66.8321 68.0012 67.3351 67.7402C65.3331 67.3942 70.3591 65.6722 71.0071 65.4362C69.9291 65.7312 68.9171 66.2192 67.8391 66.5162C69.0381 64.7942 72.5451 62.6952 74.6791 63.4202C73.4871 62.0922 77.5701 61.6022 78.2141 61.5592C78.8331 61.5192 79.5471 61.6962 80.0721 62.0292C81.0721 62.6642 77.8391 63.3962 77.4871 63.6352C79.9731 62.5762 82.7791 63.2272 85.2531 62.1012C87.6441 61.0132 90.1251 60.0172 92.6791 59.3872C92.4081 59.6192 92.1441 59.8592 91.8871 60.1072C95.6581 60.2402 99.2301 59.7532 102.55 57.8762C103.865 57.1332 104.812 56.0972 105.926 55.1052C106.617 54.4892 108.261 51.6172 105.926 52.6212C106.573 52.3212 115.436 50.8952 113.27 48.8772C113.652 48.7732 114.036 48.6772 114.422 48.5892C113.087 48.6892 111.92 49.3082 110.678 49.7402C109.429 50.1752 108.065 49.5322 106.862 50.1732C108.894 49.7682 106.093 50.5432 105.916 50.5872C105.013 50.8082 104.093 50.9512 103.182 51.1342C101.281 51.5162 99.7271 52.6932 97.8621 53.1262C98.8111 52.0632 99.1131 50.4532 97.1421 51.1822C97.4081 51.3952 97.6721 51.6112 97.9341 51.8292C97.1011 52.1642 96.7471 52.8982 96.1581 52.1762C95.8171 51.7582 95.3061 51.5272 94.7961 51.3962C93.6381 51.1012 92.3931 51.2132 91.2201 51.3462C88.4781 51.6492 86.4711 52.3812 83.7141 51.8772C83.2841 51.7972 79.3381 51.1832 80.2721 50.2492C80.7341 49.7872 82.2381 49.6412 81.9681 48.8122C81.5111 47.4102 82.7531 46.2142 84.0391 46.0012C83.5081 46.2142 83.0041 46.4792 82.5271 46.7942C83.3771 47.5962 84.5371 47.0422 85.3641 46.5452C86.2601 46.0072 87.2491 46.2562 88.2151 46.3612C87.0131 44.8002 84.2331 45.1692 82.5161 45.0112C81.9351 44.9612 81.1441 44.0222 80.9071 43.5482C80.4811 42.6992 83.1191 42.3962 83.6071 42.3282C82.8571 42.6212 82.0811 42.8442 81.3031 43.0492C83.1471 43.4642 84.7981 42.2742 86.4981 41.8082C88.0111 41.3942 89.6981 41.7482 91.0531 40.8032C94.0111 38.7282 97.9581 40.1142 101.176 39.4492C100.905 39.2912 100.641 39.1232 100.384 38.9452C101.847 37.2842 104.645 37.4532 106.645 37.2872C109.849 37.0222 112.882 35.5492 116.152 36.0652C115.341 35.9532 114.098 37.0052 113.472 37.4212C112.229 38.2462 110.999 38.6202 109.6 39.0882C110.298 38.9032 110.225 39.1682 110.451 39.6302C110.699 40.1342 111.717 39.9542 112.126 39.9202C112.995 39.8502 113.876 39.8602 114.747 39.8602C115.312 39.8602 117.796 39.4882 115.936 40.5282C117.853 39.5072 120.089 40.8132 122.056 40.0242C122.918 40.0242 125.274 37.5902 127.024 38.8732C126.778 39.1332 126.514 39.3732 126.232 39.5932C127.038 39.3112 127.935 39.0852 128.32 38.2252C127.031 37.1432 125.207 37.5282 123.784 38.0802C124.5 37.5132 126.16 37.1252 126.057 35.9932C125.967 35.0432 124.802 35.2352 125.468 34.3092C126.684 32.6182 128.766 34.4372 127.148 35.3242C123.827 37.1452 129.835 36.8592 129.803 36.8272C131.306 38.3302 135.222 38.0352 136.096 35.8482C135.563 35.9182 135.035 36.0122 134.512 36.1362C133.767 36.0962 133.185 35.5272 132.414 35.6662C131.217 35.8832 129.901 36.9452 128.642 36.4592C126.558 35.6542 131.434 33.2962 132.425 33.3992C132.025 31.8142 129.617 33.5362 129.617 32.5352C129.168 32.9462 128.64 33.1382 128.033 33.1112C128.7 32.5702 129.512 32.2772 130.265 31.8872C129.392 31.7972 128.618 32.5172 127.86 32.8202C126.821 33.2362 124.744 32.8302 123.696 32.5952C121.323 32.0642 123.33 31.3352 124.133 30.1892C125.188 28.6792 124.386 26.1162 122.521 25.3092C121.914 25.0462 120.849 25.1912 120.663 24.3762C120.383 23.1472 119.684 23.1862 118.602 23.1032C121.183 22.8532 123.415 21.6192 125.648 20.3992C128.182 19.0152 130.252 19.3852 133.082 19.1812C139.268 18.7342 144.6 17.3042 150.426 15.1832C149.93 15.4402 149.426 15.6802 148.914 15.9032C151.778 15.3562 154.319 13.0272 157.183 12.1602C160.641 11.1142 163.939 9.12622 167.561 8.70322C166.945 9.01822 166.923 9.57122 166.193 9.71222C168.733 9.26322 171.34 9.14822 173.825 8.41522C176.107 7.74222 178.456 6.68822 180.881 6.76022C180.243 7.29522 179.419 7.64122 178.577 7.62422C181.014 7.25822 178.134 8.29022 177.64 8.48722C178.451 8.20922 178.547 8.44722 177.928 9.20822C178.731 8.65322 179.544 8.11222 180.419 7.67422C181.495 7.13622 182.774 7.56522 183.904 7.26422C183.158 7.26422 182.404 7.22422 181.672 7.40822C181.964 6.56522 181.25 6.34122 180.592 6.61622C182.938 5.64922 185.484 5.39322 187.936 4.81622C187.436 5.08322 186.907 5.27522 186.352 5.39222C189.647 6.20422 194.318 5.15922 197.562 4.39722C201.519 3.46922 205.317 1.95722 209.248 0.928223C208.669 1.09122 208.142 1.35522 207.664 1.72022C208.073 1.87122 211.342 2.19522 210.586 3.04522C209.506 4.26122 206.931 4.39322 205.432 4.38422C205.682 4.96722 205.225 5.38422 204.712 5.53522C206.228 5.11622 207.761 4.75522 209.248 4.23922C210.153 3.92622 211.044 3.57222 211.955 3.27622C212.396 3.13322 215.006 2.06422 213.064 3.44722C213.411 3.21022 214.607 2.83422 214.816 3.44722C215.147 4.41322 213.039 4.61022 212.487 4.67422C213.943 6.05222 216.304 4.94422 217.964 4.67422C220.3 4.29322 223.145 4.25022 225.447 4.82022C224.68 5.69322 223.419 5.90622 222.423 6.40422C222.875 6.63622 223.355 6.75722 223.863 6.76422C222.833 6.88322 221.786 6.74422 220.767 6.98022C222.299 7.17722 223.84 6.98022 225.375 6.98022C224.847 7.17222 224.319 7.36422 223.791 7.55622C225.108 8.22122 226.562 8.13822 227.972 7.89622C228.826 7.75022 229.675 7.56122 230.539 7.47522C231.011 7.42522 233.114 6.96522 231.711 7.84322C233.989 7.84322 236.336 7.17222 238.629 7.45522C239.342 7.54522 240.415 7.75922 240.988 8.22822C241.88 8.95722 243.13 8.37122 244.04 8.90722C246.285 10.2322 248.667 9.47222 251.142 9.78522C251.893 9.87522 253.634 9.42522 253.902 10.3202C254.022 10.7192 256.208 10.3902 254.966 11.0112C256.327 10.9812 257.689 11.0512 259.05 11.0012C259.73 10.9812 260.405 10.9112 261.076 10.8032C262.16 10.3472 262.38 10.4172 261.734 11.0132C263.145 9.41722 267.024 10.0782 268.779 10.5742C269.97 10.9102 270.293 12.1242 271.497 12.3902C272.418 12.5932 272.378 12.7052 272.877 13.3562C273.47 14.1302 274.395 13.1032 275.126 13.6052L189.372 84.7412C190.217 84.9622 190.951 85.2532 191.809 84.8642C192.689 84.4652 193.333 85.2402 194.163 85.3352C195.168 85.4512 196.413 84.6712 197.386 84.4442C198.539 84.1752 199.731 84.1102 200.891 84.3842C200.078 85.0042 198.912 85.3612 198.35 86.2702C197.772 87.2042 199.216 87.4162 199.109 88.4452C198.966 89.8172 199.781 91.0552 200.24 92.3152C200.68 93.5242 199.434 94.6922 198.875 95.6162C201.363 94.7472 204.001 94.3162 206.412 93.2252C207.469 92.7472 208.466 92.1342 209.324 91.3482C209.682 91.2422 210.048 91.1872 210.422 91.1842C210.936 90.9472 210.949 90.3982 211.404 90.1442C212.186 89.7072 213.136 89.8282 213.986 89.6742C214.919 89.5052 217.166 88.3942 218.021 88.7932C220.94 90.1552 216.331 91.5292 217.677 92.8722C218.042 93.2362 218.945 93.5922 218.606 94.2672C218.299 94.8802 217.847 96.0512 218.45 96.5672C220.252 98.1102 219.137 99.0012 218.817 100.792C218.525 102.43 218.013 104.036 217.849 105.695C217.743 106.754 217.859 108.312 217.143 109.183C216.677 109.746 215.73 110.531 216.966 110.951C215.723 111.494 215.623 113.142 215.364 114.263C216.645 114.069 218.775 115.567 219.739 116.341C220.743 117.149 220.526 118.563 222.204 118.367C221.712 119.628 220.549 120.045 219.499 120.72C218.124 121.603 217.836 123.2 216.748 124.285C214.547 126.478 210.794 128.177 208.236 129.24C208.599 128.72 208.983 128.217 209.388 127.728C208.758 128.353 208.038 128.944 207.157 129.167C207.648 126.77 211.831 125.66 213.781 124.703C213.24 124.879 208.652 127.1 208.957 125.783C209.164 124.883 212.172 124.806 212.773 124.846C212.271 124.786 211.767 124.756 211.261 124.776C212.128 123.643 214.097 122.231 214.21 120.705C214.339 118.956 215.117 119.187 216.374 118.225C214.722 118.767 213.125 119.76 211.334 119.737C211.785 119.554 212.241 119.386 212.702 119.233C212.23 119.397 208.751 119.897 208.851 120.446C209.005 121.293 208.476 121.102 207.939 121.603C207.102 122.386 207.119 121.563 206.42 122.497C205.985 123.079 204.624 123.061 205.129 122.268C205.737 121.311 206.791 120.794 207.734 120.241C208.744 119.65 209.659 118.998 210.446 118.124C211.212 117.274 212.588 117.739 213.566 117.577C212.745 117.347 211.764 117.527 211.622 116.425C211.562 117.118 210.26 118.41 209.524 117.901C208.465 117.17 210.299 115.628 210.83 115.201C210.73 115.713 210.91 116.106 211.477 116.138C211.147 115.533 211.195 114.957 211.622 114.409C211.362 114.301 211.099 114.205 210.83 114.121C211.692 113.803 212.085 112.851 212.99 112.609C212.312 112.86 211.652 113.084 211.23 112.31C210.668 111.279 212.088 111.409 212.342 110.594C211.611 111.125 210.636 110.564 210.758 109.656C209.841 110.674 208.709 109.566 210.049 108.832C211 108.314 212.199 108.624 213.207 108.288C212.46 108.338 211.721 108.594 210.975 108.358C212.184 107.946 211.317 106.507 212.919 106.414C212.08 106.61 211.795 105.726 212.588 105.409C213.192 105.168 213.975 106.188 214.287 106.559C214.588 105.722 213.39 105.381 213.647 104.665C214.13 103.317 215.861 103.795 216.807 104.111C215.477 103.254 214.229 103.77 213.063 104.615C212.529 103.726 214.578 102.278 215.367 101.951C214.847 102.084 213.177 103.446 212.962 102.814C212.744 102.172 213.413 101.532 213.835 101.162C214.985 100.15 216.604 99.1682 218.103 98.7832C216.661 98.6542 215.163 99.7092 214.154 100.626C212.761 101.892 212.297 100.105 210.903 99.9362C211.515 99.4142 211.5 98.6672 211.711 97.9622C211.901 97.3282 212.761 97.0512 213.135 96.5522C211.526 97.9032 213.296 94.5762 213.591 94.1822C214.362 93.1502 215.259 92.0662 216.303 91.2962C215.709 91.6122 215.235 92.1232 214.61 92.3872C213.571 92.8252 214.32 93.0932 213.568 93.9592C213.269 92.4602 212.26 94.5822 211.821 95.2732C211.251 96.1722 210.067 97.3242 209.767 98.3222C209.407 99.5232 208.491 100.834 207.183 101.094C205.999 101.329 206.698 99.9262 207.016 99.5032C206.347 100.271 204.856 99.8162 203.993 99.8632C205.416 98.1232 206.41 96.3142 208.673 95.9032C208.136 95.5342 207.515 95.6442 207.089 96.1192C208.249 94.1972 205.437 96.8252 205.062 96.9282C203.848 97.2592 204.583 95.4072 204.209 94.8962C203.985 95.9832 202.942 95.5222 202.697 94.7512C202.28 95.7792 200.82 95.8922 199.961 96.3352C201.003 95.9302 201.917 96.2132 202.985 96.1912C202.735 96.7562 202.339 98.3422 203.561 97.1992C203.139 97.6312 202.635 97.9192 202.049 98.0632C202.73 98.0332 203.725 97.4242 203.921 98.4952C203.192 98.5652 203.353 98.8392 203.288 99.3642C203.188 100.177 201.634 100.405 201.041 100.511C202.113 99.2342 200.38 99.7082 199.889 100.007C201.645 99.8362 199.753 100.255 199.373 100.236C198.688 100.196 198.587 101.226 197.729 101.232C198.596 100.105 193.837 98.9102 196.073 97.8472C194.988 98.1672 194.924 96.9922 195.11 96.2592C195.402 95.1072 194.906 94.3122 193.626 94.1042C193.994 93.8272 194.402 93.6352 194.85 93.5282C193.682 93.3952 191.605 93.7352 191.682 91.9442C190.828 92.6002 190.373 91.3382 189.738 91.0072C190.48 90.2042 191.669 90.1222 192.451 89.3712C193.145 88.7042 193.513 87.8502 194.46 87.4642C196.809 86.5092 193.6 89.9222 193.554 90.0712C194.384 89.0302 195.89 87.5952 197.298 88.5592C196.612 88.1412 195.943 86.7262 194.993 86.9972C193.753 87.3512 192.618 88.1582 191.332 88.5212C188.349 89.3662 185.716 89.5772 182.897 88.0552C183.631 87.5282 184.812 87.3452 184.914 86.2542C183.777 86.1542 183.089 87.3592 181.797 87.1212C180.094 86.8072 178.399 86.4562 176.695 86.1472C173.668 85.5992 170.525 87.9692 167.561 86.7572C169.446 86.5732 165.931 84.5502 165.185 84.6692C166.536 82.9122 168.94 82.7072 170.585 81.3572C168.462 81.6862 166.815 82.8932 164.881 83.6782C164.372 83.8852 163.437 84.3712 162.86 84.1672C162.182 83.9272 161.768 83.1002 160.936 83.3732C161.809 82.6342 162.922 82.2272 163.96 81.7892C163.569 81.8592 160.356 82.4362 162.376 81.5732C161.606 81.7092 160.842 81.8702 160.072 82.0052C160.727 81.5112 161.542 81.3782 162.304 81.1422C161.046 81.0622 159.817 81.7062 158.56 81.4302C159.645 80.7322 161.446 80.2122 162.736 80.4212C161.912 79.8722 160.647 80.9292 159.878 80.3052C158.94 79.5452 163.109 78.3432 163.96 78.4782C162.956 77.5312 161.143 78.3882 160.141 78.8902C158.839 79.5392 157.138 79.4122 155.68 79.9172C155.894 79.6762 156.111 79.4362 156.328 79.1972C155.802 79.3622 155.298 79.5782 154.816 79.8442C155.403 79.0222 156.369 78.6272 157.048 77.9012C155.803 78.5382 154.757 80.1072 153.304 80.2772C153.545 80.0382 153.784 79.7982 154.024 79.5572C153.405 79.6172 152.855 79.9812 152.512 80.4932C151.185 79.2172 156.261 77.4742 156.904 76.9662C155.639 77.3442 154.447 77.9512 153.294 78.5812C152.244 79.1542 151.047 78.1122 150.065 79.1252C150.855 79.0132 151.575 78.6422 152.369 78.5502C150.716 79.9692 148.825 79.8182 147.041 80.6382C149.01 80.4772 146.027 81.2532 145.601 81.5742C146.419 81.5142 147.088 80.9852 147.905 80.9262C147.692 81.1682 147.476 81.4082 147.257 81.6472C147.784 81.5152 148.288 81.3232 148.769 81.0712C147.835 82.9112 145.368 82.5762 143.729 83.2312C145.332 82.9662 146.662 82.7592 148.193 82.3672C148.851 84.1262 143.758 84.3952 143.009 85.3192C143.517 85.3192 143.997 85.1912 144.449 84.9592C144.135 85.2512 142.921 86.3022 144.449 85.3922C143.579 86.0942 142.302 86.6282 141.23 86.9132C140.621 87.0752 140.113 87.1582 139.528 87.4222C138.458 87.9062 137.593 87.2452 136.528 87.1922C136.848 86.9922 137.184 86.8242 137.536 86.6882C136.422 86.7182 135.52 87.3572 134.656 87.9842C135.174 87.4402 135.635 86.8472 136.096 86.2552C135.148 86.3352 131.845 88.0832 131.776 89.1362C131.617 88.5382 131.925 88.0372 132.496 87.8392C132.002 88.0302 131.374 87.8392 130.912 88.1272C130.359 88.4622 130.314 89.2762 129.76 89.6402C129.886 88.2242 128.74 89.1832 128.152 89.5802C127.063 90.3052 125.391 90.8392 124.144 91.2282C125.006 90.4552 126.099 89.9912 127.096 89.4272C125.714 89.8162 124.616 90.8032 123.28 91.3002C123.505 91.0432 123.721 90.7792 123.928 90.5072C122.718 90.3702 121.796 91.7052 120.699 92.0032C119.015 92.4622 118.877 92.8742 117.161 92.4512C117.836 93.6742 116.798 93.0972 116.197 92.9572C115.394 92.7702 114.446 93.3432 113.695 93.5482C113.109 93.7072 112.435 93.1532 112.697 92.5242C112.84 92.1812 113.656 92.0472 113.939 91.9602C116.83 91.0672 119.72 89.8162 122.633 88.9962C121.134 88.6082 119.246 90.6982 117.902 89.5432C116.746 88.5502 123.066 85.9082 124.033 85.4662C125.275 84.8982 126.507 84.2782 127.601 83.4522C128.298 82.9272 128.644 81.5692 129.516 81.3082C132.429 80.4342 135.448 79.6492 138.401 78.8432C138.361 80.1272 139.569 79.7822 140.387 79.5572C141.797 79.1682 143.817 79.7442 145.169 80.2112C144.127 78.9972 140.103 78.6062 143.294 76.9972C145.131 76.0712 147.254 75.6842 149.273 75.3882C147.356 74.5382 145.381 76.0832 143.665 76.7112C143.053 76.9352 139.83 77.9702 140.561 76.2512C139.678 77.1392 138.207 77.3492 137.023 77.4572C135.613 77.5852 134.559 78.6352 133.215 78.9382C131.776 79.2622 130.484 79.2202 129.207 80.0792C128.292 80.6942 127.515 81.1432 126.444 81.4042C124.281 81.9322 122.937 82.3202 121.268 83.7182C120.366 84.4742 119.06 84.7452 117.965 85.0892C116.819 85.4482 116.181 84.2382 115.217 84.6742C116.699 84.4212 116.419 86.3892 115.453 86.8762C113.631 87.7932 111.761 87.6462 109.889 88.2752C111.453 88.1682 110.305 89.2822 109.689 89.4502C108.899 89.6662 107.954 89.4202 107.225 89.8592C109.319 88.5822 106.766 89.6872 106.391 89.8592C105.607 90.2282 104.361 90.2502 103.694 90.6782C103.377 90.8822 103.346 91.2962 102.997 91.4772C102.372 91.8012 101.02 91.9322 100.313 92.0142C102.209 92.0242 99.7511 92.5182 99.3031 92.6952C98.3541 93.0682 97.2161 93.5842 96.7131 94.5342C97.7911 94.4442 99.2811 94.0802 100.262 94.7042C101.991 95.8032 98.5981 97.0482 97.9781 97.2602C96.5051 97.7642 94.8411 97.7782 93.5401 98.6282C92.8581 99.0732 92.1561 98.9672 91.5251 99.5422C90.6011 100.385 89.3791 100.109 88.4331 100.87C88.9121 100.637 89.4151 100.493 89.9451 100.438C89.1671 100.871 86.8341 103.124 86.9931 101.518C86.2761 102.514 84.1361 102.536 82.9911 102.706C81.7671 102.888 80.9891 103.419 79.8701 103.949C78.6201 104.542 77.2681 104.475 76.0581 104.949C74.5781 105.526 73.2431 106.629 71.6701 106.624C70.7941 106.624 70.4551 107.562 69.7551 107.282C68.8171 106.907 66.6611 108.324 65.7531 108.575C67.3291 108.355 65.8031 109.441 65.2831 109.818C64.4871 110.392 63.3241 110.379 62.4831 110.964C61.7861 111.449 60.8551 111.482 60.0431 111.573C58.8021 111.714 58.2591 112.386 57.1981 112.747C56.6941 112.919 56.6711 112.062 56.2051 112.249C55.6751 112.461 54.2791 112.82 54.1041 113.459C53.8891 114.249 53.0021 114.3 52.3491 114.123C51.1421 113.795 50.5161 114.123 49.3361 114.478C51.2891 114.677 48.3811 115.254 47.8241 115.261C46.1651 115.281 44.4751 116.088 43.0721 116.926C43.8281 116.836 44.5121 116.237 45.3041 116.567C44.6601 117.055 44.3651 117.256 45.3741 117.359C44.6821 117.774 43.8581 117.734 43.1421 118.079C42.5371 118.37 42.1361 119.174 41.4141 119.231C41.6611 118.409 42.4441 117.954 43.2141 117.719C42.2711 117.169 41.2141 118.535 40.5701 119.012C39.7121 119.648 38.3051 119.875 37.2681 119.957C35.8921 120.065 34.7201 119.957 33.4401 120.675C32.2541 121.336 31.2661 122.76 29.7501 122.687C30.6061 122.272 31.3751 121.693 32.0541 121.031C31.2091 120.141 29.2181 121.111 28.3791 121.554C27.7751 121.871 27.3531 121.91 26.6741 121.946C25.8541 121.986 24.7701 122.936 24.0621 123.335C24.9721 121.852 23.6051 122.993 23.2491 123.255C22.7001 123.661 22.1201 123.622 21.5321 123.355C21.2451 123.224 19.8941 123.849 19.6741 123.914C18.7441 124.187 17.6511 124.025 16.7901 124.341C17.9211 123.237 18.9691 122.889 20.5341 122.974C18.8781 120.843 15.9171 123.679 14.4071 124.606C13.7541 125.007 12.9991 125.024 12.3261 125.35C11.7251 125.641 11.4151 126.286 10.8141 126.574C10.2081 126.862 10.4121 125.629 9.73712 126.594C9.34812 127.15 8.45412 127.225 7.86212 127.006C8.79612 126.704 8.66311 125.813 8.94211 125.063C7.42211 124.779 7.40512 127.617 5.84412 127.22M70.8611 102.596C68.6421 103.523 71.9031 104.413 72.5171 105.116C72.2711 105.355 72.0081 105.571 71.7251 105.764C72.1861 105.544 73.2071 105.42 73.2731 104.756C73.3331 104.106 74.7891 104.137 75.1091 103.532C73.6661 102.863 72.5071 102.105 70.8611 102.596ZM89.0051 92.3002C90.8171 92.8462 92.4681 91.6262 94.2411 91.5582C95.6151 91.5082 97.5221 92.0402 98.7251 91.1482C97.7251 91.4232 97.7581 91.3222 98.8281 90.8422C99.6211 90.4552 100.459 90.1792 101.308 89.9482C102.737 89.5602 104.192 89.2682 105.565 88.6992C103.896 88.6392 102.01 88.5692 100.36 88.8452C98.9881 89.0742 97.7281 89.6582 96.3351 89.8222C93.6961 90.1342 90.8321 90.0122 89.0051 92.3002Z" fill="#c0c0c0"/>

<path d="M163.17 268.18C163.812 266.224 161.093 264.545 161.586 262.348C162.145 259.858 164.275 257.614 164.39 255.078C164.43 254.094 162.767 251.922 163.119 251.217C164.108 249.24 165.224 247.47 167.346 246.58C166.372 247.064 166.294 246.97 167.111 246.296C167.669 245.735 168.335 245.091 168.498 244.276C168.769 242.925 170.422 242.024 171.015 240.775C171.474 239.806 171.015 238.403 171.628 237.671C172.636 236.453 172.02 236.104 172.256 234.728C172.423 233.754 173.173 232.99 173.733 232.222C174.424 231.275 174.246 230.409 174.675 229.431C175.16 228.327 176.059 227.367 176.893 226.517C177.238 226.165 179.159 224.15 178.65 225.34C178.892 224.776 179.267 224.814 179.76 224.679C180.09 224.589 180.834 223.228 179.442 224.404C180.198 223.412 181.115 221.795 182.538 221.74C180.961 222.13 182.458 220.813 182.846 220.28C183.416 219.498 184.036 218.756 184.649 218.008C185.574 216.878 186.161 215.473 187.266 214.49C188.877 213.057 190.412 210.628 191.588 208.77C192.02 208.089 192.874 206.369 193.914 206.548C193.537 205.426 194.843 203.937 195.515 203.191C196.379 202.232 196.661 200.71 198.106 200.634C199.19 200.574 201.335 201.523 202.193 200.788C201.621 201.037 200.864 200.378 200.402 200.142C199.514 199.688 199.037 199.952 198.136 200.092C196.777 200.305 198.371 197.797 198.593 197.402C198.398 197.915 198.182 198.42 197.945 198.915C199.168 198.653 199.667 195.873 201.113 196.539C200.653 196.146 200.125 196.002 199.529 196.106C199.763 194.452 201.173 194.473 202.481 194.09C201.883 194.13 201.338 193.822 200.969 193.37C200.755 193.593 200.563 193.832 200.393 194.09C201.127 191.742 202.87 189.35 202.704 186.832C202.624 185.632 204.071 181.84 205.281 182.156C207.211 182.66 208.583 183.753 210.623 184.103C211.852 184.314 214.998 184.003 215.009 185.233C215.151 184.671 215.597 184.266 216.161 184.153C215.834 184.709 216.071 185.423 215.891 186.016C215.681 186.73 214.012 187.54 213.424 187.969C215.04 186.309 212.782 187.869 212.465 188.088C211.459 188.77 210.556 189.587 209.609 190.345C210.317 190.967 211.123 190.405 211.769 190.057C211.277 190.19 210.797 190.358 210.33 190.561C210.33 189.472 211.63 188.832 212.482 188.499C213.945 187.93 214.917 186.974 216.233 186.169C216.651 187.297 213.823 188.058 213.425 189.265C214.837 188.494 213.425 191.219 212.201 191.353C212.417 191.113 212.633 190.874 212.848 190.633C211.911 190.747 211.401 191.659 210.832 192.289C210.782 191.683 211.127 191.16 211.624 190.849C210.544 191.216 209.827 192.323 208.672 192.505C209.646 192.276 209.646 192.445 208.672 193.009C209.423 192.396 209.615 192.516 209.248 193.369C209.527 192.579 210.207 192.184 210.987 192.609C211.48 192.878 212.492 191.89 212.841 191.656C214.13 190.79 215.93 190.268 216.125 188.329C216.267 186.913 219.23 186.071 218.91 184.996C218.641 184.093 219.643 183.355 219.329 182.352C219.093 181.598 218.136 182.555 218.681 181.273C220.367 182.14 220.627 180.054 221.489 179.184C220.391 179.345 221.098 177.727 221.569 177.209L406.721 177.092L407.072 173.77C407.132 173.173 408.729 173.39 408.968 174.676C409.282 176.366 406.752 179.139 408.878 179.443C409.555 179.543 412.676 179.704 412.577 180.66C412.472 181.68 415.767 180.293 416.363 180.055C417.672 179.534 419.21 180.694 420.446 180.971C420.079 181.555 420.376 181.953 421.009 181.993C420.73 182.298 420.834 183.544 421.367 183.328C421.642 183.217 421.764 182.575 422.103 182.57C422.927 182.56 423.283 183.072 423.895 183.517C424.39 183.877 424.68 183.89 424.875 183.955C424.815 184.357 424.855 184.84 425.448 184.844C427.443 184.854 429.182 183.524 431.09 183.504C430.325 184.896 432.8 184.612 433.478 184.559C434.118 184.509 434.838 184.479 435.449 184.804C436.925 185.579 437.373 185.402 438.482 185.273C434.316 186.569 429.957 188.013 426.092 190.077C424.485 190.935 423.034 192.052 421.442 192.936C419.665 193.924 417.632 194.509 416.042 195.816C417.447 197.956 423.874 194.444 425.69 194.304C425.476 195.298 424.39 196.474 423.53 196.968C424.011 197.109 424.891 196.478 425.198 196.733C425.74 197.184 425.599 197.302 426.459 197.302C427.953 197.302 429.451 196.361 430.777 195.783C432.347 195.098 434.019 195.522 435.514 194.796C437.486 193.838 439.438 193.097 441.314 191.928C441.006 192.647 441.542 193.138 441.674 193.8C441.813 194.496 441.029 195.047 440.882 195.672C441.241 195.37 444.293 193.387 442.466 195.096C444.357 193.638 445.838 194.909 446.8 196.662C447.703 198.309 448.717 197.666 450.239 198.23C452.347 199.011 454.342 197.061 456.302 196.57C457.475 196.277 458.66 196.53 459.85 196.442C461.345 196.329 462.801 195.951 464.283 195.744C463.816 196.522 463.325 197.29 463.131 198.192C464.541 198.52 465.827 198.38 467.147 198.192C468.337 198.028 467.983 200.352 467.019 200.563C467.949 200.623 468.056 201.678 468.603 202.217C467.23 203.514 464.953 201.472 463.371 202.39C463.311 202.42 462.336 203.506 462.371 203.504C461.435 203.564 461.416 202.222 460.575 201.894C458.094 200.925 456.583 202.732 454.156 202.606C451.585 202.472 450.501 204.847 448.228 205.458C448.61 204.586 449.482 204.117 450.1 203.442C448.56 203.693 447.904 204.65 446.5 205.026C446.6 204.47 446.811 203.965 447.148 203.513C444.652 204.438 442.537 207.565 440.481 209.207C439.957 209.625 439.758 210.304 439.228 210.713C438.639 211.168 437.811 211.128 437.2 211.589C436.269 212.291 434.964 213.451 434.764 214.673C436.542 214.319 438.299 211.319 440.274 212.107C440.992 212.394 438.59 214.582 438.335 214.879C437.493 215.858 437.061 217.181 436.128 218.069C434.232 219.875 433.441 222.06 431.647 223.971C430.736 224.941 429.939 226.2 429.581 227.49C429.248 228.691 429.481 229.936 428.65 230.975C427.292 232.672 426.55 236.509 427.213 238.621C427.765 240.378 430.32 239.309 431.411 238.826C433.926 237.715 435.851 235.814 437.613 233.745C438.565 232.628 439.43 231.46 440.056 230.125C440.589 228.989 440.594 226.297 441.748 225.69C439.884 224.571 441.468 222.496 442.328 221.289C442.883 220.511 442.752 219.697 443.142 218.882C443.549 218.032 444.88 217.384 445.516 216.664C446.237 215.847 446.493 215.048 446.928 214.076C447.319 213.205 448.133 213.135 448.802 212.597C449.641 211.923 449.703 211.501 450.817 211.259C452.13 210.974 452.768 209.601 453.987 209.128C453.216 210.104 452.975 211.437 452.043 212.296C452.599 212.03 453.055 211.647 453.411 211.144C453.311 211.748 452.954 212.287 452.475 212.657C453.987 212.023 454.621 210.527 455.305 209.158C456.153 207.46 458.004 208.125 459.388 207.329C457.068 206.948 460.466 204.304 461.487 204.117C462.106 204.004 463.494 204.853 464.068 205.169C465.425 205.917 466.545 206.853 467.99 207.465C469.188 207.973 469.727 209.622 468.613 210.162C467.542 210.681 467.915 212.297 467.715 213.235C467.469 214.381 466.547 216.318 465.361 216.699C464.06 217.118 463.706 218.463 462.495 219.014C461.349 219.535 459.86 220.137 459.619 221.576C459.307 223.435 461.798 221.971 462.311 221.817C463.372 221.499 467.276 217.32 468.495 219.078C469.443 220.445 468.067 223.827 467.917 225.253C467.722 227.111 466.625 231.475 464.141 231.665C464.99 230.794 463.798 230.312 463.2 231.06C462.692 231.696 462.466 232.563 461.837 233.106C461.168 233.683 460.344 234.015 459.669 234.577C458.946 235.177 458.539 236.004 457.791 236.597C457.241 237.034 454.604 238.666 456.098 239.202C456.633 239.394 457.212 239.503 457.734 239.729C457.966 239.885 458.154 240.083 458.297 240.322C458.652 240.6 459.431 240.322 459.894 240.593C459.147 240.752 458.358 240.739 457.662 241.097C458.4 241.524 459.132 240.912 459.894 241.027C460.4 241.107 460.892 241.358 461.405 241.374C463.072 241.424 464.626 240.673 466.342 240.724C468.001 240.774 469.509 239.302 470.922 238.619C472.563 237.825 474.43 237.391 476.167 236.852C479.781 235.73 483.448 234.414 486.683 232.419C488.052 231.575 489.565 230.79 490.866 229.856C491.622 229.313 492.824 228.653 491.373 228.61C490.147 227.769 491.373 226.574 491.615 225.573C492.184 224.84 494.412 224.77 495.588 224.612C496.857 224.442 498.271 224.445 499.533 224.662C500.539 224.835 501.312 225.971 502.334 225.713C503.63 225.386 504.792 225.587 506.102 225.434C507.541 225.267 508.746 224.34 510.06 223.815C511.06 223.416 512.254 223.442 512.614 222.206C512.983 220.939 513.803 220.068 514.828 219.284C514.244 219.543 513.286 219.773 514.038 218.708C513.207 219.283 513.061 218.84 513.458 218.319C513.867 217.783 514.569 216.92 515.164 216.659C519.123 214.715 523.018 211.873 527.581 210.752L549.992 210.812C550.448 210.157 550.869 208.974 551.588 208.568C552.391 208.116 553.393 208.362 554.287 207.835C554.409 208.074 554.529 208.314 554.647 208.555C555.538 208.174 555.2 207.293 556.224 207.411C555.762 207.237 558.518 204.768 559.242 204.427C560.113 204.018 560.837 203.148 561.267 201.857C561.532 201.061 562.697 199.902 563.765 199.2C564.839 198.495 564.897 197.244 565.668 196.314C566.739 195.023 568.308 194.104 569.599 193.049C570.696 192.153 574.644 187.74 574.279 191.249C574.084 193.126 578.362 191.159 578.918 191.005C582.233 190.109 581.756 194.306 581.043 196.093C580.402 197.692 579.647 199.336 579.068 200.957C578.767 201.801 577.254 204.071 577.828 204.96C578.436 205.902 579.69 205.124 579.079 206.53C578.646 207.525 577.945 208.547 578.698 209.564C579.298 208.957 579.912 209.212 580.103 209.995C580.329 210.918 579.387 211.182 579.268 212.011C580.255 211.344 580.224 212.111 579.804 212.604C579.353 213.139 578.524 213.308 577.877 213.436C577.089 213.591 576.426 213.708 575.733 214.162C575.235 214.488 573.428 215.82 574.088 214.172C573.427 214.39 572.96 215.18 572.218 215.18C571.661 215.18 571.785 216.233 571.138 216.405C571.138 215.958 571.148 214.785 570.369 214.968C569.486 215.176 568.964 216.511 568.827 215.109C568.807 215.756 568.593 215.679 568.128 215.651C567.578 215.621 567.621 216.992 567.607 217.269C566.456 216.526 566.592 215.588 566.817 214.388C566.542 215.222 565.57 215.333 565.017 215.9C564.385 216.547 564.091 217.452 563.497 218.132C562.108 219.724 560.839 218.911 559.547 220.653C559.385 220.186 559.264 220.084 559.467 219.573C559.23 219.792 558.989 220.008 558.747 220.22C559.213 218.375 557.848 220.392 557.747 220.868C557.797 220.073 557.901 219.273 558.537 218.708C558.099 218.91 557.762 219.222 557.527 219.644C558.273 219.463 557.267 221.506 556.877 221.804C556.837 221.491 556.797 221.179 556.737 220.868C556.38 221.163 555.206 222.195 556.517 220.723C555.303 222.374 556.006 220.899 556.227 220.435C555.441 220.944 553.811 221.446 553.735 222.549C553.715 222.867 552.117 224.269 551.769 224.478C550.4 225.303 545.464 229.505 547.666 231.163C546.972 231.572 544.204 232.613 544.323 233.681C544.383 234.186 545.544 234.367 545.82 234.818C546.517 235.956 545.462 237.347 546.717 238.482C547.776 239.439 549.868 238.502 550.106 237.139C549.226 237.139 549.961 236.268 549.106 235.7C550.633 235.63 550.398 237.871 549.901 238.725C549.317 239.732 545.517 240.372 544.416 240.236C544.638 239.721 544.881 239.217 545.146 238.723C543.639 239.504 542.042 240.624 540.386 240.74C540.701 239.985 540.885 239.135 541.546 238.58C540.833 238.937 540.035 239.894 539.886 238.58C538.568 240.215 538.494 241.713 536.116 242.089C535.648 242.159 531.755 242.783 531.825 241.892C531.785 242.837 530.359 242.841 529.712 242.833C528.301 242.813 527.565 242.833 526.215 243.375C523.519 244.452 520.891 245.348 518.575 247.076C519.706 245.668 520.762 244.312 520.515 242.395C519.58 243.979 520.213 246.98 517.788 247.708C515.893 248.277 515.748 249.743 517.778 249.956C517.416 251.831 516.168 253.477 515.188 255.068C515.428 254.588 515.668 254.108 515.908 253.628C514.316 253.588 513.903 257.992 512.098 257.836C511.521 257.786 510.068 260.156 509.691 260.565C508.843 261.482 507.68 262.698 506.338 262.772C506.514 262.316 507.678 261.178 507.003 260.717C505.878 259.949 505.117 259.903 504.323 258.603C502.896 256.269 506.617 255.509 507.779 254.492C506.013 255.237 502.936 256.367 503.821 258.873C504.333 260.323 503.791 261.772 504.41 263.297C504.904 264.52 504.636 265.421 503.818 265.868C504.897 266.089 504.387 267.106 503.958 267.668C504.708 266.024 503.787 267.517 503.649 267.874C503.429 268.446 502.574 268.85 502.14 269.243C500.968 270.306 500.172 271.468 499.207 272.708C498.343 273.819 497.137 274.644 496.301 275.738C495.807 276.384 495.255 278.136 494.237 278.109C493.885 276.494 495.363 274.802 496.333 273.704C496.82 273.153 498.089 271.321 498.707 271.197C498.117 270.963 497.563 271.035 497.047 271.413C497.239 270.717 499.094 269.323 497.257 269.325C497.608 268.865 497.874 268.361 498.057 267.812C497.328 269.009 496.889 267.236 496.687 268.892C496.555 268.503 495.476 267.807 495.592 267.41C495.798 266.702 496.858 266.337 496.258 265.509C496.766 265.509 497.246 265.637 497.697 265.869C497.556 265.269 496.846 264.021 496.037 264.501C496.385 263.487 496.941 264.164 497.599 263.76C498.706 263.079 496.964 262.621 496.327 263.133C496.684 261.95 498.301 262.384 498.557 261.045C498.326 261.249 498.086 261.441 497.837 261.621C497.227 259.66 500.108 259.121 501.437 258.957C501.19 258.773 500.95 258.582 500.717 258.381C501.273 258.115 501.729 257.731 502.087 257.229C501.594 257.536 501.091 257.824 500.577 258.093C500.807 257.84 501.024 257.575 501.227 257.301C500.477 257.211 500.117 257.641 499.754 258.211C499.503 258.606 498.089 259.8 498.987 258.311C498.583 258.607 498.296 258.991 498.127 259.463C497.843 258.093 496.52 259.682 496.617 260.327C496.351 260.213 496.088 260.093 495.827 259.967C495.929 260.514 496.166 260.993 496.537 261.407C495.63 261.497 495.74 261.643 496.327 262.199C494.273 260.928 494.834 267.332 494.307 267.959C493.237 267.241 493.044 266.178 493.447 265.007C493.109 265.965 492.857 266.814 493.569 267.682C494.123 268.357 494.861 269.368 493.947 270.12C493.665 269.001 491.054 268.984 491.497 267.672C491.123 267.602 491.029 267.842 491.217 268.392C490.713 268.112 490.313 267.647 490.134 267.096C488.959 268.145 488.404 266.795 489.416 265.844C490.189 265.118 491.97 264.401 491.356 263.065C491.406 264.437 487.374 266.963 488.239 267.731C488.763 268.197 489.624 267.592 490.044 268.313C490.752 269.526 490.97 269.187 492.259 269.526C492.786 269.665 493.145 270.807 493.606 271.189C494.377 271.825 494.258 272.175 493.566 272.944C491.73 274.975 490.589 271.874 489.92 270.409C489.85 271.754 490.925 273.779 492.084 274.438C493.509 275.248 493.198 276.461 491.429 276.169C491.534 276.43 491.631 276.694 491.719 276.961C490.613 277.607 490.061 276.065 489.488 275.449C490.25 276.816 493.133 278.86 490.496 279.768C489.603 277.185 487.92 277.389 485.6 276.529C485.844 277.017 487.408 277.13 488.005 277.556C488.828 278.144 490.539 279.593 489.56 280.704C490.013 280.219 490.593 280.266 491 280.774C490.884 279.613 492.087 279.998 492.754 280.189C493.595 280.431 493.402 281.1 493.4 281.909C493.4 282.981 493.295 284.023 493.201 285.09C493.081 286.46 493.877 287.935 493.449 289.27C493.379 288.11 493.331 286.907 493.003 285.784C492.685 284.695 493.55 283.568 492.729 282.574C492.679 282.96 492.506 283.737 492.079 283.006C492.059 284.416 493.001 285.878 492.3 287.254C492.37 286.69 492.23 286.186 491.869 285.742C491.58 286.518 491.009 286.609 490.496 285.958C490.637 286.212 490.757 286.477 490.856 286.75C490.293 287.107 489.789 287.035 489.344 286.534C490.062 287.998 488.609 286.871 488.119 286.604C488.327 286.832 488.519 287.071 488.695 287.324C487.987 287.505 487.386 288.299 486.607 287.828C485.78 287.328 486.159 286.199 486.607 285.596C486.223 285.926 485.233 288.258 485.86 288.646C486.418 288.991 487.186 288.202 487.748 288.407C488.206 288.574 490.447 287.805 490.348 288.828C490.278 289.528 489.888 290.539 489.415 291.068C490.062 290.855 490.313 290.318 490.479 289.711C490.696 288.913 491.577 289.141 492.077 288.62C492.618 289.738 491.583 290.526 491.428 291.572C490.42 290.843 489.734 292.517 489.205 293.076C488.225 294.113 486.399 293.522 485.383 292.868C485.533 292.615 485.701 292.375 485.887 292.147C485.321 292.281 484.936 292.688 485.095 293.299C484.15 292.834 483.005 292.955 482.143 292.291C482.666 292.843 486.213 294.229 484.718 294.81C484.147 295.032 484.509 295.755 483.986 296.121C482.828 296.933 482.202 296.849 481.063 295.964C481.153 296.964 481.834 297.322 482.764 297.207C483.394 297.127 485.401 296.265 485.096 297.187C485.417 297.008 485.753 296.864 486.104 296.754C485.714 297.391 485.046 298.199 484.376 298.554C483.996 298.755 481.819 298.584 482.36 299.13C481.221 298.944 479.655 298.77 478.805 299.526C478.225 300.044 477.016 300.93 477.392 299.418C477.024 299.744 477.047 300.337 476.922 300.766C476.787 301.226 475.8 301.412 475.425 301.618C473.788 302.514 472.862 304.071 471.92 305.611C472.046 305.138 472.094 304.659 472.064 304.171C471.422 306.964 468.825 306.066 466.549 306.747C463.966 307.522 462.321 309.838 460.76 311.875C460.372 311.355 460.54 310.787 461.048 310.435C460.195 310.914 460.862 312.473 459.896 312.667C459.375 312.771 459.592 313.127 459.259 313.43C458.667 313.968 458.494 313.42 457.952 313.747C457.376 314.1 454.769 317.298 454.425 315.331C454.744 316.954 453.388 317.177 452.281 317.762C451.588 318.129 451.029 318.486 450.207 318.333C449.857 318.263 447.685 318.333 449.529 318.643C447.342 319.08 451.093 318.81 448.809 319.723C450.551 319.553 447.656 320.993 447.945 319.291C447.753 321.236 447.152 319.001 447.081 318.571C447.101 319.213 447.332 319.823 447.346 320.464C447.366 321.261 445.647 322.483 446.649 321.019C445.514 322.732 445.382 323.359 443.337 323.971C443.437 324.21 443.53 324.45 443.625 324.692C443.168 324.975 442.688 325.023 442.185 324.836C442.155 325.105 442.185 325.368 442.255 325.628C442.523 325.538 442.787 325.447 443.047 325.34C442.869 326.229 442.002 326.604 441.175 326.566C442.069 327.057 441.631 328.385 440.959 327.716C441.194 328.898 440.562 328.431 439.663 328.22C440.214 328.403 440.646 328.739 440.959 329.228C440.285 329.884 439.456 329.804 439.092 330.809C438.833 331.525 437.672 333.332 438.26 334.047C438.517 334.298 438.499 334.524 438.2 334.722C437.494 335.199 437.992 335.36 438.12 336.148C438.363 337.683 437.983 339.479 437.974 341.036C437.954 344.39 438.805 347.775 439.945 350.911C440.507 352.454 440.403 352.791 439.965 354.255C439.532 355.699 440.015 357.023 440.165 358.46C439.572 356.976 439.311 355.392 439.942 353.875C440.666 352.137 438.94 352.542 438.869 351.116C438.869 353.752 439.214 356.267 439.917 358.804C440.299 360.182 441.266 363.008 440.236 364.292C442.594 363.962 439.636 373.973 439.15 375.064C438.355 376.848 437.225 380.591 435.484 381.572C434.903 381.9 435.136 380.505 434.407 381.532C433.887 382.263 433.095 381.532 432.398 381.791C431.233 382.214 429.477 381.658 430.731 380.277C430.966 380.791 431.412 381.193 431.955 381.357C432.258 380.571 430.915 379.772 430.598 379.182C429.901 377.885 430.412 376.47 428.902 375.564C428.009 375.029 427.09 374.953 426.987 373.724C426.885 372.513 427.651 370.814 426.195 370.124C427.054 369.833 427.486 368.952 428.212 368.468C427.466 368.694 427.009 369.579 426.267 369.856C425.645 370.088 426.297 366.678 426.699 366.237C426.201 366.575 425.721 366.551 425.26 366.167C426.297 367.348 424.652 367.601 424.108 366.167C423.608 364.849 424.198 362.574 422.812 361.703C423.936 361.623 426.13 359.018 425.476 357.887C425.232 358.05 424.993 358.218 424.756 358.391C424.826 357.769 424.428 357.276 423.892 357.023C423.545 357.536 423.529 357.958 424.065 358.333C424.539 358.665 423.51 359.744 423.315 359.976C422.98 359.435 422.687 358.727 422.811 359.976C421.898 357.034 424.799 354.243 425.478 351.526C425.72 350.558 425.714 349.69 425.518 348.71C425.188 347.043 424.53 347.573 423.493 346.589C421.986 345.159 421.484 343.082 420.628 341.293C420.213 340.425 419.273 339.474 418.344 339.168C416.989 338.721 416.107 340.098 414.816 339.96C415.038 341.062 414.032 340.801 413.124 341.364C412.77 341.583 411.171 342.633 411.36 341.687C410.342 342.454 409.006 342.696 407.76 342.696C408.51 341.723 407.894 340.447 406.896 339.96C407.375 340.02 407.303 339.759 406.68 339.168C407.658 339.92 407.97 338.98 407.007 338.882C405.554 338.734 406.587 337.718 407.4 337.512C406.704 337.542 406.008 337.572 405.312 337.582C405.507 337.82 405.699 338.06 405.888 338.302C404.479 338.66 402.136 337.028 400.92 336.43C401.083 336.46 403.568 336.8 403.391 336.34C403.22 335.894 402.406 335.603 401.994 335.516C401.256 335.36 400.56 336.012 399.915 336.258C398.815 336.677 397.258 336.68 396.097 336.649C396.759 336.579 397.383 336.388 397.969 336.074C397.359 335.875 397.121 335.391 397.537 334.849C397.17 335.257 396.834 335.689 396.529 336.145C396.967 334.154 395.732 336.041 395.333 336.462C394.736 337.093 394.026 337.417 393.145 337.37C393.688 337.231 395.033 336.58 394.225 335.858C393.62 337.495 391.427 338.371 389.833 337.729C391.432 338.329 390.684 334.401 390.409 333.625C390.016 334.465 389.536 335.421 389.043 336.204C388.667 336.801 387.629 336.453 387.043 336.778C386.727 336.953 385.134 337.004 385.298 336.758C384.693 337.669 383.947 336.158 383.282 336.434C383.585 336.537 381.333 337.024 380.859 337.078C379.661 337.215 379.505 337.899 378.353 338.294C376.278 339.004 375.619 336.62 373.768 336.658C373.114 336.668 370.91 338.54 372.012 339.147C372.737 339.546 373.995 339.491 374.743 339.197C375.355 338.956 376.68 339.091 377.09 338.739C376.836 339.071 375.276 339.736 375.469 340.252C375.959 341.556 376.511 340.82 377.117 340.162C377.913 339.3 379.064 340.415 378.489 341.373C378 342.188 376.36 341.521 376.657 342.915C375.682 342.557 375.572 343.252 375.811 344.004C376.198 345.218 377.088 345.33 378.202 345.66C378.745 345.821 378.966 346.59 379.366 347.016C379.767 347.444 378.354 348.184 378.385 348.747C377.629 347.608 376.82 348.717 376.153 349.251C376.559 348.706 376.963 348.151 377.232 347.522C376.552 347.442 376.742 347.073 376.466 346.655C376.297 346.397 374.593 345.799 374.281 345.795C374.852 344.869 372.089 343.514 371.754 343.81C371.566 343.977 372.279 345.05 372.213 345.433C372.023 346.549 371.667 347.534 370.464 347.811C370.434 346.769 370.597 346.456 369.456 346.227C367.629 345.86 368.429 347.241 367.13 347.516C365.09 347.947 362.896 345.585 364.056 343.636C363.59 344.508 362.462 344.108 361.915 343.566C361.559 343.216 361.3 342.701 361.464 342.192C360.732 342.077 359.367 342.704 360.312 341.471C359.409 341.481 357.242 342.331 358.152 343.559C356.786 343.33 355.594 344.019 354.131 343.639C352.411 343.193 350.919 342.14 349.224 341.615C350.012 340.922 350.357 340.271 349.943 339.239C349.651 339.995 349.494 341.843 348.539 342.065C347.646 342.272 345.972 342.474 345.12 342.045C345.558 341.401 346.424 340.925 346.344 340.029C345.344 340.53 344.392 341.571 345.193 342.693C342.54 343.042 339.811 343.91 337.633 345.501C338.273 344.668 339.33 344.124 340.297 343.773C339.536 343.625 338.785 343.843 338.065 344.061C338.557 343.439 339.106 342.682 338.857 341.829C338.211 341.968 338.113 342.584 337.561 342.837C337.035 343.078 336.992 342.096 336.481 342.693C336.04 343.209 336.571 345.152 337.273 345.357C336.028 346.586 334.64 347.398 333.446 348.701C331.813 350.483 328.748 350.155 327.337 351.837C327.817 351.693 328.296 351.549 328.776 351.405C327.605 352.055 326.377 352.639 325.104 353.061C325.68 352.531 326.448 352.284 326.976 351.693C326.483 351.825 326.003 351.993 325.536 352.197C326.647 351.509 324.208 351.694 323.952 350.9C324.07 351.398 323.952 351.83 323.592 352.197C323.836 350.056 320.95 353.452 323.592 353.348C322.697 354.197 321.335 354.567 320.712 353.204C320.802 354.392 318.745 356.998 319.056 355.435C318.528 356.565 317.184 355.395 316.752 356.731C317.344 356.898 317.848 356.751 318.264 356.299C317.974 358.528 315.782 358.132 314.16 358.604C314.447 358.644 314.735 358.664 315.024 358.674C314.786 359.213 315.198 359.566 315.361 360.025C315.558 360.581 314.486 361.793 314.219 362.213C313.502 363.339 311.945 363.411 311.352 362.133C311.689 362.654 311.665 363.157 311.282 363.645C312 363.813 312.759 363.976 313.442 363.575C313.241 364.36 312.838 365.677 312.045 366.073C311.384 366.404 312.005 368.083 312.005 368.615C312.005 370.211 311.039 373.514 312.293 374.807C312.542 374.6 312.782 374.385 313.013 374.16C313.202 374.923 311.343 375.64 310.823 375.713C309.796 375.857 309.136 374.088 307.959 374.088C306.996 374.088 305.717 374.309 304.829 373.802C303.722 373.17 302.464 371.726 301.313 371.533C299.033 371.151 299.704 369.474 298.796 367.518C298.131 366.084 298.037 364.849 298.343 363.372C298.472 362.748 298.829 362.12 298.658 361.5C298.494 360.911 297.388 360.433 297.068 359.49C296.21 357.213 294.823 355.346 294.21 352.316C293.974 351.075 294.106 349.808 293.809 348.571C293.661 347.956 293.273 347.493 293.103 346.902C292.896 346.182 292.182 345.654 291.881 345.073C291.253 343.861 290.377 343.286 289.718 342.132C289.648 342.009 287.626 341.84 287.413 341.808C285.054 341.46 282.596 341.217 280.52 342.521C278.356 343.88 278.171 347.287 275.303 348.608C274.165 349.132 272.811 347.798 271.973 347.232C271.217 346.721 270.406 346.296 269.658 345.772C267.4 344.14 266.312 342.537 266.246 340.419C266.816 338.949 266.476 337.281 266.412 335.802C266.57 334.344 265.545 333.649 264.3 333.191C263.075 332.74 262.085 330.275 261.172 328.712C257.611 326.776 259.927 324.783 257.066 324.552L243.982 324.562L243.803 328.379L223.586 328.272L199.853 318.287C200.127 317.552 200.817 317.094 201.271 316.486C195.222 316.678 189.166 317.526 183.149 318.121C183.079 316.428 183.69 314.795 183.713 313.121C183.743 311.08 182.308 310.301 181.163 308.85C179.988 307.361 179.983 308.222 178.563 307.697C177.594 307.34 179.688 304.794 176.886 304.893C175.168 304.953 174.505 304.458 173.615 303.046C172.675 301.555 170.731 301.807 169.224 301.482C168.236 301.269 165.109 301.875 165.497 299.882C165.741 298.629 167.089 297.466 167.143 296.181C167.193 294.949 165.601 295.16 166.429 293.779C166.947 292.916 165.835 291.869 165.212 291.196C164.599 290.532 164.664 289.673 164.619 288.787C164.549 287.495 162.819 286.214 163.167 285.052C163.712 283.231 163.941 283.242 165.204 281.997C166.681 280.541 165.375 280.205 164.196 279.378C162.445 278.151 163.942 276.992 163.626 275.469C163.439 274.569 164.459 272.544 165.487 272.493C165.487 272.977 164.966 273.458 165.055 273.932C165.167 274.529 165.914 275.004 166.279 275.445C166.884 273.491 165.72 271.293 168.079 270.26C165.936 267.984 166.218 272.327 164.885 272.043C164.031 271.861 163.032 269.52 162.103 270.836C162.585 270.251 163.254 268.467 163.759 270.044C163.719 269.376 163.669 268.688 163.187 268.169" fill="#c0c0c0"/>
</svg>
