<svg width="60" height="65" viewBox="0 0 60 65" fill="none" xmlns="http://www.w3.org/2000/svg">
<path d="M16.6802 0.259766C16.0002 0.535766 15.9301 1.49478 16.0701 2.07378C16.0701 1.68178 16.4301 1.34078 16.8801 1.16678C16.5601 1.05978 16.3902 0.747766 16.6802 0.259766ZM17.5801 1.06577C17.3701 1.06577 17.1801 1.10578 16.9801 1.16678C17.3601 1.25678 17.8901 1.19678 18.1901 1.16678C17.9901 1.08678 17.8001 1.06677 17.5801 1.06577ZM19.3301 0.958771C18.7001 0.898771 18.9202 1.10278 18.2902 1.16678C18.7102 1.37878 19.1601 2.67877 19.4001 3.08177C19.6101 3.43677 20.5902 4.12777 20.3102 4.59377C19.8402 5.36077 18.5201 4.93578 17.9901 5.90378C18.6901 6.20178 19.3901 6.07078 20.1001 5.90378C18.5001 6.63978 20.2301 7.14477 20.5101 8.02077C19.8301 7.99077 19.5801 8.41276 20.1001 8.92776C20.6801 9.48876 21.5101 9.31477 22.2201 9.53177C22.9701 9.76277 23.3501 10.3638 23.8301 10.9438C24.4101 11.6388 25.1801 11.7218 25.8501 12.2538C24.1101 12.0648 23.6501 10.6198 22.3201 9.83478C21.4501 9.32078 20.4301 9.92478 19.5001 9.83478C18.4101 9.72678 17.3502 9.37377 17.1802 10.8428C17.0802 11.4288 17.5901 11.8898 17.5801 12.4548C17.4201 12.8758 17.3602 13.3228 17.2802 13.7658C17.1802 13.0378 17.3901 12.3408 16.5801 11.9518C15.6201 11.4958 15.2801 12.3978 15.8701 13.0598C15.3401 13.1928 14.8901 13.0798 14.4601 12.7578C16.8301 11.1578 10.4101 10.9058 9.72009 11.0438C8.93009 11.2018 7.59011 12.4718 7.61011 13.3628C7.61011 14.1018 10.3802 14.4928 9.92017 14.2698C8.80017 13.7218 8.04018 17.9538 7.81018 18.9058C7.51018 20.1328 6.47009 19.2208 5.59009 19.8128C4.21009 20.7358 6.78012 21.1678 7.12012 21.7408C8.11012 23.3818 4.69013 23.8718 5.76013 25.0958C6.79013 26.2918 2.15014 26.0128 1.52014 25.6888C1.93014 26.8418 1.1701 25.8338 0.350097 26.3648C0.450097 26.6318 0.140097 26.6988 0.350097 27.0708C1.2701 27.3868 2.39013 29.5468 1.88013 30.5158C1.43013 31.3838 -0.329859 32.6558 0.520141 33.8418C0.980141 34.4768 0.620082 35.3568 0.710082 35.5898C0.980082 36.3008 2.64011 36.3358 1.86011 37.3508C2.85011 37.1838 2.76017 38.3228 3.05017 38.9278C0.0801699 38.8978 -0.419835 41.2488 2.42017 42.6328C4.41016 43.6068 2.42014 45.4838 3.14014 46.3358C3.25014 46.4658 5.18016 48.8398 5.66016 48.7608C6.35016 48.6468 5.80007 48.2218 6.82007 48.3558C7.36007 48.4258 6.82011 49.3158 7.74011 49.0788C8.09011 48.9888 8.57018 49.0788 8.93017 49.0488C10.2102 48.6048 10.3401 49.2988 11.5201 49.6708C12.5901 50.0058 13.9202 50.1498 15.0302 50.3348C14.1302 51.1298 13.2802 51.9158 12.5402 52.8728C11.7102 53.9688 11.4201 55.6368 10.8601 56.8508C10.4901 57.6628 9.09017 63.5228 11.1802 61.7598C10.4602 62.5988 14.0901 62.0098 14.7601 62.0448C16.0601 62.1148 17.2001 62.0648 17.4801 61.2378C15.9201 61.8188 16.4502 59.7208 18.2902 60.6338C19.5902 61.2788 22.7402 61.6728 24.0602 62.4428C24.8702 62.9148 29.2001 62.6238 28.0701 64.5648C29.6301 64.5148 29.7401 63.0988 30.0801 61.9438C30.7501 62.5388 32.2701 62.5268 33.1101 62.4478C32.3801 62.8058 34.2501 63.3458 34.6201 63.3548C35.4801 63.3748 36.0201 62.6298 36.8401 62.5488C38.4101 62.3908 39.9302 61.1738 41.6702 61.7418C41.6702 61.4728 41.6701 61.1948 41.5701 60.9358C42.3801 61.0358 43.1701 61.4398 43.9901 61.4398C44.3901 61.3038 44.7901 61.2178 45.2001 61.1378C45.6501 61.1878 45.8401 62.0618 46.2101 62.3468C47.3301 63.2078 47.3201 62.7708 47.6201 61.7418C47.9201 60.7158 46.6401 61.1118 46.7101 60.2308C46.8101 59.1558 46.8401 59.2018 46.0101 58.3148C45.3801 57.6468 45.8101 57.1288 46.5101 56.8038C47.3201 56.4328 49.9401 55.9848 49.9401 54.7878C49.9401 52.6808 51.3802 54.5138 52.1602 53.5778C53.5602 51.8778 51.1102 50.6938 50.0402 50.0498C48.7802 49.2968 47.7202 48.2548 46.4102 47.5308C44.7702 46.6198 44.4401 44.5468 42.8801 43.6998C44.1101 42.7218 43.5401 41.9178 42.3801 41.2808C41.4801 40.7878 41.2801 39.8958 40.8701 39.1648C41.5201 39.0648 42.0302 39.3298 42.2802 40.2728C42.5302 37.6178 45.9401 38.6518 47.3201 37.5518C49.5101 35.7958 53.1702 34.8268 55.7802 33.8228C55.5502 33.6008 55.3201 33.4278 55.0801 33.2178C56.0801 32.9818 56.3202 32.6948 57.1802 33.8288C59.3002 36.5628 60.6501 31.5008 59.6001 30.1888C59.4601 29.3728 58.1601 29.3318 58.0901 28.6818C57.9901 27.7988 58.0901 27.4958 57.4001 26.7668C56.9501 26.2788 57.6202 25.8858 57.8002 25.4218C58.8402 22.7568 56.1801 22.0408 56.8801 21.2408C58.2801 19.6368 54.4101 19.0788 53.8801 17.5708C54.5901 17.0128 56.8401 13.5648 55.3801 13.3618C55.0801 12.2528 54.7501 11.0778 53.5701 10.6398C52.8401 10.3708 51.6502 10.1738 51.5502 9.22878C51.5502 8.73678 51.2802 7.21277 50.5402 7.21277C50.1002 7.21277 49.1902 7.21277 49.4302 7.71677C48.6302 7.24577 46.8801 5.16577 46.1101 5.09677C44.4901 4.95177 43.3902 5.08677 42.1802 6.30577C41.9802 4.95077 44.2501 4.85477 45.1001 4.99577C43.4501 4.37977 43.2101 4.85477 41.9801 5.80177C41.3901 6.24977 40.1201 6.74877 40.4601 7.71677C40.6201 6.08277 37.3801 7.53878 36.6301 8.01978C38.1001 7.30478 36.4701 8.50377 36.2301 9.22878C35.6301 8.66677 32.1301 7.88578 32.9001 9.22878C32.7601 8.71177 32.4001 8.43278 31.9001 8.32178C32.8701 7.32178 33.7501 6.65678 34.0101 5.19678C32.6901 5.45978 31.9001 5.99077 30.5901 5.39877C29.7701 5.02977 28.4701 4.52978 28.0701 5.70078C27.9601 5.18078 27.9401 5.15076 28.2701 4.69276C27.6001 4.39376 26.8101 4.42276 26.1501 4.69276C26.6501 4.45676 27.8002 2.94877 26.5502 2.97977C28.5502 2.07277 21.7602 1.46677 22.0302 1.61577C21.4302 1.28477 19.9901 1.02576 19.3301 0.957764V0.958771Z" fill="#c0c0c0"/>
<path d="M17.7395 2.8696C17.8995 2.1066 17.6395 2.05861 17.0195 2.72461C17.2595 2.77461 17.4995 2.8246 17.7395 2.8696Z" fill="#c0c0c0"/>
<path d="M34.0098 5.02969C34.4398 5.07969 34.8798 5.07969 35.3098 5.02969C35.0098 4.26969 34.2398 4.0027 33.5098 4.3087C33.6698 4.5497 33.8398 4.78969 34.0098 5.02969Z" fill="#c0c0c0"/>
<path d="M46.9004 5.67958C47.9804 5.54358 47.4704 4.51558 47.1204 3.95158C47.8804 3.88158 48.6004 4.15858 49.2804 4.45558C48.9604 3.56858 47.1004 3.82758 48.5604 2.87158C48.4604 4.33158 50.0504 3.05158 50.2904 3.91458C50.4004 4.33758 49.6704 4.87758 50.1804 5.20358C50.5604 5.44358 50.8704 5.47559 50.8604 6.03859C50.1504 5.91759 49.5204 5.48959 48.9104 6.01859C48.3804 6.47759 47.2104 6.34659 46.9004 5.68459" fill="#c0c0c0"/>
<path d="M51.3707 8.04999C51.3707 7.70599 51.3707 7.36999 51.2207 7.04199C51.9107 7.91699 53.3507 7.90299 53.9707 8.86299C54.5807 9.79999 52.0407 9.80498 51.5807 9.56198C52.6007 9.37798 51.6808 8.33499 52.8108 8.26599C52.3108 8.30599 51.8307 8.23599 51.3707 8.04999Z" fill="#c0c0c0"/>
</svg>
