<svg width="220" height="220" viewBox="0 0 220 220" fill="none" xmlns="http://www.w3.org/2000/svg">
<rect width="220" height="220" rx="10" fill="black"/>
<rect x="10" y="10" width="200" height="200" rx="50" fill="white"/>
<path d="M135.056 130.817H139.877V181.4H135.056V130.817Z" fill="black"/>
<path d="M139.878 153.435H177.624V158.233H139.878V153.435Z" fill="black"/>
<path d="M177.623 130.817H182.445V181.4H177.623V130.817Z" fill="black"/>
<path d="M83.8941 145.348C83.8941 153.373 77.3561 159.878 69.2917 159.878C62.7591 159.878 55.929 159.878 55.929 159.878V155.081H68.4651C68.4651 155.081 78.7282 155.081 78.7282 144.868C78.7282 135.615 68.4651 135.615 68.4651 135.615H55.9083C55.9194 132.833 55.929 130.817 55.929 130.817C55.929 130.817 65.8862 130.817 69.2917 130.817C77.3561 130.817 83.8941 137.323 83.8941 145.348Z" fill="black"/>
<path d="M46.2861 130.817H55.9292V135.615H46.2861V130.817Z" fill="black"/>
<path d="M46.286 155.08H55.9292V159.878H46.286V155.08Z" fill="black"/>
<path d="M46.286 135.615H51.1076V181.4H46.286V135.615Z" fill="black"/>
<path d="M158.957 38C157.101 39.8594 155.969 42.2934 155.969 44.965C156.079 50.831 156.894 56.6849 156.965 62.5492C157.113 68.0145 155.255 73.1476 152.997 78.1551C152.245 79.5388 151.431 80.8933 150.617 82.2489L148.22 81.823C146.064 81.4425 144.661 79.5917 145.092 77.6881C145.47 76.0224 147.13 74.8657 148.983 74.8582L149.854 74.9405L147.909 60.5985C147.273 54.2118 143.541 48.6097 138.043 44.965C137.099 44.3387 136.098 43.7661 135.056 43.2615V94.2007H148.376C149.372 98.9739 152.347 103.132 156.53 105.988C157.524 106.593 158.358 107.391 158.957 108.323C159.556 107.391 160.39 106.593 161.384 105.988C165.567 103.132 168.542 98.9739 169.538 94.2007H182.858V43.2615C181.816 43.7661 180.815 44.3387 179.871 44.965C174.373 48.6097 170.641 54.2118 170.005 60.5985L168.06 74.9405L168.931 74.8582C170.784 74.8658 172.444 76.0224 172.822 77.6881C173.253 79.5917 171.85 81.4425 169.694 81.823L167.297 82.2489C166.483 80.8933 165.669 79.5388 164.917 78.1551C162.659 73.1476 160.801 68.0145 160.949 62.5492C161.02 56.6849 161.835 50.831 161.945 44.965C161.945 42.2934 160.813 39.8594 158.957 38ZM139.039 50.5974C141.617 53.2684 143.347 56.5969 143.863 60.255L145.466 72.0831C143.425 72.9801 141.878 74.6257 141.296 76.6165H139.039V50.5974ZM178.875 50.5974V76.6165H176.618C176.036 74.6257 174.489 72.9801 172.448 72.0831L174.051 60.255C174.567 56.5969 176.297 53.2684 178.875 50.5974ZM158.957 74.3773C160.027 77.4671 161.499 80.4011 163.33 83.1282C161.589 83.5951 160.074 84.5032 158.957 85.7245C157.84 84.5032 156.325 83.5951 154.584 83.1282C156.415 80.4011 157.887 77.4671 158.957 74.3773ZM139.039 80.1333H141.296C142.007 82.5604 144.153 84.4781 146.882 85.1475L148.796 85.5322C148.283 87.1725 148.002 88.9005 148.002 90.6838H139.039V80.1333ZM176.618 80.1333H178.875V90.6838H169.912C169.912 88.9005 169.631 87.1725 169.118 85.5322L171.032 85.1475C173.761 84.4781 175.907 82.5604 176.618 80.1333ZM152.686 86.3427C155.102 86.6443 156.965 88.4676 156.965 90.6838H151.986C151.986 89.1763 152.239 87.7236 152.686 86.3427ZM165.228 86.3427C165.675 87.7236 165.928 89.1763 165.928 90.6838H160.949C160.949 88.4676 162.812 86.6443 165.228 86.3427ZM152.437 94.2007H156.965V101.605C154.768 99.577 153.171 97.0303 152.437 94.2007ZM160.949 94.2007H165.477C164.743 97.0303 163.146 99.577 160.949 101.605V94.2007Z" fill="#E57601"/>
<path d="M154.618 82.9275L153.653 82.7221L152.551 82.5168C151.38 82.38 152.207 82.4484 150.617 82.283L148.22 81.8577C146.064 81.4775 144.661 79.6291 145.092 77.7281C145.47 76.0646 147.13 74.9094 148.983 74.9017L149.854 74.9841L147.909 60.6607C147.273 54.2823 143.541 48.6876 138.044 45.0475C137.099 44.422 136.098 43.8501 135.056 43.3463V47.538L139.051 50.6868C139.051 50.6868 140.36 51.6451 142.013 54.6569C143.666 57.6688 143.666 59.3801 143.666 59.3801L145.319 71.9752C145.319 71.9752 144.286 72.1121 142.77 73.6865C141.255 75.2609 141.255 76.5615 141.255 76.5615V80.1894C142.495 83.612 146.214 85.0495 146.214 85.0495L152.689 86.2816C152.689 86.2816 154.636 86.6935 155.513 87.5138C156.504 88.4401 156.96 90.6626 156.96 90.6626V94.2192C157.107 94.3084 156.82 106.174 156.96 106.271C157.765 106.834 158.446 107.53 158.957 108.323C159.556 107.393 160.541 102.436 160.541 102.436V90.707C160.541 90.707 160.541 88.9512 160.266 88.0614C159.99 87.1715 158.957 85.7541 158.957 85.7541C158.957 85.7541 158.062 84.7072 157.373 84.2281C156.684 83.749 154.618 82.9275 154.618 82.9275Z" fill="black"/>
<path d="M163.296 82.9275L164.261 82.7221L165.363 82.5168C166.534 82.38 165.707 82.4484 167.297 82.283L169.694 81.8577C171.85 81.4775 173.253 79.6291 172.821 77.7281C172.444 76.0646 170.784 74.9094 168.931 74.9017L168.06 74.9841L170.005 60.6607C170.641 54.2823 174.373 48.6876 179.87 45.0475C180.815 44.422 181.816 43.8501 182.858 43.3463V47.538L178.863 50.6868C178.863 50.6868 177.554 51.6451 175.901 54.6569C174.248 57.6688 174.248 59.3801 174.248 59.3801L172.595 71.9752C172.595 71.9752 173.628 72.1121 175.144 73.6865C176.659 75.2609 176.659 76.5615 176.659 76.5615V80.1894C175.419 83.612 171.7 85.0495 171.7 85.0495L165.225 86.2816C165.225 86.2816 163.278 86.6935 162.401 87.5138C161.41 88.4401 160.954 90.6626 160.954 90.6626V94.2192C160.807 94.3084 161.094 106.174 160.954 106.271C160.148 106.834 159.468 107.53 158.957 108.323C158.357 107.393 157.373 102.436 157.373 102.436V90.707C157.373 90.707 157.373 88.9512 157.648 88.0614C157.924 87.1715 158.957 85.7541 158.957 85.7541C158.957 85.7541 159.852 84.7072 160.541 84.2281C161.23 83.749 163.296 82.9275 163.296 82.9275Z" fill="black"/>
<path d="M36.9998 45.2515H39.6861L65.1027 85.485V92.1335H63.8629L41.8214 56.9034V95.8347H36.9998V45.2515Z" fill="black"/>
<path d="M93.2055 45.2515H90.5192L65.1026 85.485V92.1335H66.2736L88.3839 56.9034V95.8347H93.2055V45.2515Z" fill="black"/>
</svg>
