<svg aria-hidden="true" style="position: absolute; width: 0; height: 0; overflow: hidden;" version="1.1" xmlns="http://www.w3.org/2000/svg" xmlns:xlink="http://www.w3.org/1999/xlink">
<defs>


<symbol id="main-title" viewBox="0 0 679 143">
<path d="M209.24 0V143H189.705V4.19467L197.736 4.38533L115.473 143H93.7672L11.5039 4.57601L19.5348 4.38533V143H0V0H30.8216L111.132 136.899H98.3254L178.418 0H209.24Z"/>
<path d="M286.276 143V75.3133H306.679V143H286.276ZM209.222 0H232.664L303.207 76.8387H289.966L360.075 0H383.516L302.989 88.088L290.183 88.2787L209.222 0Z"/>
<path d="M466.895 0C478.326 0 488.239 1.77956 496.631 5.33867C505.024 8.89778 511.536 13.9187 516.166 20.4013C520.797 26.7569 523.112 34.1293 523.112 42.5187C523.112 50.908 520.797 58.344 516.166 64.8267C511.536 71.1822 505.024 76.2031 496.631 79.8893C488.239 83.4484 478.326 85.228 466.895 85.228H392.663V69.5933H466.461C477.458 69.5933 486.14 67.1782 492.507 62.348C499.019 57.3907 502.275 50.7809 502.275 42.5187C502.275 34.2564 499.019 27.7102 492.507 22.88C486.14 18.0498 477.458 15.6347 466.461 15.6347H394.833L403.949 6.864V143H383.546V0H466.895Z"/>
<path d="M524.024 0H544.427V143H524.024V0ZM658.597 0H679V143H658.597V0ZM534.442 63.3013H669.667V79.1267H534.442V63.3013Z"/>
</symbol>
<symbol id="icon-add-folder" viewBox="0 0 32 32">
<path d="M18.667 16.667h-1.333v-1.333c0-0.354-0.141-0.693-0.391-0.943s-0.589-0.391-0.943-0.391-0.693 0.141-0.943 0.391c-0.25 0.25-0.391 0.589-0.391 0.943v1.333h-1.333c-0.354 0-0.693 0.141-0.943 0.391s-0.391 0.589-0.391 0.943 0.14 0.693 0.391 0.943c0.25 0.25 0.589 0.391 0.943 0.391h1.333v1.333c0 0.354 0.141 0.693 0.391 0.943s0.589 0.391 0.943 0.391 0.693-0.14 0.943-0.391c0.25-0.25 0.391-0.589 0.391-0.943v-1.333h1.333c0.354 0 0.693-0.14 0.943-0.391s0.391-0.589 0.391-0.943-0.141-0.693-0.391-0.943c-0.25-0.25-0.589-0.391-0.943-0.391zM25.333 7.333h-8.373l-0.427-1.333c-0.277-0.782-0.79-1.459-1.468-1.937s-1.489-0.733-2.319-0.73h-6.080c-1.061 0-2.078 0.421-2.828 1.172s-1.172 1.768-1.172 2.828v17.333c0 1.061 0.421 2.078 1.172 2.828s1.768 1.172 2.828 1.172h18.667c1.061 0 2.078-0.421 2.828-1.172s1.172-1.767 1.172-2.828v-13.333c0-1.061-0.421-2.078-1.172-2.828s-1.768-1.172-2.828-1.172zM26.667 24.667c0 0.354-0.141 0.693-0.391 0.943s-0.589 0.391-0.943 0.391h-18.667c-0.354 0-0.693-0.14-0.943-0.391s-0.391-0.589-0.391-0.943v-17.333c0-0.354 0.14-0.693 0.391-0.943s0.589-0.391 0.943-0.391h6.080c0.28-0.001 0.552 0.086 0.779 0.249s0.398 0.393 0.487 0.658l0.72 2.187c0.089 0.265 0.26 0.495 0.487 0.658s0.5 0.25 0.779 0.249h9.333c0.354 0 0.693 0.14 0.943 0.391s0.391 0.589 0.391 0.943v13.333z"></path>
</symbol>
<symbol id="icon-add-image" viewBox="0 0 32 32">
<path d="M25.333 13.333c-0.354 0-0.693 0.141-0.943 0.391s-0.391 0.589-0.391 0.943v4.507l-1.973-1.973c-0.697-0.691-1.639-1.079-2.62-1.079s-1.923 0.388-2.62 1.079l-0.933 0.947-3.307-3.32c-0.697-0.691-1.639-1.079-2.62-1.079s-1.923 0.388-2.62 1.079l-1.973 1.987v-7.48c0-0.354 0.14-0.693 0.391-0.943s0.589-0.391 0.943-0.391h10.667c0.354 0 0.693-0.14 0.943-0.391s0.391-0.589 0.391-0.943c0-0.354-0.141-0.693-0.391-0.943s-0.589-0.391-0.943-0.391h-10.667c-1.061 0-2.078 0.421-2.828 1.172s-1.172 1.768-1.172 2.828v16.293c0.004 0.982 0.395 1.923 1.090 2.617s1.635 1.086 2.617 1.090h16.587c0.361-0.003 0.72-0.057 1.067-0.16v0c0.77-0.216 1.448-0.679 1.929-1.317s0.741-1.417 0.737-2.217v-10.973c0-0.177-0.035-0.353-0.104-0.517s-0.169-0.312-0.296-0.436c-0.127-0.124-0.277-0.222-0.442-0.287s-0.341-0.097-0.518-0.094zM6.667 26.667c-0.354 0-0.693-0.141-0.943-0.391s-0.391-0.589-0.391-0.943v-4.76l3.853-3.853c0.195-0.194 0.459-0.303 0.733-0.303s0.538 0.109 0.733 0.303l9.96 9.947h-13.947zM24 25.333c-0.009 0.258-0.092 0.508-0.24 0.72l-6.027-6.053 0.947-0.933c0.096-0.098 0.21-0.175 0.336-0.228s0.261-0.080 0.398-0.080c0.137 0 0.272 0.027 0.398 0.080s0.24 0.13 0.336 0.228l3.853 3.88v2.387zM28 5.333h-1.333v-1.333c0-0.354-0.141-0.693-0.391-0.943s-0.589-0.391-0.943-0.391c-0.354 0-0.693 0.14-0.943 0.391s-0.391 0.589-0.391 0.943v1.333h-1.333c-0.354 0-0.693 0.14-0.943 0.391s-0.391 0.589-0.391 0.943c0 0.354 0.141 0.693 0.391 0.943s0.589 0.391 0.943 0.391h1.333v1.333c0 0.354 0.141 0.693 0.391 0.943s0.589 0.391 0.943 0.391c0.354 0 0.693-0.14 0.943-0.391s0.391-0.589 0.391-0.943v-1.333h1.333c0.354 0 0.693-0.14 0.943-0.391s0.391-0.589 0.391-0.943c0-0.354-0.141-0.693-0.391-0.943s-0.589-0.391-0.943-0.391v0z"></path>
</symbol>
<symbol id="icon-add-photo" viewBox="0 0 32 32">
<path d="M26.667 14c-0.354 0-0.693 0.141-0.943 0.391s-0.391 0.589-0.391 0.943v9.333c0 0.354-0.141 0.693-0.391 0.943s-0.589 0.391-0.943 0.391h-18.667c-0.354 0-0.693-0.141-0.943-0.391s-0.391-0.589-0.391-0.943v-10.667c0-0.354 0.14-0.693 0.391-0.943s0.589-0.391 0.943-0.391h2.667c0.291 0.015 0.578-0.065 0.819-0.229s0.421-0.402 0.514-0.678l0.72-2.187c0.089-0.265 0.26-0.495 0.487-0.658s0.5-0.25 0.78-0.249h7.347c0.354 0 0.693-0.14 0.943-0.391s0.391-0.589 0.391-0.943c0-0.354-0.141-0.693-0.391-0.943s-0.589-0.391-0.943-0.391h-7.413c-0.838 0.002-1.654 0.266-2.334 0.757s-1.188 1.182-1.453 1.977l-0.427 1.333h-1.707c-1.061 0-2.078 0.421-2.828 1.172s-1.172 1.768-1.172 2.828v10.667c0 1.061 0.421 2.078 1.172 2.828s1.768 1.172 2.828 1.172h18.667c1.061 0 2.078-0.421 2.828-1.172s1.172-1.768 1.172-2.828v-9.333c0.009-0.181-0.019-0.361-0.082-0.531s-0.16-0.324-0.284-0.455c-0.125-0.131-0.275-0.235-0.441-0.306s-0.345-0.108-0.526-0.107v0zM14.667 12.667c-1.055 0-2.086 0.313-2.963 0.899s-1.561 1.419-1.964 2.394c-0.404 0.975-0.509 2.047-0.303 3.081s0.714 1.985 1.46 2.731 1.696 1.254 2.731 1.46c1.035 0.206 2.107 0.1 3.081-0.303s1.808-1.087 2.394-1.964 0.899-1.908 0.899-2.963c0-1.415-0.562-2.771-1.562-3.771s-2.357-1.562-3.771-1.562v0zM14.667 20.667c-0.527 0-1.043-0.156-1.482-0.449s-0.78-0.709-0.982-1.197c-0.202-0.487-0.255-1.023-0.152-1.541s0.357-0.992 0.73-1.365 0.848-0.627 1.365-0.73c0.517-0.103 1.053-0.050 1.541 0.152s0.904 0.544 1.197 0.982c0.293 0.439 0.449 0.954 0.449 1.481 0 0.707-0.281 1.385-0.781 1.886s-1.178 0.781-1.886 0.781zM29.333 6h-1.333v-1.333c0-0.354-0.141-0.693-0.391-0.943s-0.589-0.391-0.943-0.391c-0.354 0-0.693 0.14-0.943 0.391s-0.391 0.589-0.391 0.943v1.333h-1.333c-0.354 0-0.693 0.14-0.943 0.391s-0.391 0.589-0.391 0.943c0 0.354 0.141 0.693 0.391 0.943s0.589 0.391 0.943 0.391h1.333v1.333c0 0.354 0.141 0.693 0.391 0.943s0.589 0.391 0.943 0.391c0.354 0 0.693-0.14 0.943-0.391s0.391-0.589 0.391-0.943v-1.333h1.333c0.354 0 0.693-0.14 0.943-0.391s0.391-0.589 0.391-0.943c0-0.354-0.141-0.693-0.391-0.943s-0.589-0.391-0.943-0.391z"></path>
</symbol>
<symbol id="icon-arrow-big" viewBox="0 0 32 32">
<path d="M20.72 15.053l-7.547-7.533c-0.124-0.125-0.271-0.224-0.434-0.292s-0.337-0.103-0.513-0.103c-0.176 0-0.35 0.035-0.513 0.103s-0.31 0.167-0.434 0.292c-0.248 0.25-0.388 0.588-0.388 0.94s0.139 0.69 0.388 0.94l6.6 6.667-6.6 6.6c-0.248 0.25-0.388 0.588-0.388 0.94s0.139 0.69 0.388 0.94c0.123 0.126 0.271 0.226 0.433 0.295s0.337 0.104 0.513 0.105c0.176-0.001 0.351-0.036 0.513-0.105s0.31-0.169 0.433-0.295l7.547-7.533c0.135-0.125 0.243-0.276 0.317-0.445s0.112-0.351 0.112-0.535c0-0.184-0.038-0.366-0.112-0.535s-0.182-0.32-0.317-0.445v0z"></path>
</symbol>
<symbol id="icon-arrow-small" viewBox="0 0 32 32">
<path d="M19.773 15.054l-5.653-5.653c-0.124-0.125-0.271-0.224-0.434-0.292s-0.337-0.103-0.513-0.103c-0.176 0-0.35 0.035-0.513 0.103s-0.31 0.167-0.434 0.292c-0.248 0.25-0.388 0.588-0.388 0.94s0.139 0.69 0.388 0.94l4.72 4.72-4.72 4.72c-0.248 0.25-0.388 0.588-0.388 0.94s0.139 0.69 0.388 0.94c0.125 0.124 0.272 0.221 0.435 0.288s0.336 0.1 0.512 0.099c0.175 0.001 0.349-0.033 0.512-0.099s0.31-0.164 0.435-0.288l5.653-5.653c0.125-0.124 0.224-0.271 0.292-0.434s0.103-0.337 0.103-0.513-0.035-0.35-0.103-0.513c-0.068-0.162-0.167-0.31-0.292-0.434z"></path>
</symbol>
<symbol id="icon-call" viewBox="0 0 32 32">
<path d="M25.92 17.333c-0.293 0-0.6-0.093-0.893-0.16-0.594-0.131-1.178-0.305-1.747-0.52-0.619-0.225-1.299-0.213-1.909 0.033s-1.108 0.709-1.398 1.301l-0.293 0.6c-1.299-0.723-2.492-1.62-3.547-2.667-1.047-1.055-1.944-2.248-2.667-3.547l0.56-0.373c0.591-0.289 1.054-0.787 1.301-1.398s0.258-1.29 0.033-1.909c-0.212-0.57-0.385-1.154-0.52-1.747-0.067-0.293-0.12-0.6-0.16-0.907-0.162-0.939-0.654-1.79-1.387-2.398s-1.66-0.935-2.613-0.922h-4c-0.575-0.005-1.144 0.113-1.668 0.347s-0.993 0.579-1.372 1.010c-0.38 0.431-0.662 0.94-0.827 1.49s-0.211 1.13-0.132 1.699c0.71 5.586 3.261 10.776 7.25 14.75s9.188 6.507 14.777 7.197h0.507c0.983 0.001 1.933-0.359 2.667-1.013 0.422-0.377 0.759-0.84 0.989-1.357s0.347-1.077 0.345-1.643v-4c-0.016-0.926-0.354-1.818-0.954-2.523s-1.427-1.18-2.339-1.343v0zM26.587 25.333c-0 0.189-0.041 0.376-0.119 0.549s-0.192 0.326-0.334 0.451c-0.146 0.133-0.32 0.232-0.509 0.29s-0.389 0.073-0.584 0.044c-4.993-0.64-9.632-2.925-13.183-6.493s-5.814-8.217-6.43-13.214c-0.021-0.195-0.003-0.393 0.055-0.581s0.152-0.362 0.279-0.513c0.125-0.142 0.279-0.256 0.451-0.334s0.359-0.119 0.549-0.119h4c0.31-0.007 0.613 0.095 0.856 0.287s0.412 0.463 0.477 0.767c0.053 0.364 0.12 0.724 0.2 1.080 0.154 0.703 0.359 1.394 0.613 2.067l-1.867 0.867c-0.16 0.073-0.303 0.177-0.422 0.306s-0.212 0.28-0.273 0.445c-0.061 0.165-0.088 0.34-0.081 0.515s0.049 0.348 0.123 0.507c1.919 4.11 5.223 7.414 9.333 9.333 0.325 0.133 0.689 0.133 1.013 0 0.166-0.059 0.319-0.151 0.449-0.27s0.236-0.263 0.311-0.423l0.827-1.867c0.689 0.246 1.393 0.451 2.107 0.613 0.355 0.080 0.715 0.147 1.080 0.2 0.303 0.065 0.574 0.234 0.767 0.477s0.294 0.546 0.287 0.856l0.027 4.16zM25.333 13.333c0.354 0 0.693-0.14 0.943-0.391s0.391-0.589 0.391-0.943v-5.333c0-0.354-0.141-0.693-0.391-0.943s-0.589-0.391-0.943-0.391c-0.354 0-0.693 0.14-0.943 0.391s-0.391 0.589-0.391 0.943v5.333c0 0.354 0.14 0.693 0.391 0.943s0.589 0.391 0.943 0.391zM20 13.333c0.354 0 0.693-0.14 0.943-0.391s0.391-0.589 0.391-0.943v-5.333c0-0.354-0.141-0.693-0.391-0.943s-0.589-0.391-0.943-0.391-0.693 0.14-0.943 0.391c-0.25 0.25-0.391 0.589-0.391 0.943v5.333c0 0.354 0.14 0.693 0.391 0.943s0.589 0.391 0.943 0.391z"></path>
</symbol>
<symbol id="icon-camera-change" viewBox="0 0 32 32">
<path d="M16.387 6.947l2 2c0.124 0.125 0.271 0.224 0.434 0.292s0.337 0.103 0.513 0.103 0.35-0.035 0.513-0.103c0.162-0.068 0.31-0.167 0.434-0.292 0.202-0.212 0.329-0.486 0.36-0.777s-0.034-0.586-0.187-0.836h4.88c0.354 0 0.693-0.14 0.943-0.391s0.391-0.589 0.391-0.943c0-0.354-0.141-0.693-0.391-0.943s-0.589-0.391-0.943-0.391h-4.88c0.153-0.251 0.218-0.544 0.187-0.836s-0.158-0.565-0.36-0.777c-0.124-0.125-0.271-0.224-0.434-0.292s-0.337-0.103-0.513-0.103-0.35 0.035-0.513 0.103c-0.162 0.068-0.31 0.167-0.434 0.292l-2 2c-0.121 0.127-0.217 0.276-0.28 0.44-0.133 0.325-0.133 0.689 0 1.013 0.063 0.164 0.159 0.313 0.28 0.44zM30.56 12.16c-0.063-0.164-0.159-0.313-0.28-0.44l-2-2c-0.124-0.125-0.271-0.224-0.434-0.292s-0.337-0.103-0.513-0.103-0.35 0.035-0.513 0.103c-0.162 0.068-0.31 0.167-0.434 0.292-0.202 0.212-0.329 0.486-0.36 0.777s0.034 0.586 0.187 0.836h-4.88c-0.354 0-0.693 0.14-0.943 0.391s-0.391 0.589-0.391 0.943c0 0.354 0.141 0.693 0.391 0.943s0.589 0.391 0.943 0.391h4.88c-0.153 0.251-0.218 0.544-0.187 0.836s0.158 0.565 0.36 0.777c0.124 0.125 0.271 0.224 0.434 0.292s0.337 0.103 0.513 0.103 0.35-0.035 0.513-0.103c0.162-0.068 0.31-0.167 0.434-0.292l2-2c0.121-0.127 0.217-0.276 0.28-0.44 0.133-0.325 0.133-0.689 0-1.013zM14.667 13.333c-1.055 0-2.086 0.313-2.963 0.899s-1.561 1.419-1.964 2.393-0.509 2.047-0.303 3.081c0.206 1.035 0.714 1.985 1.46 2.731s1.696 1.254 2.731 1.46c1.035 0.206 2.107 0.1 3.081-0.303s1.808-1.087 2.394-1.964 0.899-1.908 0.899-2.963c0-1.414-0.562-2.771-1.562-3.771s-2.357-1.562-3.771-1.562v0zM14.667 21.333c-0.527 0-1.043-0.156-1.482-0.449s-0.78-0.709-0.982-1.197c-0.202-0.487-0.255-1.023-0.152-1.541s0.357-0.993 0.73-1.365 0.848-0.627 1.365-0.73c0.517-0.103 1.053-0.050 1.541 0.152s0.904 0.544 1.197 0.982c0.293 0.439 0.449 0.954 0.449 1.481 0 0.707-0.281 1.386-0.781 1.886s-1.178 0.781-1.886 0.781zM26.667 17.333c-0.354 0-0.693 0.141-0.943 0.391s-0.391 0.589-0.391 0.943v6.667c0 0.354-0.141 0.693-0.391 0.943s-0.589 0.391-0.943 0.391h-18.667c-0.354 0-0.693-0.14-0.943-0.391s-0.391-0.589-0.391-0.943v-10.667c0-0.354 0.14-0.693 0.391-0.943s0.589-0.39 0.943-0.39h2.667c0.292 0.014 0.581-0.068 0.822-0.234s0.421-0.407 0.511-0.686l0.72-2.16c0.083-0.257 0.243-0.482 0.457-0.647s0.473-0.26 0.743-0.273h2.080c0.354 0 0.693-0.14 0.943-0.391s0.391-0.589 0.391-0.943c0-0.354-0.141-0.693-0.391-0.943s-0.589-0.391-0.943-0.391h-2.080c-0.842-0-1.662 0.265-2.345 0.758s-1.192 1.189-1.455 1.988l-0.413 1.253h-1.707c-1.061 0-2.078 0.421-2.828 1.172s-1.172 1.768-1.172 2.828v10.667c0 1.061 0.421 2.078 1.172 2.829s1.768 1.171 2.828 1.171h18.667c1.061 0 2.078-0.421 2.828-1.171s1.172-1.768 1.172-2.829v-6.667c0-0.354-0.141-0.693-0.391-0.943s-0.589-0.391-0.943-0.391z"></path>
</symbol>
<symbol id="icon-chat" viewBox="0 0 32 32">
<path d="M24.667 7.333h-5.333c-0.354 0-0.693 0.14-0.943 0.391s-0.391 0.589-0.391 0.943 0.14 0.693 0.391 0.943c0.25 0.25 0.589 0.391 0.943 0.391h5.333c0.354 0 0.693 0.14 0.943 0.391s0.391 0.589 0.391 0.943v12.96l-2.093-1.933c-0.246-0.23-0.57-0.359-0.907-0.36h-11.667c-0.354 0-0.693-0.14-0.943-0.391s-0.391-0.589-0.391-0.943v-1.333c0-0.354-0.14-0.693-0.391-0.943s-0.589-0.391-0.943-0.391c-0.354 0-0.693 0.141-0.943 0.391s-0.391 0.589-0.391 0.943v1.333c0 1.061 0.421 2.078 1.172 2.828s1.768 1.172 2.828 1.172h11.147l4 3.64c0.246 0.23 0.57 0.359 0.907 0.36 0.183-0.002 0.364-0.038 0.533-0.107 0.238-0.104 0.441-0.276 0.583-0.494s0.217-0.473 0.217-0.733v-16c0-0.53-0.105-1.054-0.31-1.543s-0.504-0.932-0.881-1.304-0.824-0.666-1.316-0.864c-0.491-0.198-1.017-0.296-1.547-0.289v0zM12.107 16.666h3.227c0.354 0 0.693-0.14 0.943-0.391s0.391-0.589 0.391-0.943v-3.227c0.001-0.175-0.033-0.349-0.099-0.512s-0.164-0.31-0.288-0.435l-7.44-7.44c-0.25-0.248-0.588-0.388-0.94-0.388s-0.69 0.139-0.94 0.388l-3.24 3.24c-0.248 0.25-0.388 0.588-0.388 0.94s0.139 0.69 0.388 0.94l7.44 7.44c0.125 0.124 0.272 0.221 0.435 0.288s0.336 0.1 0.512 0.099v0zM7.893 6.546l6.107 6.107v1.333h-1.333l-6.12-6.093 1.347-1.347z"></path>
</symbol>
<symbol id="icon-columns" viewBox="0 0 32 32">
<path d="M13.333 14.667h-9.333c-0.354 0-0.693 0.141-0.943 0.391s-0.391 0.589-0.391 0.943c0 0.354 0.14 0.693 0.391 0.943s0.589 0.391 0.943 0.391h9.333c0.354 0 0.693-0.141 0.943-0.391s0.391-0.589 0.391-0.943c0-0.354-0.141-0.693-0.391-0.943s-0.589-0.391-0.943-0.391zM13.333 25.333h-9.333c-0.354 0-0.693 0.141-0.943 0.391s-0.391 0.589-0.391 0.943c0 0.354 0.14 0.693 0.391 0.943s0.589 0.391 0.943 0.391h9.333c0.354 0 0.693-0.141 0.943-0.391s0.391-0.589 0.391-0.943c0-0.354-0.141-0.693-0.391-0.943s-0.589-0.391-0.943-0.391zM18.667 6.667h9.333c0.354 0 0.693-0.14 0.943-0.391s0.391-0.589 0.391-0.943c0-0.354-0.141-0.693-0.391-0.943s-0.589-0.391-0.943-0.391h-9.333c-0.354 0-0.693 0.14-0.943 0.391s-0.391 0.589-0.391 0.943c0 0.354 0.141 0.693 0.391 0.943s0.589 0.391 0.943 0.391v0zM13.333 9.333h-9.333c-0.354 0-0.693 0.14-0.943 0.391s-0.391 0.589-0.391 0.943c0 0.354 0.14 0.693 0.391 0.943s0.589 0.391 0.943 0.391h9.333c0.354 0 0.693-0.14 0.943-0.391s0.391-0.589 0.391-0.943c0-0.354-0.141-0.693-0.391-0.943s-0.589-0.391-0.943-0.391zM13.333 20h-9.333c-0.354 0-0.693 0.141-0.943 0.391s-0.391 0.589-0.391 0.943c0 0.354 0.14 0.693 0.391 0.943s0.589 0.391 0.943 0.391h9.333c0.354 0 0.693-0.141 0.943-0.391s0.391-0.589 0.391-0.943c0-0.354-0.141-0.693-0.391-0.943s-0.589-0.391-0.943-0.391zM13.333 4h-4c-0.354 0-0.693 0.14-0.943 0.391s-0.391 0.589-0.391 0.943c0 0.354 0.14 0.693 0.391 0.943s0.589 0.391 0.943 0.391h4c0.354 0 0.693-0.14 0.943-0.391s0.391-0.589 0.391-0.943c0-0.354-0.141-0.693-0.391-0.943s-0.589-0.391-0.943-0.391v0zM28 9.333h-9.333c-0.354 0-0.693 0.14-0.943 0.391s-0.391 0.589-0.391 0.943c0 0.354 0.141 0.693 0.391 0.943s0.589 0.391 0.943 0.391h9.333c0.354 0 0.693-0.14 0.943-0.391s0.391-0.589 0.391-0.943c0-0.354-0.141-0.693-0.391-0.943s-0.589-0.391-0.943-0.391zM28 14.667h-9.333c-0.354 0-0.693 0.141-0.943 0.391s-0.391 0.589-0.391 0.943c0 0.354 0.141 0.693 0.391 0.943s0.589 0.391 0.943 0.391h9.333c0.354 0 0.693-0.141 0.943-0.391s0.391-0.589 0.391-0.943c0-0.354-0.141-0.693-0.391-0.943s-0.589-0.391-0.943-0.391zM22.667 25.333h-4c-0.354 0-0.693 0.141-0.943 0.391s-0.391 0.589-0.391 0.943c0 0.354 0.141 0.693 0.391 0.943s0.589 0.391 0.943 0.391h4c0.354 0 0.693-0.141 0.943-0.391s0.391-0.589 0.391-0.943c0-0.354-0.141-0.693-0.391-0.943s-0.589-0.391-0.943-0.391zM28 20h-9.333c-0.354 0-0.693 0.141-0.943 0.391s-0.391 0.589-0.391 0.943c0 0.354 0.141 0.693 0.391 0.943s0.589 0.391 0.943 0.391h9.333c0.354 0 0.693-0.141 0.943-0.391s0.391-0.589 0.391-0.943c0-0.354-0.141-0.693-0.391-0.943s-0.589-0.391-0.943-0.391z"></path>
</symbol>
<symbol id="icon-fb" viewBox="0 0 32 32">
<path d="M25.107 12.587c-0.122-0.181-0.287-0.329-0.48-0.431s-0.408-0.156-0.627-0.155h-4v-2.667h2.933c0.354 0 0.693-0.14 0.943-0.391s0.391-0.589 0.391-0.943v-5.333c0-0.354-0.141-0.693-0.391-0.943s-0.589-0.391-0.943-0.391h-4.267c-2.051 0-4.018 0.815-5.468 2.265s-2.265 3.417-2.265 5.468v2.933h-2.933c-0.354 0-0.693 0.14-0.943 0.391s-0.391 0.589-0.391 0.943v5.333c0 0.354 0.14 0.693 0.391 0.943s0.589 0.391 0.943 0.391h2.933v9.333c0 0.354 0.14 0.693 0.391 0.943s0.589 0.391 0.943 0.391h6.4c0.354 0 0.693-0.141 0.943-0.391s0.391-0.589 0.391-0.943v-9.333h1.867c0.267 0 0.528-0.080 0.749-0.229s0.392-0.362 0.491-0.611l2.133-5.333c0.081-0.202 0.111-0.42 0.087-0.637s-0.099-0.423-0.221-0.603v0zM20.96 17.333h-2.293c-0.354 0-0.693 0.141-0.943 0.391s-0.391 0.589-0.391 0.943v9.333h-3.733v-9.333c0-0.354-0.141-0.693-0.391-0.943s-0.589-0.391-0.943-0.391h-2.933v-2.667h2.933c0.354 0 0.693-0.141 0.943-0.391s0.391-0.589 0.391-0.943v-4.267c0.003-1.343 0.538-2.629 1.488-3.579s2.236-1.484 3.579-1.488h2.933v2.667h-1.067c-0.451-0.066-0.912-0.038-1.352 0.081s-0.852 0.328-1.208 0.612c-0.216 0.227-0.385 0.495-0.495 0.788s-0.159 0.606-0.145 0.919v4.267c0 0.354 0.141 0.693 0.391 0.943s0.589 0.391 0.943 0.391h3.36l-1.067 2.667z"></path>
</symbol>
<symbol id="icon-google-drive" viewBox="0 0 32 32">
<path d="M29.333 19.253c0.006-0.058 0.006-0.116 0-0.173-0.005-0.053-0.005-0.107 0-0.16l-0.067-0.16-8-13.72c-0.128-0.218-0.315-0.394-0.539-0.51s-0.477-0.165-0.728-0.143h-8c-0.234-0.002-0.463 0.058-0.667 0.173l-0.147 0.107c-0.043 0.032-0.083 0.068-0.12 0.107-0.051 0.047-0.096 0.101-0.133 0.16 0 0 0 0-0.080 0.107l-8 13.773c-0.117 0.203-0.179 0.433-0.179 0.667s0.062 0.464 0.179 0.667l4 6.773c0.041 0.072 0.090 0.139 0.147 0.2v0.080c0.166 0.16 0.367 0.279 0.587 0.347v0c0.097 0.013 0.196 0.013 0.293 0h16.12c0.231-0 0.459-0.060 0.66-0.175s0.369-0.279 0.487-0.478l4-6.853 0.067-0.16c-0.005-0.053-0.005-0.107 0-0.16 0.007-0.058 0.007-0.116 0-0.173 0.007-0.058 0.007-0.116 0-0.173 0.044-0.036 0.084-0.076 0.12-0.12v0zM8 23.64l-2.387-4.133 6.387-11.147 1.16 2 1.333 2.213-5.16 8.64-1.333 2.427zM16 15.213l1.68 2.88h-3.387l1.707-2.88zM23.24 24.947h-12.973l2.453-4.187h12.96l-2.44 4.187zM20.76 18.093l-6.44-11.040h4.92l6.44 11.040h-4.92z"></path>
</symbol>
<symbol id="icon-grid" viewBox="0 0 32 32">
<path d="M13.333 17.333h-9.333c-0.354 0-0.693 0.141-0.943 0.391s-0.391 0.589-0.391 0.943v9.333c0 0.354 0.14 0.693 0.391 0.943s0.589 0.391 0.943 0.391h9.333c0.354 0 0.693-0.141 0.943-0.391s0.391-0.589 0.391-0.943v-9.333c0-0.354-0.141-0.693-0.391-0.943s-0.589-0.391-0.943-0.391zM12 26.667h-6.667v-6.667h6.667v6.667zM28 2.667h-9.333c-0.354 0-0.693 0.14-0.943 0.391s-0.391 0.589-0.391 0.943v9.333c0 0.354 0.141 0.693 0.391 0.943s0.589 0.391 0.943 0.391h9.333c0.354 0 0.693-0.141 0.943-0.391s0.391-0.589 0.391-0.943v-9.333c0-0.354-0.141-0.693-0.391-0.943s-0.589-0.391-0.943-0.391v0zM26.667 12h-6.667v-6.667h6.667v6.667zM28 17.333h-9.333c-0.354 0-0.693 0.141-0.943 0.391s-0.391 0.589-0.391 0.943v9.333c0 0.354 0.141 0.693 0.391 0.943s0.589 0.391 0.943 0.391h9.333c0.354 0 0.693-0.141 0.943-0.391s0.391-0.589 0.391-0.943v-9.333c0-0.354-0.141-0.693-0.391-0.943s-0.589-0.391-0.943-0.391zM26.667 26.667h-6.667v-6.667h6.667v6.667zM13.333 2.667h-9.333c-0.354 0-0.693 0.14-0.943 0.391s-0.391 0.589-0.391 0.943v9.333c0 0.354 0.14 0.693 0.391 0.943s0.589 0.391 0.943 0.391h9.333c0.354 0 0.693-0.141 0.943-0.391s0.391-0.589 0.391-0.943v-9.333c0-0.354-0.141-0.693-0.391-0.943s-0.589-0.391-0.943-0.391v0zM12 12h-6.667v-6.667h6.667v6.667z"></path>
</symbol>
<symbol id="icon-instagram" viewBox="0 0 32 32">
<path d="M23.12 7.28c-0.316 0-0.626 0.094-0.889 0.27s-0.468 0.426-0.589 0.718c-0.121 0.292-0.153 0.614-0.091 0.924s0.214 0.595 0.438 0.819c0.224 0.224 0.509 0.376 0.819 0.438s0.632 0.030 0.924-0.091c0.292-0.121 0.542-0.326 0.718-0.589s0.27-0.572 0.27-0.889c0-0.424-0.169-0.831-0.469-1.131s-0.707-0.469-1.131-0.469v0zM29.253 10.507c-0.026-1.106-0.233-2.201-0.613-3.24-0.339-0.889-0.867-1.694-1.547-2.36-0.66-0.683-1.467-1.208-2.36-1.533-1.036-0.392-2.132-0.604-3.24-0.627-1.413-0.080-1.867-0.080-5.493-0.080s-4.080 0-5.493 0.080c-1.108 0.023-2.204 0.235-3.24 0.627-0.891 0.329-1.697 0.853-2.36 1.533-0.683 0.66-1.208 1.467-1.533 2.36-0.392 1.036-0.604 2.132-0.627 3.24-0.080 1.413-0.080 1.867-0.080 5.493s0 4.080 0.080 5.493c0.023 1.108 0.235 2.204 0.627 3.24 0.326 0.893 0.85 1.7 1.533 2.36 0.663 0.681 1.469 1.205 2.36 1.533 1.036 0.392 2.132 0.604 3.24 0.627 1.413 0.080 1.867 0.080 5.493 0.080s4.080 0 5.493-0.080c1.108-0.023 2.204-0.235 3.24-0.627 0.893-0.326 1.7-0.85 2.36-1.533 0.683-0.663 1.211-1.469 1.547-2.36 0.38-1.039 0.587-2.134 0.613-3.24 0-1.413 0.080-1.867 0.080-5.493s0-4.080-0.080-5.493v0zM26.853 21.333c-0.010 0.846-0.163 1.685-0.453 2.48-0.213 0.58-0.555 1.105-1 1.533-0.433 0.441-0.956 0.782-1.533 1-0.795 0.29-1.634 0.444-2.48 0.453-1.333 0.067-1.827 0.080-5.333 0.080s-4 0-5.333-0.080c-0.879 0.016-1.754-0.119-2.587-0.4-0.552-0.229-1.052-0.57-1.467-1-0.443-0.428-0.78-0.953-0.987-1.533-0.326-0.806-0.506-1.664-0.533-2.533 0-1.333-0.080-1.827-0.080-5.333s0-4 0.080-5.333c0.006-0.865 0.164-1.723 0.467-2.533 0.235-0.563 0.595-1.064 1.053-1.467 0.405-0.458 0.906-0.823 1.467-1.067 0.813-0.293 1.669-0.447 2.533-0.453 1.333 0 1.827-0.080 5.333-0.080s4 0 5.333 0.080c0.846 0.010 1.685 0.163 2.48 0.453 0.606 0.225 1.15 0.59 1.587 1.067 0.437 0.41 0.778 0.91 1 1.467 0.296 0.812 0.45 1.669 0.453 2.533 0.067 1.333 0.080 1.827 0.080 5.333s-0.013 4-0.080 5.333zM16 9.16c-1.352 0.003-2.673 0.406-3.796 1.159s-1.998 1.822-2.513 3.072c-0.516 1.25-0.649 2.625-0.384 3.951s0.918 2.543 1.875 3.499c0.957 0.955 2.176 1.605 3.502 1.868s2.701 0.127 3.95-0.391c1.249-0.518 2.317-1.395 3.067-2.519s1.152-2.446 1.152-3.799c0.002-0.9-0.174-1.791-0.518-2.623s-0.849-1.587-1.486-2.223-1.393-1.139-2.225-1.482c-0.832-0.342-1.724-0.517-2.624-0.513v0zM16 20.44c-0.878 0-1.737-0.26-2.467-0.748s-1.299-1.181-1.635-1.993c-0.336-0.811-0.424-1.704-0.253-2.565s0.594-1.652 1.215-2.273c0.621-0.621 1.412-1.044 2.273-1.215s1.754-0.083 2.565 0.253c0.811 0.336 1.505 0.905 1.993 1.635s0.748 1.589 0.748 2.467c0 0.583-0.115 1.16-0.338 1.699s-0.55 1.028-0.962 1.441c-0.412 0.412-0.902 0.739-1.441 0.962s-1.116 0.338-1.699 0.338v0z"></path>
</symbol>
<symbol id="icon-internet" viewBox="0 0 32 32">
<path d="M28.547 11.52c0 0 0 0 0-0.067-0.94-2.565-2.644-4.78-4.883-6.344s-4.905-2.404-7.637-2.404c-2.732 0-5.397 0.839-7.637 2.404s-3.944 3.779-4.883 6.344c0 0 0 0 0 0.067-1.049 2.894-1.049 6.065 0 8.96 0 0 0 0 0 0.067 0.939 2.565 2.644 4.78 4.883 6.344s4.905 2.404 7.637 2.404c2.732 0 5.397-0.839 7.637-2.404s3.944-3.779 4.883-6.344c0 0 0 0 0-0.067 1.049-2.895 1.049-6.065 0-8.96v0zM5.68 18.667c-0.462-1.748-0.462-3.586 0-5.333h2.48c-0.213 1.771-0.213 3.562 0 5.333h-2.48zM6.773 21.333h1.867c0.313 1.189 0.76 2.339 1.333 3.427-1.308-0.891-2.401-2.061-3.2-3.427zM8.64 10.667h-1.867c0.788-1.361 1.867-2.531 3.16-3.427-0.559 1.090-0.993 2.239-1.293 3.427v0zM14.667 26.267c-1.638-1.202-2.788-2.953-3.24-4.933h3.24v4.933zM14.667 18.667h-3.813c-0.249-1.769-0.249-3.564 0-5.333h3.813v5.333zM14.667 10.667h-3.24c0.452-1.98 1.602-3.732 3.24-4.933v4.933zM25.227 10.667h-1.867c-0.313-1.189-0.76-2.339-1.333-3.427 1.308 0.891 2.401 2.061 3.2 3.427zM17.333 5.734c1.638 1.202 2.788 2.953 3.24 4.933h-3.24v-4.933zM17.333 26.267v-4.933h3.24c-0.452 1.98-1.602 3.732-3.24 4.933v0zM21.147 18.667h-3.813v-5.333h3.813c0.249 1.769 0.249 3.564 0 5.333zM22.067 24.76c0.573-1.088 1.020-2.237 1.333-3.427h1.867c-0.799 1.365-1.892 2.536-3.2 3.427zM26.32 18.667h-2.48c0.108-0.885 0.162-1.775 0.16-2.667 0.001-0.891-0.052-1.782-0.16-2.667h2.48c0.462 1.748 0.462 3.586 0 5.333z"></path>
</symbol>
<symbol id="icon-location" viewBox="0 0 32 32">
<path d="M24 5.973c-2.122-2.122-4.999-3.314-8-3.314s-5.878 1.192-8 3.314-3.314 4.999-3.314 8c0 3.001 1.192 5.878 3.314 8l7.027 7.040c0.124 0.125 0.271 0.224 0.434 0.292s0.337 0.103 0.513 0.103 0.35-0.035 0.513-0.103c0.163-0.068 0.31-0.167 0.434-0.292l7.080-7.107c2.113-2.113 3.3-4.979 3.3-7.967s-1.187-5.854-3.3-7.967v0zM22.093 20l-6.093 6.12-6.093-6.12c-1.204-1.205-2.023-2.74-2.355-4.41s-0.161-3.402 0.491-4.975c0.652-1.573 1.756-2.918 3.172-3.864s3.081-1.451 4.784-1.451c1.703 0 3.368 0.505 4.785 1.451s2.52 2.291 3.172 3.864c0.652 1.573 0.823 3.305 0.491 4.975s-1.151 3.205-2.355 4.41v0zM12 9.88c-1.076 1.080-1.681 2.542-1.681 4.067s0.604 2.987 1.681 4.067c0.8 0.801 1.818 1.348 2.928 1.573s2.26 0.116 3.309-0.311c1.048-0.427 1.947-1.155 2.583-2.091s0.982-2.039 0.994-3.171c0.006-0.756-0.139-1.505-0.428-2.203s-0.714-1.332-1.252-1.863c-0.528-0.541-1.159-0.971-1.854-1.267s-1.443-0.452-2.199-0.458c-0.756-0.006-1.506 0.137-2.206 0.422s-1.337 0.705-1.875 1.237v0zM18.253 16.12c-0.505 0.513-1.173 0.835-1.889 0.91s-1.436-0.101-2.037-0.498c-0.601-0.397-1.045-0.99-1.257-1.678s-0.178-1.429 0.096-2.095c0.274-0.666 0.77-1.216 1.405-1.557s1.368-0.45 2.074-0.309c0.706 0.14 1.342 0.522 1.798 1.079s0.705 1.255 0.703 1.975c-0.019 0.823-0.365 1.605-0.96 2.173h0.067z"></path>
</symbol>
<symbol id="icon-mail" viewBox="0 0 32 32">
<path d="M21.72 11.614c0.124 0.125 0.271 0.224 0.434 0.292s0.337 0.103 0.513 0.103 0.35-0.035 0.513-0.103c0.162-0.068 0.31-0.167 0.434-0.292l5.333-5.333c0.251-0.251 0.392-0.592 0.392-0.947s-0.141-0.696-0.392-0.947c-0.251-0.251-0.592-0.392-0.947-0.392s-0.696 0.141-0.947 0.392l-4.387 4.4-1.72-1.733c-0.124-0.124-0.272-0.223-0.434-0.29s-0.336-0.102-0.512-0.102c-0.355 0-0.696 0.141-0.947 0.392-0.124 0.124-0.223 0.272-0.29 0.434s-0.102 0.337-0.102 0.512c0 0.355 0.141 0.696 0.392 0.947l2.667 2.667zM28 10.667c-0.354 0-0.693 0.14-0.943 0.391s-0.391 0.589-0.391 0.943v12c0 0.354-0.141 0.693-0.391 0.943s-0.589 0.391-0.943 0.391h-18.667c-0.354 0-0.693-0.141-0.943-0.391s-0.391-0.589-0.391-0.943v-12.787l7.84 7.853c0.748 0.742 1.759 1.159 2.813 1.16 1.081-0.006 2.115-0.437 2.88-1.2l2.293-2.293c0.251-0.251 0.392-0.592 0.392-0.947s-0.141-0.696-0.392-0.947c-0.251-0.251-0.592-0.392-0.947-0.392s-0.696 0.141-0.947 0.392l-2.333 2.333c-0.249 0.244-0.584 0.381-0.933 0.381s-0.684-0.137-0.933-0.381l-7.853-7.84h7.453c0.354 0 0.693-0.14 0.943-0.391s0.391-0.589 0.391-0.943c0-0.354-0.141-0.693-0.391-0.943s-0.589-0.391-0.943-0.391h-8c-1.061 0-2.078 0.421-2.828 1.172s-1.172 1.768-1.172 2.828v13.333c0 1.061 0.421 2.078 1.172 2.828s1.768 1.172 2.828 1.172h18.667c1.061 0 2.078-0.421 2.828-1.172s1.172-1.768 1.172-2.828v-12c0-0.354-0.141-0.693-0.391-0.943s-0.589-0.391-0.943-0.391z"></path>
</symbol>
<symbol id="icon-off" viewBox="0 0 32 32">
<path d="M30 16c0 7.732-6.268 14-14 14s-14-6.268-14-14c0-3.408 1.226-6.523 3.25-8.95 0.154-0.284 0.368-0.531 0.635-0.71 0.045-0.047 0.085-0.1 0.131-0.146 0.001 0.023 0.011 0.045 0.013 0.068 0.289-0.162 0.617-0.262 0.971-0.262 1.104 0 2 0.896 2 2 0 0.696-0.355 1.308-0.895 1.666 0.035 0.026 0.060 0.058 0.096 0.084-1.375 1.712-2.201 3.883-2.201 6.25 0 5.523 4.477 10 10 10s10-4.477 10-10c0-2.367-0.826-4.538-2.201-6.25 0.036-0.026 0.062-0.058 0.096-0.084-0.54-0.358-0.895-0.97-0.895-1.666 0-1.104 0.896-2 2-2 0.354 0 0.682 0.1 0.971 0.262 0.002-0.023 0.012-0.045 0.014-0.068 0.045 0.046 0.085 0.099 0.131 0.146 0.267 0.179 0.48 0.426 0.635 0.71 2.022 2.427 3.249 5.542 3.249 8.95zM17 18h-2c-0.553 0-1-0.447-1-1v-14c0-0.552 0.447-1 1-1h2c0.553 0 1 0.448 1 1v14c0 0.553-0.447 1-1 1z"></path>
</symbol>
<symbol id="icon-photo" viewBox="0 0 32 32">
<path d="M25.333 8.667h-1.707l-0.427-1.333c-0.277-0.782-0.79-1.459-1.468-1.937s-1.489-0.733-2.319-0.73h-6.827c-0.838 0.002-1.654 0.266-2.334 0.757s-1.188 1.182-1.453 1.977l-0.427 1.333h-1.707c-1.061 0-2.078 0.421-2.828 1.172s-1.172 1.768-1.172 2.828v10.667c0 1.061 0.421 2.078 1.172 2.828s1.768 1.172 2.828 1.172h18.667c1.061 0 2.078-0.421 2.828-1.172s1.172-1.767 1.172-2.828v-10.667c0.009-0.531-0.088-1.058-0.285-1.551s-0.49-0.942-0.863-1.32-0.816-0.679-1.306-0.884c-0.49-0.205-1.015-0.311-1.546-0.311zM26.667 23.333c0 0.354-0.141 0.693-0.391 0.943s-0.589 0.391-0.943 0.391h-18.667c-0.354 0-0.693-0.14-0.943-0.391s-0.391-0.589-0.391-0.943v-10.667c0-0.354 0.14-0.693 0.391-0.943s0.589-0.391 0.943-0.391h2.667c0.291 0.015 0.578-0.065 0.819-0.229s0.421-0.402 0.514-0.678l0.72-2.187c0.089-0.265 0.26-0.495 0.487-0.658s0.5-0.25 0.78-0.249h6.827c0.279-0.001 0.552 0.086 0.779 0.249s0.398 0.393 0.487 0.658l0.72 2.187c0.086 0.254 0.246 0.477 0.46 0.639s0.472 0.255 0.74 0.268h2.667c0.354 0 0.693 0.14 0.943 0.391s0.391 0.589 0.391 0.943v10.667zM16 11.333c-1.055 0-2.086 0.313-2.963 0.899s-1.561 1.419-1.964 2.394c-0.404 0.975-0.509 2.047-0.303 3.081s0.714 1.985 1.46 2.731c0.746 0.746 1.696 1.254 2.731 1.46s2.107 0.1 3.081-0.304c0.975-0.404 1.808-1.087 2.394-1.964s0.899-1.908 0.899-2.963c0-1.414-0.562-2.771-1.562-3.771s-2.357-1.562-3.771-1.562v0zM16 19.333c-0.527 0-1.043-0.156-1.481-0.449s-0.78-0.71-0.982-1.197c-0.202-0.487-0.255-1.023-0.152-1.541s0.357-0.992 0.73-1.365 0.848-0.627 1.365-0.73c0.517-0.103 1.053-0.050 1.541 0.152s0.904 0.544 1.197 0.982c0.293 0.439 0.449 0.954 0.449 1.481 0 0.707-0.281 1.386-0.781 1.886s-1.178 0.781-1.886 0.781z"></path>
</symbol>
<symbol id="icon-play" viewBox="0 0 32 32">
<path d="M24.72 12l-12.88-7.387c-0.697-0.402-1.488-0.613-2.293-0.611s-1.595 0.217-2.289 0.624c-0.695 0.406-1.27 0.989-1.666 1.69s-0.601 1.493-0.592 2.298v14.827c0 1.209 0.48 2.369 1.336 3.224s2.015 1.336 3.224 1.336c0.801-0.001 1.587-0.213 2.28-0.613l12.88-7.387c0.692-0.401 1.267-0.976 1.666-1.669s0.61-1.478 0.61-2.278-0.21-1.585-0.61-2.278c-0.399-0.693-0.974-1.268-1.666-1.669v-0.107zM23.387 17.586l-12.88 7.493c-0.289 0.164-0.615 0.25-0.947 0.25s-0.658-0.086-0.947-0.25c-0.288-0.166-0.527-0.405-0.693-0.693s-0.254-0.614-0.254-0.947v-14.88c-0-0.332 0.087-0.659 0.254-0.947s0.405-0.527 0.693-0.693c0.29-0.161 0.615-0.248 0.947-0.253 0.331 0.007 0.656 0.094 0.947 0.253l12.88 7.44c0.288 0.166 0.527 0.405 0.693 0.693s0.254 0.614 0.254 0.947c0 0.332-0.088 0.659-0.254 0.947s-0.405 0.527-0.693 0.693v-0.053z"></path>
</symbol>
<symbol id="icon-shopping-bag" viewBox="0 0 32 32">
<path d="M25.333 9.333h-4v-1.333c0-1.415-0.562-2.771-1.562-3.771s-2.357-1.562-3.771-1.562-2.771 0.562-3.771 1.562c-1 1-1.562 2.357-1.562 3.771v1.333h-4c-0.354 0-0.693 0.14-0.943 0.391s-0.391 0.589-0.391 0.943v14.667c0 1.061 0.421 2.078 1.172 2.828s1.768 1.172 2.828 1.172h13.333c1.061 0 2.078-0.421 2.828-1.172s1.172-1.768 1.172-2.828v-14.667c0-0.354-0.141-0.693-0.391-0.943s-0.589-0.391-0.943-0.391zM13.333 8c0-0.707 0.281-1.386 0.781-1.886s1.178-0.781 1.886-0.781c0.707 0 1.385 0.281 1.886 0.781s0.781 1.178 0.781 1.886v1.333h-5.333v-1.333zM24 25.333c0 0.354-0.141 0.693-0.391 0.943s-0.589 0.391-0.943 0.391h-13.333c-0.354 0-0.693-0.141-0.943-0.391s-0.391-0.589-0.391-0.943v-13.333h2.667v1.333c0 0.354 0.14 0.693 0.391 0.943s0.589 0.391 0.943 0.391c0.354 0 0.693-0.141 0.943-0.391s0.391-0.589 0.391-0.943v-1.333h5.333v1.333c0 0.354 0.141 0.693 0.391 0.943s0.589 0.391 0.943 0.391c0.354 0 0.693-0.141 0.943-0.391s0.391-0.589 0.391-0.943v-1.333h2.667v13.333z"></path>
</symbol>
<symbol id="icon-spinner" viewBox="0 0 32 32">
<path d="M16 0c-8.711 0-15.796 6.961-15.995 15.624 0.185-7.558 5.932-13.624 12.995-13.624 7.18 0 13 6.268 13 14 0 1.657 1.343 3 3 3s3-1.343 3-3c0-8.837-7.163-16-16-16zM16 32c8.711 0 15.796-6.961 15.995-15.624-0.185 7.558-5.932 13.624-12.995 13.624-7.18 0-13-6.268-13-14 0-1.657-1.343-3-3-3s-3 1.343-3 3c0 8.837 7.163 16 16 16z"></path>
</symbol>
<symbol id="icon-telegram" viewBox="0 0 32 32">
<path d="M29.686 3.237c-0.38-0.316-0.838-0.523-1.326-0.599s-0.987-0.019-1.445 0.167l-23.895 9.647c-0.511 0.21-0.946 0.571-1.247 1.034s-0.454 1.007-0.439 1.559c0.015 0.552 0.198 1.087 0.524 1.533s0.78 0.782 1.302 0.964l4.833 1.681 2.694 8.909c0.037 0.119 0.090 0.232 0.158 0.336 0.010 0.016 0.025 0.028 0.036 0.043 0.079 0.11 0.174 0.207 0.282 0.288 0.031 0.023 0.060 0.045 0.093 0.066 0.127 0.084 0.267 0.145 0.414 0.181l0.016 0.001 0.009 0.004c0.089 0.018 0.179 0.027 0.27 0.027 0.009 0 0.016-0.004 0.025-0.004 0.137-0.002 0.272-0.026 0.401-0.070 0.030-0.010 0.056-0.027 0.085-0.040 0.097-0.040 0.188-0.091 0.272-0.153 0.068-0.057 0.135-0.114 0.203-0.171l3.603-3.978 5.374 4.163c0.473 0.368 1.055 0.569 1.655 0.569 0.628-0.001 1.237-0.218 1.725-0.614s0.824-0.948 0.953-1.563l4.35-21.355c0.099-0.481 0.065-0.979-0.098-1.442s-0.448-0.873-0.826-1.186v0zM12.494 19.649c-0.185 0.184-0.311 0.419-0.363 0.674l-0.413 2.005-1.045-3.457 5.42-2.823-3.599 3.6zM23.563 26.72l-6.35-4.919c-0.266-0.205-0.599-0.303-0.933-0.273s-0.646 0.184-0.871 0.432l-1.154 1.274 0.408-1.982 9.444-9.444c0.225-0.225 0.363-0.524 0.387-0.841s-0.066-0.634-0.254-0.89c-0.188-0.257-0.463-0.438-0.773-0.51s-0.636-0.031-0.919 0.117l-13.554 7.057-4.966-1.817 23.971-9.59-4.436 21.388z"></path>
</symbol>
<symbol id="icon-twitter" viewBox="0 0 32 32">
<path d="M30.655 5.267c0-0.236-0.062-0.467-0.181-0.67s-0.289-0.372-0.493-0.489-0.437-0.177-0.672-0.174c-0.235 0.002-0.466 0.067-0.669 0.188-0.78 0.465-1.621 0.82-2.497 1.057-1.252-1.074-2.849-1.662-4.499-1.656-1.81 0.002-3.548 0.707-4.848 1.967s-2.059 2.975-2.117 4.784c-3.568-0.569-6.802-2.431-9.085-5.232-0.138-0.167-0.313-0.298-0.512-0.383s-0.415-0.12-0.631-0.104c-0.216 0.018-0.423 0.088-0.606 0.204s-0.334 0.275-0.441 0.463c-0.55 0.96-0.866 2.036-0.922 3.14s0.149 2.207 0.599 3.218l-0.003 0.003c-0.202 0.125-0.369 0.299-0.485 0.506s-0.176 0.441-0.175 0.679c-0.002 0.196 0.009 0.392 0.035 0.586 0.136 1.678 0.88 3.248 2.091 4.417-0.082 0.157-0.132 0.328-0.148 0.504s0.005 0.354 0.059 0.522c0.528 1.645 1.651 3.035 3.15 3.896-1.522 0.589-3.166 0.794-4.786 0.598-0.3-0.038-0.604 0.028-0.862 0.185s-0.454 0.398-0.558 0.683c-0.103 0.284-0.107 0.595-0.010 0.881s0.288 0.531 0.542 0.695c2.787 1.795 6.032 2.749 9.346 2.749 3.759 0.042 7.427-1.159 10.432-3.417s5.181-5.446 6.187-9.068c0.471-1.578 0.711-3.215 0.714-4.862 0-0.087 0-0.177-0.001-0.267 0.696-0.751 1.235-1.633 1.586-2.595s0.506-1.984 0.457-3.007v0zM26.246 9.55c-0.22 0.26-0.332 0.596-0.311 0.936 0.013 0.22 0.012 0.441 0.012 0.65-0.003 1.391-0.207 2.775-0.605 4.108-0.822 3.082-2.654 5.799-5.204 7.715s-5.668 2.923-8.857 2.856c-1.146 0-2.287-0.134-3.401-0.401 1.421-0.458 2.749-1.164 3.923-2.085 0.216-0.17 0.375-0.403 0.453-0.667s0.074-0.546-0.014-0.807c-0.088-0.261-0.254-0.488-0.477-0.651s-0.489-0.252-0.764-0.257c-1.108-0.017-2.167-0.464-2.952-1.246 0.199-0.038 0.397-0.085 0.594-0.141 0.288-0.082 0.54-0.259 0.716-0.501s0.264-0.537 0.252-0.836-0.125-0.586-0.32-0.813c-0.195-0.227-0.461-0.383-0.754-0.441-0.643-0.127-1.249-0.401-1.769-0.8s-0.942-0.913-1.231-1.501c0.241 0.033 0.483 0.053 0.727 0.061 0.289 0.004 0.571-0.083 0.807-0.25s0.412-0.405 0.504-0.678c0.088-0.276 0.083-0.574-0.013-0.847s-0.279-0.508-0.521-0.668c-0.586-0.391-1.067-0.921-1.398-1.543s-0.503-1.316-0.5-2.021c0-0.089 0.003-0.177 0.008-0.264 2.988 2.787 6.864 4.43 10.945 4.639 0.206 0.008 0.411-0.031 0.6-0.113s0.356-0.207 0.49-0.364c0.132-0.159 0.226-0.346 0.273-0.546s0.048-0.41 0.001-0.611c-0.076-0.318-0.115-0.644-0.116-0.971 0.001-1.141 0.455-2.234 1.261-3.041s1.9-1.26 3.041-1.261c0.587-0.002 1.168 0.119 1.706 0.353s1.022 0.577 1.421 1.008c0.154 0.165 0.347 0.289 0.562 0.358s0.444 0.083 0.666 0.039c0.548-0.107 1.087-0.25 1.616-0.43-0.36 0.737-0.821 1.421-1.369 2.032v0z"></path>
</symbol>
<symbol id="icon-upload-image" viewBox="0 0 32 32">
<path d="M25.333 17.333c-0.354 0-0.693 0.141-0.943 0.391s-0.391 0.589-0.391 0.943v0.507l-1.973-1.973c-0.697-0.691-1.639-1.079-2.62-1.079s-1.923 0.388-2.62 1.079l-0.933 0.933-3.307-3.307c-0.707-0.673-1.645-1.048-2.62-1.048s-1.913 0.375-2.62 1.048l-1.973 1.973v-7.467c0-0.354 0.14-0.693 0.391-0.943s0.589-0.391 0.943-0.391h9.333c0.354 0 0.693-0.14 0.943-0.391s0.391-0.589 0.391-0.943c0-0.354-0.141-0.693-0.391-0.943s-0.589-0.391-0.943-0.391h-9.333c-1.061 0-2.078 0.421-2.828 1.172s-1.172 1.768-1.172 2.828v16c0 1.061 0.421 2.078 1.172 2.828s1.768 1.172 2.828 1.172h16c1.061 0 2.078-0.421 2.828-1.172s1.172-1.768 1.172-2.828v-6.667c0-0.354-0.141-0.693-0.391-0.943s-0.589-0.391-0.943-0.391zM6.667 26.667c-0.354 0-0.693-0.141-0.943-0.391s-0.391-0.589-0.391-0.943v-4.76l3.867-3.867c0.196-0.187 0.456-0.291 0.727-0.291s0.531 0.104 0.727 0.291l9.96 9.96h-13.947zM24 25.333c-0.002 0.255-0.086 0.503-0.24 0.707l-6.013-6.040 0.933-0.933c0.096-0.098 0.21-0.175 0.336-0.228s0.261-0.080 0.398-0.080c0.137 0 0.272 0.027 0.398 0.080s0.24 0.13 0.336 0.228l3.853 3.88v2.387zM30.28 5.72l-4-4c-0.127-0.121-0.276-0.217-0.44-0.28-0.325-0.133-0.689-0.133-1.013 0-0.164 0.063-0.313 0.159-0.44 0.28l-4 4c-0.124 0.124-0.223 0.272-0.29 0.434s-0.102 0.337-0.102 0.512c0 0.355 0.141 0.696 0.392 0.947s0.592 0.392 0.947 0.392c0.355 0 0.696-0.141 0.947-0.392l1.72-1.733v7.453c0 0.354 0.141 0.693 0.391 0.943s0.589 0.391 0.943 0.391c0.354 0 0.693-0.141 0.943-0.391s0.391-0.589 0.391-0.943v-7.453l1.72 1.733c0.124 0.125 0.271 0.224 0.434 0.292s0.337 0.103 0.513 0.103 0.35-0.035 0.513-0.103c0.162-0.068 0.31-0.167 0.434-0.292s0.224-0.271 0.292-0.434 0.103-0.337 0.103-0.513c0-0.176-0.035-0.35-0.103-0.513s-0.167-0.31-0.292-0.434v0z"></path>
</symbol>
<symbol id="icon-users" viewBox="0 0 32 32">
<path d="M16.4 16.293c0.711-0.616 1.282-1.377 1.673-2.233s0.593-1.786 0.593-2.727c0-1.768-0.702-3.464-1.953-4.714s-2.946-1.953-4.714-1.953-3.464 0.702-4.714 1.953c-1.25 1.25-1.953 2.946-1.953 4.714 0 0.941 0.202 1.871 0.593 2.727s0.962 1.617 1.673 2.233c-1.866 0.845-3.45 2.21-4.561 3.931s-1.703 3.726-1.705 5.775c0 0.354 0.14 0.693 0.391 0.943s0.589 0.391 0.943 0.391c0.354 0 0.693-0.141 0.943-0.391s0.391-0.589 0.391-0.943c0-2.122 0.843-4.157 2.343-5.657s3.535-2.343 5.657-2.343 4.157 0.843 5.657 2.343c1.5 1.5 2.343 3.535 2.343 5.657 0 0.354 0.141 0.693 0.391 0.943s0.589 0.391 0.943 0.391c0.354 0 0.693-0.141 0.943-0.391s0.391-0.589 0.391-0.943c-0.002-2.049-0.594-4.054-1.705-5.775s-2.695-3.086-4.561-3.931v0zM12 15.333c-0.791 0-1.564-0.235-2.222-0.674s-1.171-1.064-1.473-1.795c-0.303-0.731-0.382-1.535-0.228-2.311s0.535-1.489 1.095-2.048c0.559-0.559 1.272-0.94 2.048-1.095s1.58-0.075 2.311 0.228c0.731 0.303 1.356 0.815 1.795 1.473s0.674 1.431 0.674 2.222c0 1.061-0.421 2.078-1.172 2.828s-1.768 1.172-2.828 1.172zM24.987 15.76c0.853-0.961 1.411-2.148 1.605-3.418s0.017-2.57-0.509-3.742c-0.527-1.172-1.381-2.167-2.46-2.865s-2.337-1.069-3.622-1.069c-0.354 0-0.693 0.14-0.943 0.391s-0.391 0.589-0.391 0.943c0 0.354 0.141 0.693 0.391 0.943s0.589 0.391 0.943 0.391c1.061 0 2.078 0.421 2.828 1.172s1.172 1.768 1.172 2.828c-0.002 0.7-0.188 1.388-0.539 1.994s-0.855 1.109-1.461 1.459c-0.198 0.114-0.363 0.277-0.479 0.473s-0.181 0.419-0.187 0.647c-0.006 0.226 0.047 0.45 0.152 0.651s0.259 0.371 0.448 0.496l0.52 0.347 0.173 0.093c1.607 0.762 2.963 1.968 3.908 3.475s1.439 3.253 1.425 5.032c0 0.354 0.141 0.693 0.391 0.943s0.589 0.391 0.943 0.391c0.354 0 0.693-0.141 0.943-0.391s0.391-0.589 0.391-0.943c0.011-2.046-0.502-4.061-1.489-5.853s-2.416-3.302-4.151-4.387v0z"></path>
</symbol>
<symbol id="icon-youtube" viewBox="0 0 32 32">
<path d="M20.533 14.88l-6.533-4.213c-0.203-0.117-0.433-0.179-0.667-0.179s-0.464 0.062-0.667 0.179c-0.198 0.114-0.363 0.277-0.48 0.473s-0.181 0.419-0.187 0.647v8.427c0.002 0.238 0.067 0.471 0.189 0.674s0.296 0.372 0.505 0.486c0.194 0.114 0.415 0.174 0.64 0.173 0.236-0.016 0.465-0.089 0.667-0.213l6.533-4.213c0.187-0.121 0.341-0.287 0.447-0.482s0.162-0.415 0.162-0.638c0-0.223-0.056-0.442-0.162-0.638s-0.26-0.361-0.447-0.482zM14.667 17.76v-3.52l2.667 1.76-2.667 1.76zM25.84 6.013l-2.067-0.267c-5.119-0.627-10.295-0.627-15.413 0l-2.067 0.267c-0.994 0.108-1.913 0.579-2.582 1.321s-1.041 1.706-1.045 2.705v11.92c0.008 0.985 0.374 1.933 1.029 2.669s1.554 1.209 2.531 1.331l2.067 0.253c2.557 0.311 5.131 0.462 7.707 0.453 2.576 0 5.15-0.16 7.707-0.48l2.067-0.253c0.977-0.123 1.877-0.596 2.531-1.331s1.020-1.684 1.029-2.669v-11.893c-0.002-0.989-0.365-1.944-1.020-2.685s-1.558-1.218-2.54-1.341h0.067zM26.733 22.013c0.001 0.336-0.125 0.66-0.352 0.907s-0.54 0.399-0.875 0.426l-2.067 0.253c-4.896 0.613-9.85 0.613-14.747 0l-2.067-0.253c-0.335-0.027-0.647-0.179-0.875-0.426s-0.353-0.571-0.352-0.907v-11.973c0.016-0.331 0.147-0.645 0.372-0.889s0.527-0.401 0.855-0.444l2-0.307c4.897-0.604 9.85-0.604 14.747 0l2.067 0.253c0.328 0.043 0.631 0.201 0.855 0.444s0.356 0.558 0.372 0.889l0.067 12.027z"></path>
</symbol>
<symbol id="icon-zoom-in" viewBox="0 0 32 32">
<path d="M20 13.333h-4v-4c0-0.354-0.141-0.693-0.391-0.943s-0.589-0.391-0.943-0.391c-0.354 0-0.693 0.14-0.943 0.391s-0.391 0.589-0.391 0.943v4h-4c-0.354 0-0.693 0.141-0.943 0.391s-0.391 0.589-0.391 0.943c0 0.354 0.14 0.693 0.391 0.943s0.589 0.391 0.943 0.391h4v4c0 0.354 0.141 0.693 0.391 0.943s0.589 0.391 0.943 0.391c0.354 0 0.693-0.141 0.943-0.391s0.391-0.589 0.391-0.943v-4h4c0.354 0 0.693-0.141 0.943-0.391s0.391-0.589 0.391-0.943c0-0.354-0.141-0.693-0.391-0.943s-0.589-0.391-0.943-0.391zM28.947 27.053l-4.947-4.907c1.92-2.394 2.85-5.433 2.598-8.492s-1.665-5.905-3.951-7.953c-2.285-2.048-5.269-3.143-8.337-3.059s-5.987 1.34-8.157 3.51-3.426 5.089-3.51 8.157c-0.084 3.068 1.011 6.051 3.059 8.337s4.894 3.699 7.953 3.951 6.097-0.678 8.492-2.598l4.907 4.907c0.124 0.125 0.271 0.224 0.434 0.292s0.337 0.103 0.513 0.103 0.35-0.035 0.513-0.103c0.162-0.068 0.31-0.167 0.434-0.292 0.24-0.249 0.375-0.581 0.375-0.927s-0.134-0.678-0.375-0.927v0zM14.667 24c-1.846 0-3.65-0.547-5.185-1.573s-2.731-2.483-3.438-4.189c-0.706-1.705-0.891-3.582-0.531-5.393s1.249-3.474 2.554-4.779 2.968-2.194 4.779-2.554c1.81-0.36 3.687-0.175 5.393 0.531s3.163 1.903 4.189 3.438c1.026 1.535 1.573 3.339 1.573 5.185 0 2.475-0.983 4.849-2.734 6.6s-4.124 2.734-6.6 2.734v0z"></path>
</symbol>
<symbol id="icon-burger" viewBox="0 0 24 24">
<path d="M3 15H21M10 6L11.584 3.62404C11.7819 3.32717 12.2181 3.32717 12.416 3.62404L14 6M19.2 12H4.8C3.80589 12 3 11.1941 3 10.2C3 6.22355 6.22355 3 10.2 3H13.8C17.7765 3 21 6.22355 21 10.2C21 11.1941 20.1941 12 19.2 12ZM4.5 21H19.5C20.3284 21 21 20.3284 21 19.5C21 18.6716 20.3284 18 19.5 18H4.5C3.67157 18 3 18.6716 3 19.5C3 20.3284 3.67157 21 4.5 21Z" fill="transparent" stroke-width="1" stroke-linecap="round"/>
</symbol>
<symbol id="icon-donut" viewBox="0 0 24 24">
<path d="M5 5L9 9M15 15L19 19M10 6H11M17 9H18M18 12V13M14 5L15 6M15 12C15 13.6569 13.6569 15 12 15C10.3431 15 9 13.6569 9 12C9 10.3431 10.3431 9 12 9C13.6569 9 15 10.3431 15 12ZM22 12C22 17.5228 17.5228 22 12 22C6.47715 22 2 17.5228 2 12C2 6.47715 6.47715 2 12 2C17.5228 2 22 6.47715 22 12Z" fill="transparent" stroke-width="1" stroke-linecap="round"/>
</symbol>
<symbol id="icon-martini" viewBox="0 0 24 24">
<path d="M12 13V21M8.99995 21H15M6.99995 8H17M20.1464 4.85355L13.4142 11.5858C12.6331 12.3668 11.3668 12.3668 10.5857 11.5858L3.8535 4.85355C3.53852 4.53857 3.76161 4 4.20706 4H19.7928C20.2383 4 20.4614 4.53857 20.1464 4.85355Z" fill="transparent" stroke-width="1" stroke-linecap="round"/>
</symbol>
<symbol id="icon-light" viewBox="0 0 24 24">
<path d="M12 4.5H5C4.73478 4.5 4.48043 4.60536 4.29289 4.79289C4.10536 4.98043 4 5.23478 4 5.5C4 5.76522 4.10536 6.01957 4.29289 6.20711C4.48043 6.39464 4.73478 6.5 5 6.5H12C12.2652 6.5 12.5196 6.39464 12.7071 6.20711C12.8946 6.01957 13 5.76522 13 5.5C13 5.23478 12.8946 4.98043 12.7071 4.79289C12.5196 4.60536 12.2652 4.5 12 4.5Z"/>
</symbol>
<symbol id="icon-details" viewBox="0 0 24 24">
<path d="M15.1797 18.5143L22.6136 12.0415C22.8278 11.855 22.9349 11.7617 22.9742 11.6507C23.0086 11.5533 23.0086 11.4467 22.9742 11.3493C22.9349 11.2383 22.8278 11.1451 22.6136 10.9585L15.1797 4.48576M9.02076 14.1436L9.02076 17.9728C9.02076 18.4662 9.02076 18.7129 9.11942 18.8359C9.20516 18.9427 9.33476 19.0033 9.47044 18.9999C9.62655 18.9959 9.81095 18.8354 10.1797 18.5143L17.6136 12.0415C17.8278 11.855 17.9349 11.7617 17.9742 11.6507C18.0086 11.5533 18.0086 11.4467 17.9742 11.3493C17.9349 11.2383 17.8278 11.145 17.6136 10.9585L10.1797 4.48574C9.81095 4.16463 9.62655 4.00407 9.47044 4.00014C9.33476 3.99672 9.20516 4.05727 9.11942 4.16414C9.02076 4.28711 9.02076 4.53382 9.02076 5.02723L9.02076 8.76266C7.75564 8.67548 6.51673 8.34464 5.37064 7.78613C4.07071 7.15264 2.92092 6.24122 2.00002 5.1143V5.65989C2.00111 7.77719 2.76952 9.81998 4.15865 11.3985C5.43281 12.8464 7.14738 13.8107 9.02076 14.1436Z" stroke-width="1" stroke-linecap="round" stroke-linejoin="round" fill="transparent"/>
</symbol>
<symbol id="icon-arrow-slider" viewBox="0 0 24 24">
<path d="M8.99989 21H14.9999M11.2525 3.84089L4.73958 11.1679C4.45295 11.4903 4.68186 12 5.11328 12H6.99986C8.10443 12 8.99986 12.8955 8.99986 14V17C8.99986 17.5523 9.44758 18 9.99986 18H13.9999C14.5521 18 14.9999 17.5523 14.9999 17V14C14.9999 12.8955 15.8953 12 16.9999 12H18.8864C19.3179 12 19.5468 11.4903 19.2601 11.1679L12.7473 3.84089C12.3495 3.39337 11.6502 3.39337 11.2525 3.84089Z" stroke-width="1" stroke-linecap="round" fill="transparent"/>
</symbol>
</defs>
</svg>
