<svg width="24" height="24" viewBox="0 0 24 24" fill="none" xmlns="http://www.w3.org/2000/svg">
<g clip-path="url(#clip0_803_17788)">
<path d="M18.4514 14.9377L18.6963 12.7336C18.8681 11.187 17.8289 9.76577 16.303 9.46059L14 9V7C14 5.89543 13.1046 5 12 5C10.8954 5 10 5.89543 10 7V12L8.97635 11.3176C7.92693 10.618 6.50179 10.9964 5.93774 12.1245C5.41984 13.1603 5.83968 14.4198 6.87548 14.9377L7.6613 15.3307C8.51846 15.7592 9.17025 16.5108 9.4733 17.4199L10 19L14 19M23 12C23 18.0751 18.0751 23 12 23C5.92487 23 1 18.0751 1 12C1 5.92487 5.92487 1 12 1C18.0751 1 23 5.92487 23 12Z" stroke="#ee4b00" stroke-width="2" stroke-linecap="round" stroke-linejoin="round"/>
</g>
<defs>
<clipPath id="clip0_803_17788">
<rect width="24" height="24" fill="white"/>
</clipPath>
</defs>
</svg>
