<svg width="1836" height="931" viewBox="0 0 1836 931" fill="none" xmlns="http://www.w3.org/2000/svg">
<path d="M186 0H1682V35V113H1647V35H221V113H186V35V0Z" fill="#000000"/>
<path d="M1682 931L186 931V896V818H221V896L1647 896V818H1682V896V931Z" fill="#000000"/>
<path d="M0 280H19.5L204 573.5V622H195L35 365V649H0V280Z" fill="#000000"/>
<path d="M408 280H388.5L204 573.5V622H212.5L373 365V649H408V280Z" fill="#000000"/>
<path d="M1336 386C1336 444.542 1288.54 492 1230 492C1182.58 492 1133 492 1133 492L1133 457H1224C1224 457 1298.5 457 1298.5 382.5C1298.5 315 1224 315 1224 315H1132.85C1132.93 294.704 1133 280 1133 280C1133 280 1205.28 280 1230 280C1288.54 280 1336 327.458 1336 386Z" fill="#000000"/>
<path d="M1063 280H1133L1133 315H1063V280Z" fill="#000000"/>
<path d="M1063 457H1133L1133 492H1063V457Z" fill="#000000"/>
<path d="M1063 315H1098V649H1063V315Z" fill="#000000"/>
<path d="M1492 280H1527V649H1492V280Z" fill="#000000"/>
<path d="M1527 445H1801V480H1527V445Z" fill="#000000"/>
<path d="M1801 280H1836V649H1801V280Z" fill="#000000"/>
<path d="M735.5 241C722.024 254.564 713.812 272.32 713.812 291.809C714.611 334.601 720.528 377.305 721.042 420.084C722.111 459.953 708.63 497.399 692.238 533.928C686.776 544.022 680.868 553.903 674.956 563.792L657.561 560.685C641.908 557.909 631.727 544.408 634.856 530.521C637.595 518.37 649.649 509.932 663.095 509.877L669.421 510.478L655.301 405.854C650.686 359.264 623.594 318.397 583.688 291.809C576.83 287.24 569.564 283.063 562 279.382V650.979H658.69C665.92 685.799 687.519 716.133 717.879 736.963C725.1 741.379 731.149 747.203 735.5 754C739.851 747.203 745.9 741.379 753.121 736.963C783.481 716.133 805.08 685.799 812.31 650.979H909V279.382C901.436 283.063 894.17 287.24 887.312 291.809C847.406 318.397 820.314 359.264 815.699 405.854L801.579 510.478L807.905 509.877C821.351 509.933 833.405 518.37 836.144 530.521C839.273 544.408 829.092 557.909 813.439 560.685L796.044 563.792C790.132 553.903 784.224 544.022 778.762 533.928C762.37 497.399 748.889 459.953 749.958 420.084C750.472 377.305 756.389 334.601 757.187 291.809C757.187 272.32 748.976 254.564 735.5 241ZM590.917 332.897C609.63 352.382 622.188 376.663 625.933 403.348L637.567 489.633C622.753 496.177 611.522 508.181 607.295 522.704H590.917V332.897ZM880.083 332.897V522.704H863.705C859.478 508.181 848.247 496.177 833.433 489.633L845.067 403.348C848.812 376.663 861.37 352.382 880.083 332.897ZM735.5 506.369C743.268 528.909 753.954 550.312 767.241 570.206C754.603 573.612 743.605 580.237 735.5 589.146C727.395 580.237 716.397 573.612 703.759 570.206C717.046 550.312 727.732 528.909 735.5 506.369ZM590.917 548.359H607.295C612.459 566.064 628.039 580.054 647.846 584.937L661.74 587.743C658.02 599.709 655.979 612.315 655.979 625.324H590.917V548.359ZM863.705 548.359H880.083V625.324H815.021C815.021 612.315 812.98 599.709 809.26 587.743L823.154 584.937C842.961 580.054 858.541 566.064 863.705 548.359ZM689.979 593.656C707.52 595.856 721.042 609.157 721.042 625.324H684.896C684.896 614.327 686.732 603.729 689.979 593.656ZM781.021 593.656C784.268 603.729 786.104 614.327 786.104 625.324H749.958C749.958 609.157 763.48 595.856 781.021 593.656ZM688.172 650.979H721.042V704.995C705.09 690.199 693.501 671.621 688.172 650.979ZM749.958 650.979H782.828C777.499 671.621 765.91 690.199 749.958 704.995V650.979Z" fill="#e57601"/>
<path d="M704 568.741L697 567.243L689 565.745C680.5 564.747 686.5 565.246 674.956 564.04L657.561 560.937C641.908 558.164 631.727 544.68 634.856 530.812C637.595 518.677 649.649 510.25 663.095 510.194L669.421 510.795L655.301 406.307C650.686 359.777 623.594 318.964 583.688 292.41C576.83 287.847 569.564 283.675 562 280V310.578L591 333.548C591 333.548 600.5 340.539 612.5 362.51C624.5 384.481 624.5 396.965 624.5 396.965L636.5 488.845C636.5 488.845 629 489.844 618 501.329C607 512.814 607 522.302 607 522.302V548.767C616 573.735 643 584.221 643 584.221L690 593.209C690 593.209 704.132 596.214 710.5 602.198C717.691 608.955 721 625.168 721 625.168V651.113C722.067 651.764 719.986 738.319 721 739.03C726.85 743.135 731.792 748.215 735.5 754C739.851 747.212 747 711.056 747 711.056V625.492C747 625.492 747 612.684 745 606.193C743 599.701 735.5 589.361 735.5 589.361C735.5 589.361 729 581.724 724 578.229C719 574.734 704 568.741 704 568.741Z" fill="#000000"/>
<path d="M767 568.741L774 567.243L782 565.745C790.5 564.747 784.5 565.246 796.044 564.04L813.439 560.937C829.092 558.164 839.273 544.68 836.144 530.812C833.405 518.677 821.351 510.25 807.905 510.194L801.579 510.795L815.699 406.307C820.314 359.777 847.406 318.964 887.312 292.41C894.17 287.847 901.436 283.675 909 280V310.578L880 333.548C880 333.548 870.5 340.539 858.5 362.51C846.5 384.481 846.5 396.965 846.5 396.965L834.5 488.845C834.5 488.845 842 489.844 853 501.329C864 512.814 864 522.302 864 522.302V548.767C855 573.735 828 584.221 828 584.221L781 593.209C781 593.209 766.868 596.214 760.5 602.198C753.309 608.955 750 625.168 750 625.168V651.113C748.933 651.764 751.014 738.319 750 739.03C744.15 743.135 739.208 748.215 735.5 754C731.149 747.212 724 711.056 724 711.056V625.492C724 625.492 724 612.684 726 606.193C728 599.701 735.5 589.361 735.5 589.361C735.5 589.361 742 581.724 747 578.229C752 574.734 767 568.741 767 568.741Z" fill="#000000"/>
</svg>
