<svg width="1836" height="931" viewBox="0 0 1836 931" fill="none" xmlns="http://www.w3.org/2000/svg">
<path d="M186 0H1682V35V113H1647V35H221V113H186V35V0Z" fill="black"/>
<path d="M1682 931L186 931V896V818H221V896L1647 896V818H1682V896V931Z" fill="black"/>
<path d="M0 280H19.5L204 573.5V622H195L35 365V649H0V280Z" fill="black"/>
<path d="M408 280H388.5L204 573.5V622H212.5L373 365V649H408V280Z" fill="black"/>
<path d="M1336 386C1336 444.542 1288.54 492 1230 492C1182.58 492 1133 492 1133 492L1133 457H1224C1224 457 1298.5 457 1298.5 382.5C1298.5 315 1224 315 1224 315H1132.85C1132.93 294.704 1133 280 1133 280C1133 280 1205.28 280 1230 280C1288.54 280 1336 327.458 1336 386Z" fill="black"/>
<path d="M1063 280H1133L1133 315H1063V280Z" fill="black"/>
<path d="M1063 457H1133L1133 492H1063V457Z" fill="black"/>
<path d="M1063 315H1098V649H1063V315Z" fill="black"/>
<path d="M1492 280H1527V649H1492V280Z" fill="black"/>
<path d="M1527 445H1801V480H1527V445Z" fill="black"/>
<path d="M1801 280H1836V649H1801V280Z" fill="black"/>
<path d="M709.143 504.221L572 292H617.714L730.857 469.286L841.714 292H888L750.286 504.221V657H709.143V504.221Z" fill="black"/>
</svg>
