<svg width="428" height="90" viewBox="0 0 428 90" fill="none" xmlns="http://www.w3.org/2000/svg">
<g clip-path="url(#clip0_29_2)">
<path d="M131.892 0V90H119.578V2.64L124.641 2.76L72.7871 90H59.1051L7.25135 2.88001L12.3135 2.76V90H0V0H19.428L70.0508 86.1602H61.9783L112.464 0H131.892Z" fill="#3A3A3A"/>
<path d="M180.451 90V47.4H193.312V90H180.451ZM131.881 0H146.657L191.123 48.36H182.777L226.969 0H241.745L190.986 55.44L182.914 55.56L131.881 0Z" fill="#3A3A3A"/>
<path d="M294.302 0C301.507 0 307.756 1.12 313.046 3.36C318.336 5.6 322.441 8.76002 325.359 12.84C328.278 16.84 329.738 21.48 329.738 26.76C329.738 32.04 328.278 36.72 325.359 40.8C322.441 44.8 318.336 47.96 313.046 50.28C307.756 52.52 301.507 53.64 294.302 53.64H247.51V43.8H294.028C300.96 43.8 306.433 42.28 310.446 39.24C314.551 36.12 316.603 31.96 316.603 26.76C316.603 21.56 314.551 17.44 310.446 14.4C306.433 11.36 300.96 9.84002 294.028 9.84002H248.878L254.624 4.32V90H241.764V0H294.302Z" fill="#3A3A3A"/>
<path d="M330.312 0H343.173V90H330.312V0ZM415.139 0H428V90H415.139V0ZM336.879 39.84H422.117V49.8H336.879V39.84Z" fill="#3A3A3A"/>
</g>
<defs>
<clipPath id="clip0_29_2">
<rect width="428" height="90" fill="white"/>
</clipPath>
</defs>
</svg>
