<svg width="50" height="10" viewBox="0 0 50 10" fill="none" xmlns="http://www.w3.org/2000/svg">
<g clip-path="url(#clip0_301_2)">
<mask id="mask0_301_2" style="mask-type:luminance" maskUnits="userSpaceOnUse" x="0" y="0" width="50" height="10">
<path d="M50 0H0V10H50V0Z" fill="white"/>
</mask>
<g mask="url(#mask0_301_2)">
<path d="M15.4079 0V10H13.9694V0.293333L14.5609 0.306667L8.50317 10H6.9048L0.84712 0.320001L1.43849 0.306667V10H0V0H2.26963L8.1835 9.57336H7.24046L13.1383 0H15.4079Z" fill="#3A3A3A"/>
<path d="M21.0803 10V5.26667H22.5828V10H21.0803ZM15.4062 0H17.1324L22.327 5.37333H21.352L26.5147 0H28.2408L22.311 6.16L21.368 6.17333L15.4062 0Z" fill="#3A3A3A"/>
<path d="M34.3808 0C35.2225 0 35.9525 0.124444 36.5705 0.373333C37.1885 0.622222 37.668 0.973336 38.0089 1.42667C38.3499 1.87111 38.5205 2.38667 38.5205 2.97333C38.5205 3.56 38.3499 4.08 38.0089 4.53333C37.668 4.97778 37.1885 5.32889 36.5705 5.58667C35.9525 5.83556 35.2225 5.96 34.3808 5.96H28.9144V4.86667H34.3488C35.1586 4.86667 35.798 4.69778 36.2668 4.36C36.7463 4.01333 36.986 3.55111 36.986 2.97333C36.986 2.39556 36.7463 1.93778 36.2668 1.6C35.798 1.26222 35.1586 1.09334 34.3488 1.09334H29.0742L29.7455 0.48V10H28.2432V0H34.3808Z" fill="#3A3A3A"/>
<path d="M38.5879 0H40.0903V10H38.5879V0ZM48.4976 0H50V10H48.4976V0ZM39.3551 4.42667H49.3128V5.53333H39.3551V4.42667Z" fill="#3A3A3A"/>
</g>
</g>
<defs>
<clipPath id="clip0_301_2">
<rect width="50" height="10" fill="white"/>
</clipPath>
</defs>
</svg>
