<svg width="679" height="143" viewBox="0 0 679 143" fill="#5f5f5f1a" xmlns="http://www.w3.org/2000/svg">

<path d="M209.24 0V143H189.705V4.19467L197.736 4.38533L115.473 143H93.7672L11.5039 4.57601L19.5348 4.38533V143H0V0H30.8216L111.132 136.899H98.3254L178.418 0H209.24Z"/>
<path d="M286.276 143V75.3133H306.679V143H286.276ZM209.222 0H232.664L303.207 76.8387H289.966L360.075 0H383.516L302.989 88.088L290.183 88.2787L209.222 0Z"/>
<path d="M466.895 0C478.326 0 488.239 1.77956 496.631 5.33867C505.024 8.89778 511.536 13.9187 516.166 20.4013C520.797 26.7569 523.112 34.1293 523.112 42.5187C523.112 50.908 520.797 58.344 516.166 64.8267C511.536 71.1822 505.024 76.2031 496.631 79.8893C488.239 83.4484 478.326 85.228 466.895 85.228H392.663V69.5933H466.461C477.458 69.5933 486.14 67.1782 492.507 62.348C499.019 57.3907 502.275 50.7809 502.275 42.5187C502.275 34.2564 499.019 27.7102 492.507 22.88C486.14 18.0498 477.458 15.6347 466.461 15.6347H394.833L403.949 6.864V143H383.546V0H466.895Z"/>
<path d="M524.024 0H544.427V143H524.024V0ZM658.597 0H679V143H658.597V0ZM534.442 63.3013H669.667V79.1267H534.442V63.3013Z"/>
</svg>
